{
.appVersion = "1312";
classes = (
{
automatic = 1;
code = "A Aacute Adieresis Agrave Aring Atilde AE B C Ccedilla D Eth E Eacute Edieresis Egrave F G H I Iacute Idieresis Igrave J K L M N Ntilde O Oacute Odieresis Ograve Oslash Otilde OE P Thorn Q R S Scaron T U Uacute Udieresis Ugrave V W X Y Yacute Ydieresis Z Zcaron";
name = Uppercase;
},
{
automatic = 1;
code = "A Aacute Adieresis Agrave Aring Atilde AE B C Ccedilla D Eth E Eacute Edieresis Egrave F G H I Iacute Idieresis Igrave J K L M N Ntilde O Oacute Odieresis Ograve Oslash Otilde OE P Thorn Q R S Scaron T U Uacute Udieresis Ugrave V W X Y Yacute Ydieresis Z Zcaron a aacute adieresis agrave aring atilde ae b c ccedilla d eth e eacute edieresis egrave f g h i iacute idieresis igrave j k l m n ntilde o oacute odieresis ograve oslash otilde oe p thorn q r s scaron germandbls t u uacute udieresis ugrave v w x y yacute ydieresis z zcaron ordfeminine ordmasculine mu zero one two three four five six seven eight nine onesuperior twosuperior threesuperior period comma colon semicolon ellipsis exclam exclamdown question questiondown periodcentered bullet asterisk numbersign slash backslash parenleft parenright braceleft braceright bracketleft bracketright hyphen endash emdash underscore quotesinglbase quotedblbase quotedblleft quotedblright quoteleft quoteright guillemetleft guillemetright guilsinglleft guilsinglright quotedbl quotesingle space cent dollar florin sterling yen plus multiply divide equal greater less plusminus asciitilde logicalnot asciicircum at ampersand paragraph section copyright registered trademark degree bar brokenbar dagger daggerdbl dieresis grave acute circumflex tilde macron cedilla";
name = All;
},
{
automatic = 1;

glyphs = (
{
color = 4;
glyphname = A;
layers = (
{
anchors = (
{
name = bottom;
position = "{304, 0}";
},
{
name = ogonek;
position = "{603, 10}";
},
{
name = top;
position = "{433, 644}";
}
);
layerId = "0E5388DE-A0E6-4EB4-BC9B-CE5870C9023F";
paths = (
{
closed = 1;
nodes = (
"455 644 LINE",
"415 644 LINE",
"51 26 LINE",
"-19 12 LINE",
"-22 0 LINE",
"211 0 LINE",
"212 10 LINE",
"169 17 OFFCURVE",
"127 22 OFFCURVE",
"85 26 CURVE",
"434 626 LINE",
"425 627 LINE",
"527 26 LINE",
"410 12 LINE",
"407 0 LINE",
"631 0 LINE",
"632 10 LINE",
"611 16 OFFCURVE",
"587 22 OFFCURVE",
"562 25 CURVE"
);
},
{
closed = 1;
nodes = (
"510 235 LINE",
"506 265 LINE",
"206 265 LINE",
"190 235 LINE"
);
}
);
width = 705;
},
{
anchors = (
{
name = bottom;
position = "{263, 0}";
},
{
name = ogonek;
position = "{638, 0}";
},
{
name = top;
position = "{424, 660}";
}
);
background = {
paths = (
{
closed = 1;
nodes = (
"124 10 LINE",
"387 553 LINE",
"359 553 LINE",
"400 10 LINE",
"642 10 LINE",
"545 660 LINE",
"297 660 LINE",
"-52 10 LINE"
);
},
{
closed = 1;
nodes = (
"225 0 LINE",
"235 73 LINE",
"179 107 OFFCURVE",
"119 132 OFFCURVE",
"51 145 CURVE",
"-69 73 LINE",
"-82 0 LINE"
);
},
{
closed = 1;
nodes = (
"667 0 LINE",
"676 73 LINE",
"616 107 OFFCURVE",
"550 133 OFFCURVE",
"480 146 CURVE",
"306 73 LINE",
"292 0 LINE"
);
}
);
};
layerId = "FCE02CC8-2979-430D-9DE0-31930C0E296D";
paths = (
{
closed = 1;
nodes = (
"545 660 LINE",
"297 660 LINE",
"7 118 LINE",
"-69 73 LINE",
"-82 0 LINE",
"225 0 LINE",
"235 73 LINE",
"215 85 OFFCURVE",
"193 97 OFFCURVE",
"171 107 CURVE",
"404 587 LINE",
"356 596 LINE",
"392 109 LINE",
"306 73 LINE",
"292 0 LINE",
"667 0 LINE",
"676 73 LINE",
"661 82 OFFCURVE",
"644 90 OFFCURVE",
"628 98 CURVE"
);
},
{
closed = 1;
nodes = (
"525 158 LINE",
"513 271 LINE",
"150 271 LINE",
"99 158 LINE"
);
}
);
width = 681;
}
);
leftKerningGroup = A;
rightKerningGroup = A;
unicode = 0041;
},
{
color = 4;
glyphname = Aacute;
layers = (
{
anchors = (
{
name = top;
position = "{478, 869}";
}
);
components = (
{
name = A;
}
);
layerId = "0E5388DE-A0E6-4EB4-BC9B-CE5870C9023F";
paths = (
{
closed = 1;
nodes = (
"459 768 OFFCURVE",
"514 806 OFFCURVE",
"569 847 CURVE",
"553 869 LINE",
"547 869 LINE",
"391 740 LINE",
"397 731 LINE"
);
}
);
width = 705;
},
{
anchors = (
{
name = top;
position = "{482, 954}";
}
);
components = (
{
name = A;
}
);
layerId = "FCE02CC8-2979-430D-9DE0-31930C0E296D";
paths = (
{
closed = 1;
nodes = (
"444 732 OFFCURVE",
"532 764 OFFCURVE",
"620 805 CURVE",
"549 946 LINE",
"523 946 LINE",
"313 775 LINE",
"353 705 LINE"
);
}
);
width = 681;
}
);
leftKerningGroup = A;
rightKerningGroup = A;
unicode = 00C1;
},
{
color = 4;
glyphname = Adieresis;
layers = (
{
anchors = (
{
name = top;
position = "{471, 834}";
}
);
components = (
{
name = A;
}
);
layerId = "0E5388DE-A0E6-4EB4-BC9B-CE5870C9023F";
paths = (
{
closed = 1;
nodes = (
"395 831 OFFCURVE",
"382 823 OFFCURVE",
"370 811 CURVE",
"373 799 OFFCURVE",
"381 786 OFFCURVE",
"392 773 CURVE",
"406 775 OFFCURVE",
"421 783 OFFCURVE",
"431 794 CURVE",
"429 808 OFFCURVE",
"422 822 OFFCURVE",
"410 834 CURVE"
);
},
{
closed = 1;
nodes = (
"524 831 OFFCURVE",
"510 823 OFFCURVE",
"499 811 CURVE",
"503 796 OFFCURVE",
"511 783 OFFCURVE",
"522 773 CURVE",
"535 775 OFFCURVE",
"548 782 OFFCURVE",
"560 794 CURVE",
"558 808 OFFCURVE",
"551 821 OFFCURVE",
"540 834 CURVE"
);
}
);
width = 705;
},
{
anchors = (
{
name = top;
position = "{480, 940}";
}
);
components = (
{
name = A;
}
);
layerId = "FCE02CC8-2979-430D-9DE0-31930C0E296D";
paths = (
{
closed = 1;
nodes = (
"322 931 OFFCURVE",
"272 901 OFFCURVE",
"237 864 CURVE",
"246 809 OFFCURVE",
"277 757 OFFCURVE",
"316 725 CURVE",
"367 732 OFFCURVE",
"420 764 OFFCURVE",
"453 804 CURVE",
"445 855 OFFCURVE",
"415 904 OFFCURVE",
"375 940 CURVE"
);
},
{
closed = 1;
nodes = (
"549 931 OFFCURVE",
"499 901 OFFCURVE",
"463 864 CURVE",
"472 809 OFFCURVE",
"503 757 OFFCURVE",
"542 725 CURVE",
"594 732 OFFCURVE",
"646 764 OFFCURVE",
"679 804 CURVE",
"671 855 OFFCURVE",
"640 904 OFFCURVE",
"600 940 CURVE"
);
}
);
width = 681;
}
);
leftKerningGroup = A;
rightKerningGroup = A;
unicode = 00C4;
},
{
color = 4;
glyphname = Agrave;
layers = (
{
anchors = (
{
name = top;
position = "{478, 869}";
}
);
components = (
{
name = A;
}
);
layerId = "0E5388DE-A0E6-4EB4-BC9B-CE5870C9023F";
paths = (
{
closed = 1;
nodes = (
"535 740 LINE",
"379 869 LINE",
"373 869 LINE",
"357 847 LINE",
"412 806 OFFCURVE",
"467 768 OFFCURVE",
"529 731 CURVE"
);
}
);
width = 705;
},
{
anchors = (
{
name = top;
position = "{482, 954}";
}
);
components = (
{
name = A;
}
);
layerId = "FCE02CC8-2979-430D-9DE0-31930C0E296D";
paths = (
{
closed = 1;
nodes = (
"598 775 LINE",
"388 946 LINE",
"362 946 LINE",
"291 805 LINE",
"378 764 OFFCURVE",
"467 732 OFFCURVE",
"558 705 CURVE"
);
}
);
width = 681;
}
);
leftKerningGroup = A;
rightKerningGroup = A;
unicode = 00C0;
},
{
color = 4;
glyphname = Aring;
layers = (
{
anchors = (
{
name = top;
position = "{463, 801}";
}
);
components = (
{
name = A;
}
);
layerId = "0E5388DE-A0E6-4EB4-BC9B-CE5870C9023F";
paths = (
{
closed = 1;
nodes = (
"499 733 OFFCURVE",
"534 768 OFFCURVE",
"534 811 CURVE SMOOTH",
"534 846 OFFCURVE",
"508 871 OFFCURVE",
"473 871 CURVE SMOOTH",
"430 871 OFFCURVE",
"395 836 OFFCURVE",
"395 794 CURVE SMOOTH",
"395 758 OFFCURVE",
"421 733 OFFCURVE",
"457 733 CURVE SMOOTH"
);
},
{
closed = 1;
nodes = (
"434 757 OFFCURVE",
"419 771 OFFCURVE",
"419 793 CURVE SMOOTH",
"419 823 OFFCURVE",
"443 847 OFFCURVE",
"473 847 CURVE SMOOTH",
"495 847 OFFCURVE",
"510 833 OFFCURVE",
"510 811 CURVE SMOOTH",
"510 781 OFFCURVE",
"486 757 OFFCURVE",
"457 757 CURVE SMOOTH"
);
}
);
width = 705;
},
{
anchors = (
{
name = top;
position = "{473, 933}";
}
);
components = (
{
name = A;
}
);
layerId = "FCE02CC8-2979-430D-9DE0-31930C0E296D";
paths = (
{
closed = 1;
nodes = (
"529 697 OFFCURVE",
"597 766 OFFCURVE",
"597 850 CURVE SMOOTH",
"597 920 OFFCURVE",
"544 972 OFFCURVE",
"472 972 CURVE SMOOTH",
"390 972 OFFCURVE",
"321 902 OFFCURVE",
"321 819 CURVE SMOOTH",
"321 749 OFFCURVE",
"373 697 OFFCURVE",
"445 697 CURVE SMOOTH"
);
},
{
closed = 1;
nodes = (
"419 778 OFFCURVE",
"402 795 OFFCURVE",
"402 824 CURVE SMOOTH",
"402 861 OFFCURVE",
"432 891 OFFCURVE",
"468 891 CURVE SMOOTH",
"498 891 OFFCURVE",
"515 874 OFFCURVE",
"515 845 CURVE SMOOTH",
"515 808 OFFCURVE",
"487 778 OFFCURVE",
"449 778 CURVE SMOOTH"
);
}
);
width = 681;
}
);
leftKerningGroup = A;
rightKerningGroup = A;
unicode = 00C5;
},
{
color = 4;
glyphname = Atilde;
layers = (
{
anchors = (
{
name = top;
position = "{474, 853}";
}
);
components = (
{
name = A;
}
);
layerId = "0E5388DE-A0E6-4EB4-BC9B-CE5870C9023F";
paths = (
{
closed = 1;
nodes = (
"399 807 LINE",
"505 778 LINE SMOOTH",
"531 771 OFFCURVE",
"541 778 OFFCURVE",
"599 846 CURVE",
"592 853 LINE",
"531 801 LINE",
"424 830 LINE SMOOTH",
"401 836 OFFCURVE",
"394 838 OFFCURVE",
"330 763 CURVE",
"337 755 LINE"
);
}
);
width = 705;
},
{
anchors = (
{
name = top;
position = "{480, 940}";
}
);
components = (
{
name = A;
}
);
layerId = "FCE02CC8-2979-430D-9DE0-31930C0E296D";
paths = (
{
closed = 1;
nodes = (
"369 783 LINE",
"490 750 LINE SMOOTH",
"535 738 OFFCURVE",
"564 735 OFFCURVE",
"658 902 CURVE",
"617 940 LINE",
"548 888 LINE",
"428 921 LINE SMOOTH",
"377 934 OFFCURVE",
"352 928 OFFCURVE",
"261 769 CURVE",
"300 731 LINE"
);
}
);
width = 681;
}
);
leftKerningGroup = A;
rightKerningGroup = A;
unicode = 00C3;
},
{
color = 4;
glyphname = AE;
layers = (
{
anchors = (
{
name = bottom;
position = "{426, 0}";
},
{
name = top;
position = "{625, 644}";
}
);
layerId = "0E5388DE-A0E6-4EB4-BC9B-CE5870C9023F";
paths = (
{
closed = 1;
nodes = (
"61 10 LINE",
"481 629 LINE",
"470 629 LINE",
"514 10 LINE",
"546 10 LINE",
"499 634 LINE",
"451 634 LINE",
"24 10 LINE"
);
},
{
closed = 1;
nodes = (
"192 0 LINE",
"194 10 LINE",
"141 19 OFFCURVE",
"91 24 OFFCURVE",
"40 28 CURVE",
"-18 12 LINE",
"-20 0 LINE"
);
},
{
closed = 1;
nodes = (
"508 235 LINE",
"508 265 LINE",
"207 265 LINE",
"201 235 LINE"
);
},
{
closed = 1;
nodes = (
"735 321 LINE",
"741 351 LINE",
"506 351 LINE",
"506 321 LINE"
);
},
{
closed = 1;
nodes = (
"728 232 LINE",
"770 441 LINE",
"763 441 LINE",
"709 336 LINE",
"721 232 LINE"
);
},
{
closed = 1;
nodes = (
"758 17 LINE",
"776 30 LINE",
"540 30 LINE",
"391 12 LINE",
"389 0 LINE",
"796 0 LINE",
"837 205 LINE",
"829 205 LINE"
);
},
{
closed = 1;
nodes = (
"333 644 LINE",
"330 633 LINE",
"454 614 LINE",
"866 614 LINE",
"853 627 LINE",
"852 460 LINE",
"860 460 LINE",
"897 644 LINE"
);
}
);
width = 942;
},
{
anchors = (
{
name = bottom;
position = "{430, 0}";
},
{
name = top;
position = "{656, 660}";
}
);
layerId = "FCE02CC8-2979-430D-9DE0-31930C0E296D";
paths = (
{
closed = 1;
nodes = (
"104 10 LINE",
"437 557 LINE",
"418 557 LINE",
"398 10 LINE",
"613 10 LINE",
"605 650 LINE",
"346 650 LINE",
"-76 10 LINE"
);
},
{
closed = 1;
nodes = (
"200 0 LINE",
"215 74 LINE",
"160 107 OFFCURVE",
"103 130 OFFCURVE",
"35 142 CURVE",
"-71 71 LINE",
"-85 0 LINE"
);
},
{
closed = 1;
nodes = (
"482 158 LINE",
"482 271 LINE",
"147 271 LINE",
"122 158 LINE"
);
},
{
closed = 1;
nodes = (
"766 271 LINE",
"792 395 LINE",
"526 395 LINE",
"526 271 LINE"
);
},
{
closed = 1;
nodes = (
"783 200 LINE",
"834 459 LINE",
"757 459 LINE",
"666 330 LINE",
"705 200 LINE"
);
},
{
closed = 1;
nodes = (
"753 47 LINE",
"896 127 LINE",
"434 127 LINE",
"294 71 LINE",
"280 0 LINE",
"911 0 LINE",
"960 245 LINE",
"875 245 LINE"
);
},
{
closed = 1;
nodes = (
"211 660 LINE",
"196 583 LINE",
"333 533 LINE",
"948 533 LINE",
"830 624 LINE",
"880 433 LINE",
"966 433 LINE",
"1011 660 LINE"
);
}
);
width = 993;
}
);
leftKerningGroup = A;
rightKerningGroup = E;
unicode = 00C6;
},
{
color = 4;
glyphname = B;
layers = (
{
anchors = (
{
name = bottom;
position = "{286, 0}";
},
{
name = top;
position = "{415, 644}";
}
);
layerId = "0E5388DE-A0E6-4EB4-BC9B-CE5870C9023F";
paths = (
{
closed = 1;
nodes = (
"316 0 LINE SMOOTH",
"463 0 OFFCURVE",
"579 86 OFFCURVE",
"579 195 CURVE SMOOTH",
"579 274 OFFCURVE",
"519 327 OFFCURVE",
"417 340 CURVE",
"417 333 LINE",
"534 358 OFFCURVE",
"610 432 OFFCURVE",
"610 520 CURVE SMOOTH",
"610 596 OFFCURVE",
"547 644 OFFCURVE",
"448 644 CURVE SMOOTH",
"130 644 LINE",
"127 633 LINE",
"249 615 LINE",
"124 29 LINE",
"66 27 OFFCURVE",
"28 21 OFFCURVE",
"3 10 CURVE",
"1 0 LINE"
);
},
{
closed = 1;
nodes = (
"279 614 LINE",
"444 614 LINE SMOOTH",
"528 614 OFFCURVE",
"576 579 OFFCURVE",
"576 517 CURVE SMOOTH",
"576 442 OFFCURVE",
"511 378 OFFCURVE",
"404 348 CURVE",
"211 348 LINE",
"205 318 LINE",
"379 318 LINE SMOOTH",
"481 318 OFFCURVE",
"544 271 OFFCURVE",
"544 194 CURVE SMOOTH",
"544 116 OFFCURVE",
"477 50 OFFCURVE",
"378 30 CURVE",
"162 30 LINE"
);
}
);
width = 668;
},
{
anchors = (
{
name = bottom;
position = "{305, 0}";
},
{
name = top;
position = "{437, 660}";
}
);
layerId = "FCE02CC8-2979-430D-9DE0-31930C0E296D";
paths = (
{
closed = 1;
nodes = (
"364 0 LINE SMOOTH",
"560 0 OFFCURVE",
"682 81 OFFCURVE",
"682 199 CURVE SMOOTH",
"682 286 OFFCURVE",
"617 336 OFFCURVE",
"479 350 CURVE",
"473 324 LINE",
"616 339 OFFCURVE",
"725 417 OFFCURVE",
"725 518 CURVE SMOOTH",
"725 611 OFFCURVE",
"631 660 OFFCURVE",
"498 660 CURVE SMOOTH",
"89 660 LINE",
"74 580 LINE",
"156 549 LINE",
"56 107 LINE",
"13 92 OFFCURVE",
"-5 84 OFFCURVE",
"-28 73 CURVE",
"-42 0 LINE"
);
},
{
closed = 1;
nodes = (
"365 533 LINE",
"425 533 LINE SMOOTH",
"467 533 OFFCURVE",
"489 516 OFFCURVE",
"489 482 CURVE SMOOTH",
"489 448 OFFCURVE",
"471 415 OFFCURVE",
"436 389 CURVE",
"216 389 LINE",
"191 263 LINE",
"401 263 LINE SMOOTH",
"438 263 OFFCURVE",
"456 246 OFFCURVE",
"456 212 CURVE SMOOTH",
"456 176 OFFCURVE",
"436 143 OFFCURVE",
"404 126 CURVE",
"284 126 LINE"
);
}
);
width = 709;
}
);
leftKerningGroup = H;
rightKerningGroup = B;
unicode = 0042;
},
{
color = 4;
glyphname = C;
layers = (
{
anchors = (
{
name = bottom;
position = "{352, 0}";
},
{
name = top;
position = "{454, 644}";
}
);
layerId = "0E5388DE-A0E6-4EB4-BC9B-CE5870C9023F";
paths = (
{
closed = 1;
nodes = (
"404 -7 OFFCURVE",
"440 -2 OFFCURVE",
"527 16 CURVE",
"526 48 LINE",
"463 31 OFFCURVE",
"411 23 OFFCURVE",
"365 23 CURVE SMOOTH",
"212 23 OFFCURVE",
"125 104 OFFCURVE",
"125 248 CURVE SMOOTH",
"125 365 OFFCURVE",
"173 482 OFFCURVE",
"259 572 CURVE",
"244 560 LINE",
"325 601 OFFCURVE",
"396 620 OFFCURVE",
"470 620 CURVE SMOOTH",
"516 620 OFFCURVE",
"564 613 OFFCURVE",
"615 597 CURVE",
"624 632 LINE",
"566 646 OFFCURVE",
"510 653 OFFCURVE",
"468 653 CURVE SMOOTH",
"247 653 OFFCURVE",
"91 486 OFFCURVE",
"91 248 CURVE SMOOTH",
"91 84 OFFCURVE",
"190 -7 OFFCURVE",
"368 -7 CURVE SMOOTH"
);
},
{
closed = 1;
nodes = (
"527 16 LINE",
"555 197 LINE",
"547 197 LINE",
"480 16 LINE"
);
},
{
closed = 1;
nodes = (
"596 451 LINE",
"624 632 LINE",
"578 632 LINE",
"588 451 LINE"
);
}
);
width = 667;
},
{
anchors = (
{
name = bottom;
position = "{323, 0}";
},
{
name = top;
position = "{428, 660}";
}
);
layerId = "FCE02CC8-2979-430D-9DE0-31930C0E296D";
paths = (
{
closed = 1;
nodes = (
"386 -13 OFFCURVE",
"466 -1 OFFCURVE",
"557 22 CURVE",
"504 176 LINE",
"433 147 OFFCURVE",
"377 131 OFFCURVE",
"337 131 CURVE SMOOTH",
"277 131 OFFCURVE",
"250 165 OFFCURVE",
"250 239 CURVE SMOOTH",
"250 348 OFFCURVE",
"298 488 OFFCURVE",
"365 562 CURVE",
"259 505 LINE",
"313 520 OFFCURVE",
"359 520 OFFCURVE",
"398 520 CURVE SMOOTH",
"467 520 OFFCURVE",
"521 511 OFFCURVE",
"577 492 CURVE",
"651 645 LINE",
"573 664 OFFCURVE",
"495 674 OFFCURVE",
"433 674 CURVE SMOOTH",
"186 674 OFFCURVE",
"25 511 OFFCURVE",
"25 262 CURVE SMOOTH",
"25 86 OFFCURVE",
"132 -13 OFFCURVE",
"319 -13 CURVE SMOOTH"
);
},
{
closed = 1;
nodes = (
"557 22 LINE",
"594 253 LINE",
"499 253 LINE",
"353 18 LINE"
);
},
{
closed = 1;
nodes = (
"615 415 LINE",
"651 645 LINE",
"452 648 LINE",
"522 415 LINE"
);
}
);
width = 637;
}
);
leftKerningGroup = O;
rightKerningGroup = C;
unicode = 0043;
},
{
color = 4;
glyphname = Ccedilla;
layers = (
{
anchors = (
{
name = _bottom;
position = "{352, 0}";
},
{
name = bottom;
position = "{340, -206}";
}
);
components = (
{
name = C;
}
);
layerId = "0E5388DE-A0E6-4EB4-BC9B-CE5870C9023F";
paths = (
{
closed = 1;
nodes = (
"347 -223 OFFCURVE",
"426 -192 OFFCURVE",
"426 -129 CURVE SMOOTH",
"426 -95 OFFCURVE",
"398 -71 OFFCURVE",
"333 -49 CURVE",
"318 -72 LINE",
"379 -94 OFFCURVE",
"402 -111 OFFCURVE",
"402 -135 CURVE SMOOTH",
"402 -150 OFFCURVE",
"391 -170 OFFCURVE",
"376 -181 CURVE",
"268 -175 LINE",
"266 -192 LINE"
);
},
{
closed = 1;
nodes = (
"318 -72 LINE",
"340 -72 LINE",
"367 11 LINE",
"345 11 LINE"
);
}
);
width = 667;
},
{
anchors = (
{
name = _bottom;
position = "{323, 0}";
},
{
name = bottom;
position = "{310, -248}";
}
);
components = (
{
name = C;
}
);
layerId = "FCE02CC8-2979-430D-9DE0-31930C0E296D";
paths = (
{
closed = 1;
nodes = (
"347 -268 OFFCURVE",
"450 -223 OFFCURVE",
"450 -125 CURVE SMOOTH",
"450 -72 OFFCURVE",
"410 -41 OFFCURVE",
"307 -16 CURVE",
"252 -105 LINE",
"332 -135 OFFCURVE",
"349 -144 OFFCURVE",
"349 -154 CURVE SMOOTH",
"349 -156 OFFCURVE",
"348 -159 OFFCURVE",
"346 -161 CURVE",
"211 -138 LINE",
"198 -231 LINE"
);
},
{
closed = 1;
nodes = (
"252 -105 LINE",
"322 -105 LINE",
"369 18 LINE",
"296 18 LINE"
);
}
);
width = 637;
}
);
leftKerningGroup = O;
rightKerningGroup = C;
unicode = 00C7;
},
{
color = 4;
glyphname = D;
layers = (
{
anchors = (
{
name = bottom;
position = "{310, 0}";
},
{
name = center;
position = "{218, 334}";
},
{
name = top;
position = "{418, 644}";
}
);
layerId = "0E5388DE-A0E6-4EB4-BC9B-CE5870C9023F";
paths = (
{
closed = 1;
nodes = (
"130 644 LINE",
"127 633 LINE",
"249 615 LINE",
"124 29 LINE",
"74 27 OFFCURVE",
"34 21 OFFCURVE",
"3 10 CURVE",
"1 0 LINE",
"328 0 LINE SMOOTH",
"515 0 OFFCURVE",
"681 192 OFFCURVE",
"681 409 CURVE SMOOTH",
"681 555 OFFCURVE",
"595 644 OFFCURVE",
"454 644 CURVE SMOOTH"
);
},
{
closed = 1;
nodes = (
"162 30 LINE",
"279 614 LINE",
"454 614 LINE SMOOTH",
"571 614 OFFCURVE",
"645 535 OFFCURVE",
"645 408 CURVE SMOOTH",
"645 235 OFFCURVE",
"548 89 OFFCURVE",
"395 30 CURVE"
);
}
);
width = 734;
},
{
anchors = (
{
name = bottom;
position = "{315, 0}";
},
{
name = center;
position = "{218, 330}";
},
{
name = top;
position = "{447, 660}";
}
);
layerId = "FCE02CC8-2979-430D-9DE0-31930C0E296D";
paths = (
{
closed = 1;
nodes = (
"88 660 LINE",
"73 580 LINE",
"157 549 LINE",
"57 107 LINE",
"15 93 OFFCURVE",
"-10 82 OFFCURVE",
"-29 73 CURVE",
"-43 0 LINE",
"334 0 LINE SMOOTH",
"573 0 OFFCURVE",
"753 175 OFFCURVE",
"753 409 CURVE SMOOTH",
"753 573 OFFCURVE",
"664 660 OFFCURVE",
"497 660 CURVE SMOOTH"
);
},
{
closed = 1;
nodes = (
"286 129 LINE",
"365 531 LINE",
"443 531 LINE SMOOTH",
"497 531 OFFCURVE",
"523 495 OFFCURVE",
"523 418 CURVE SMOOTH",
"523 299 OFFCURVE",
"466 160 OFFCURVE",
"406 129 CURVE"
);
}
);
width = 737;
}
);
leftKerningGroup = H;
rightKerningGroup = O;
unicode = 0044;
},
{
color = 4;
glyphname = Eth;
layers = (
{
anchors = (
{
name = _center;
position = "{243, 334}";
}
);
components = (
{
name = D;
transform = "{1, 0, 0, 1, 25, 0}";
}
);
layerId = "0E5388DE-A0E6-4EB4-BC9B-CE5870C9023F";
leftMetricsKey = "=+25";
paths = (
{
closed = 1;
nodes = (
"87 320 LINE",
"393 320 LINE",
"399 347 LINE",
"93 347 LINE"
);
}
);
width = 759;
},
{
anchors = (
{
name = _center;
position = "{253, 330}";
}
);
components = (
{
name = D;
transform = "{1, 0, 0, 1, 35, 0}";
}
);
layerId = "FCE02CC8-2979-430D-9DE0-31930C0E296D";
leftMetricsKey = "=+35";
paths = (
{
closed = 1;
nodes = (
"31 277 LINE",
"453 277 LINE",
"475 382 LINE",
"53 382 LINE"
);
}
);
width = 772;
}
);
leftKerningGroup = H;
rightKerningGroup = O;
unicode = 00D0;
},
{
color = 4;
glyphname = E;
layers = (
{
anchors = (
{
name = bottom;
position = "{292, 0}";
},
{
name = ogonek;
position = "{505, 10}";
},
{
name = top;
position = "{431, 644}";
},
{
name = topleft;
position = "{123, 644}";
}
);
background = {
paths = (
{
closed = 1;
nodes = (
"156 0 LINE",
"285 644 LINE",
"130 644 LINE",
"127 633 LINE",
"249 615 LINE",
"124 29 LINE",
"87 27 OFFCURVE",
"46 21 OFFCURVE",
"3 10 CURVE",
"1 0 LINE"
);
},
{
closed = 1;
nodes = (
"508 0 LINE",
"514 30 LINE",
"145 30 LINE",
"139 0 LINE"
);
},
{
closed = 1;
nodes = (
"522 0 LINE",
"563 205 LINE",
"555 205 LINE",
"478 0 LINE"
);
},
{
closed = 1;
nodes = (
"472 319 LINE",
"478 349 LINE",
"209 349 LINE",
"203 319 LINE"
);
},
{
closed = 1;
nodes = (
"461 230 LINE",
"503 439 LINE",
"496 439 LINE",
"442 334 LINE",
"454 230 LINE"
);
},
{
closed = 1;
nodes = (
"616 614 LINE",
"622 644 LINE",
"268 644 LINE",
"262 614 LINE"
);
},
{
closed = 1;
nodes = (
"604 460 LINE",
"641 644 LINE",
"597 644 LINE",
"596 460 LINE"
);
}
);
};
layerId = "0E5388DE-A0E6-4EB4-BC9B-CE5870C9023F";
paths = (
{
closed = 1;
nodes = (
"522 0 LINE",
"563 205 LINE",
"555 205 LINE",
"489 30 LINE",
"162 30 LINE",
"220 319 LINE",
"444 319 LINE",
"454 230 LINE",
"461 230 LINE",
"503 439 LINE",
"496 439 LINE",
"450 349 LINE",
"226 349 LINE",
"279 614 LINE",
"597 614 LINE",
"596 460 LINE",
"604 460 LINE",
"641 644 LINE",
"130 644 LINE",
"127 633 LINE",
"249 615 LINE",
"124 29 LINE",
"87 27 OFFCURVE",
"46 21 OFFCURVE",
"3 10 CURVE",
"1 0 LINE"
);
}
);
width = 677;
},
{
anchors = (
{
name = bottom;
position = "{311, 0}";
},
{
name = ogonek;
position = "{613, 10}";
},
{
name = top;
position = "{442, 660}";
},
{
name = topleft;
position = "{89, 660}";
}
);
background = {
paths = (
{
closed = 1;
nodes = (
"259 0 LINE",
"390 660 LINE",
"88 660 LINE",
"73 580 LINE",
"156 549 LINE",
"56 107 LINE",
"26 98 OFFCURVE",
"-2 86 OFFCURVE",
"-29 73 CURVE",
"-43 0 LINE"
);
},
{
closed = 1;
nodes = (
"601 0 LINE",
"627 128 LINE",
"168 128 LINE",
"142 0 LINE"
);
},
{
closed = 1;
nodes = (
"619 0 LINE",
"667 246 LINE",
"579 246 LINE",
"425 0 LINE"
);
},
{
closed = 1;
nodes = (
"512 269 LINE",
"537 395 LINE",
"223 395 LINE",
"199 269 LINE"
);
},
{
closed = 1;
nodes = (
"506 195 LINE",
"560 465 LINE",
"480 465 LINE",
"386 330 LINE",
"426 195 LINE"
);
},
{
closed = 1;
nodes = (
"691 533 LINE",
"716 660 LINE",
"273 660 LINE",
"248 533 LINE"
);
},
{
closed = 1;
nodes = (
"696 432 LINE",
"741 660 LINE",
"547 660 LINE",
"607 432 LINE"
);
}
);
};
layerId = "FCE02CC8-2979-430D-9DE0-31930C0E296D";
paths = (
{
closed = 1;
nodes = (
"619 0 LINE",
"667 246 LINE",
"579 246 LINE",
"505 128 LINE",
"284 128 LINE",
"313 269 LINE",
"405 269 LINE",
"426 195 LINE",
"506 195 LINE",
"560 465 LINE",
"480 465 LINE",
"432 395 LINE",
"338 395 LINE",
"365 533 LINE",
"580 533 LINE",
"607 432 LINE",
"696 432 LINE",
"741 660 LINE",
"88 660 LINE",
"73 580 LINE",
"156 549 LINE",
"56 107 LINE",
"26 98 OFFCURVE",
"-2 86 OFFCURVE",
"-29 73 CURVE",
"-43 0 LINE"
);
}
);
width = 712;
}
);
leftKerningGroup = H;
rightKerningGroup = E;
unicode = 0045;
},
{
color = 4;
glyphname = Eacute;
layers = (
{
anchors = (
{
name = top;
position = "{476, 869}";
}
);
components = (
{
name = E;
}
);
layerId = "0E5388DE-A0E6-4EB4-BC9B-CE5870C9023F";
paths = (
{
closed = 1;
nodes = (
"457 768 OFFCURVE",
"512 806 OFFCURVE",
"567 847 CURVE",
"551 869 LINE",
"545 869 LINE",
"389 740 LINE",
"395 731 LINE"
);
}
);
width = 677;
},
{
anchors = (
{
name = top;
position = "{500, 954}";
}
);
components = (
{
name = E;
}
);
layerId = "FCE02CC8-2979-430D-9DE0-31930C0E296D";
paths = (
{
closed = 1;
nodes = (
"462 732 OFFCURVE",
"550 764 OFFCURVE",
"638 805 CURVE",
"567 946 LINE",
"541 946 LINE",
"331 775 LINE",
"371 705 LINE"
);
}
);
width = 712;
}
);
leftKerningGroup = H;
rightKerningGroup = E;
unicode = 00C9;
},
{
color = 4;
glyphname = Edieresis;
layers = (
{
anchors = (
{
name = top;
position = "{469, 834}";
}
);
components = (
{
name = E;
}
);
layerId = "0E5388DE-A0E6-4EB4-BC9B-CE5870C9023F";
paths = (
{
closed = 1;
nodes = (
"393 831 OFFCURVE",
"380 823 OFFCURVE",
"368 811 CURVE",
"371 799 OFFCURVE",
"379 786 OFFCURVE",
"390 773 CURVE",
"404 775 OFFCURVE",
"419 783 OFFCURVE",
"429 794 CURVE",
"427 808 OFFCURVE",
"420 822 OFFCURVE",
"408 834 CURVE"
);
},
{
closed = 1;
nodes = (
"522 831 OFFCURVE",
"508 823 OFFCURVE",
"497 811 CURVE",
"501 796 OFFCURVE",
"509 783 OFFCURVE",
"520 773 CURVE",
"533 775 OFFCURVE",
"546 782 OFFCURVE",
"558 794 CURVE",
"556 808 OFFCURVE",
"549 821 OFFCURVE",
"538 834 CURVE"
);
}
);
width = 677;
},
{
anchors = (
{
name = top;
position = "{498, 940}";
}
);
components = (
{
name = E;
}
);
layerId = "FCE02CC8-2979-430D-9DE0-31930C0E296D";
paths = (
{
closed = 1;
nodes = (
"340 931 OFFCURVE",
"290 901 OFFCURVE",
"255 864 CURVE",
"264 809 OFFCURVE",
"295 757 OFFCURVE",
"334 725 CURVE",
"385 732 OFFCURVE",
"438 764 OFFCURVE",
"471 804 CURVE",
"463 855 OFFCURVE",
"433 904 OFFCURVE",
"393 940 CURVE"
);
},
{
closed = 1;
nodes = (
"567 931 OFFCURVE",
"517 901 OFFCURVE",
"481 864 CURVE",
"490 809 OFFCURVE",
"521 757 OFFCURVE",
"560 725 CURVE",
"612 732 OFFCURVE",
"664 764 OFFCURVE",
"697 804 CURVE",
"689 855 OFFCURVE",
"658 904 OFFCURVE",
"618 940 CURVE"
);
}
);
width = 712;
}
);
leftKerningGroup = H;
rightKerningGroup = E;
unicode = 00CB;
},
{
color = 4;
glyphname = Egrave;
layers = (
{
anchors = (
{
name = top;
position = "{476, 869}";
}
);
components = (
{
name = E;
}
);
layerId = "0E5388DE-A0E6-4EB4-BC9B-CE5870C9023F";
paths = (
{
closed = 1;
nodes = (
"533 740 LINE",
"377 869 LINE",
"371 869 LINE",
"355 847 LINE",
"410 806 OFFCURVE",
"465 768 OFFCURVE",
"527 731 CURVE"
);
}
);
width = 677;
},
{
anchors = (
{
name = top;
position = "{500, 954}";
}
);
components = (
{
name = E;
}
);
layerId = "FCE02CC8-2979-430D-9DE0-31930C0E296D";
paths = (
{
closed = 1;
nodes = (
"616 775 LINE",
"406 946 LINE",
"380 946 LINE",
"309 805 LINE",
"396 764 OFFCURVE",
"485 732 OFFCURVE",
"576 705 CURVE"
);
}
);
width = 712;
}
);
leftKerningGroup = H;
rightKerningGroup = E;
unicode = 00C8;
},
{
color = 4;
glyphname = F;
layers = (
{
anchors = (
{
name = bottom;
position = "{140, 0}";
},
{
name = center;
position = "{176, 162}";
},
{
name = top;
position = "{419, 644}";
}
);
layerId = "0E5388DE-A0E6-4EB4-BC9B-CE5870C9023F";
paths = (
{
closed = 1;
nodes = (
"130 644 LINE",
"127 633 LINE",
"249 615 LINE",
"124 29 LINE",
"87 27 OFFCURVE",
"46 21 OFFCURVE",
"3 10 CURVE",
"1 0 LINE",
"298 0 LINE",
"300 12 LINE",
"162 30 LINE",
"279 614 LINE",
"564 614 LINE",
"563 460 LINE",
"571 460 LINE",
"608 644 LINE"
);
},
{
closed = 1;
nodes = (
"434 305 LINE",
"440 335 LINE",
"206 335 LINE",
"200 305 LINE"
);
},
{
closed = 1;
nodes = (
"433 216 LINE",
"475 425 LINE",
"468 425 LINE",
"414 320 LINE",
"426 216 LINE"
);
}
);
width = 592;
},
{
anchors = (
{
name = bottom;
position = "{279, 0}";
},
{
name = center;
position = "{183, 174}";
},
{
name = top;
position = "{410, 660}";
}
);
layerId = "FCE02CC8-2979-430D-9DE0-31930C0E296D";
paths = (
{
closed = 1;
nodes = (
"88 660 LINE",
"73 580 LINE",
"156 549 LINE",
"56 107 LINE",
"26 98 OFFCURVE",
"-2 86 OFFCURVE",
"-29 73 CURVE",
"-43 0 LINE",
"375 0 LINE",
"391 81 LINE",
"279 103 LINE",
"365 533 LINE",
"567 533 LINE",
"594 426 LINE",
"683 426 LINE",
"729 660 LINE"
);
},
{
closed = 1;
nodes = (
"472 242 LINE",
"498 368 LINE",
"220 368 LINE",
"194 242 LINE"
);
},
{
closed = 1;
nodes = (
"492 168 LINE",
"546 437 LINE",
"465 437 LINE",
"372 302 LINE",
"411 168 LINE"
);
}
);
width = 639;
}
);
leftKerningGroup = H;
rightKerningGroup = F;
unicode = 0046;
},
{
color = 4;
glyphname = G;
layers = (
{
anchors = (
{
name = bottom;
position = "{331, 0}";
},
{
name = top;
position = "{450, 644}";
}
);
background = {
paths = (
{
closed = 1;
nodes = (
"411 -7 OFFCURVE",
"452 -2 OFFCURVE",
"530 14 CURVE",
"529 46 LINE",
"469 31 OFFCURVE",
"416 23 OFFCURVE",
"371 23 CURVE SMOOTH",
"214 23 OFFCURVE",
"126 106 OFFCURVE",
"126 253 CURVE SMOOTH",
"126 365 OFFCURVE",
"177 485 OFFCURVE",
"260 572 CURVE",
"246 561 LINE",
"320 599 OFFCURVE",
"401 619 OFFCURVE",
"485 619 CURVE SMOOTH",
"537 619 OFFCURVE",
"589 612 OFFCURVE",
"642 597 CURVE",
"651 632 LINE",
"593 646 OFFCURVE",
"539 653 OFFCURVE",
"488 653 CURVE SMOOTH",
"250 653 OFFCURVE",
"92 497 OFFCURVE",
"92 262 CURVE SMOOTH",
"92 83 OFFCURVE",
"184 -7 OFFCURVE",
"369 -7 CURVE SMOOTH"
);
},
{
closed = 1;
nodes = (
"530 14 LINE",
"584 286 LINE",
"623 289 OFFCURVE",
"654 295 OFFCURVE",
"678 305 CURVE",
"680 314 LINE",
"402 314 LINE",
"399 303 LINE",
"549 285 LINE",
"492 14 LINE"
);
},
{
closed = 1;
nodes = (
"615 451 LINE",
"651 632 LINE",
"605 632 LINE",
"607 451 LINE"
);
}
);
};
layerId = "0E5388DE-A0E6-4EB4-BC9B-CE5870C9023F";
paths = (
{
closed = 1;
nodes = (
"411 -7 OFFCURVE",
"452 -2 OFFCURVE",
"530 14 CURVE",
"529 46 LINE",
"469 31 OFFCURVE",
"416 23 OFFCURVE",
"371 23 CURVE SMOOTH",
"214 23 OFFCURVE",
"126 106 OFFCURVE",
"126 253 CURVE SMOOTH",
"126 365 OFFCURVE",
"177 485 OFFCURVE",
"260 572 CURVE",
"246 561 LINE",
"320 599 OFFCURVE",
"398 619 OFFCURVE",
"482 619 CURVE SMOOTH",
"533 619 OFFCURVE",
"587 612 OFFCURVE",
"642 597 CURVE",
"651 632 LINE",
"593 646 OFFCURVE",
"539 653 OFFCURVE",
"488 653 CURVE SMOOTH",
"250 653 OFFCURVE",
"92 497 OFFCURVE",
"92 262 CURVE SMOOTH",
"92 83 OFFCURVE",
"184 -7 OFFCURVE",
"369 -7 CURVE SMOOTH"
);
},
{
closed = 1;
nodes = (
"530 14 LINE",
"584 286 LINE",
"623 289 OFFCURVE",
"654 295 OFFCURVE",
"678 305 CURVE",
"680 314 LINE",
"402 314 LINE",
"399 303 LINE",
"549 285 LINE",
"492 14 LINE"
);
},
{
closed = 1;
nodes = (
"615 451 LINE",
"651 632 LINE",
"605 632 LINE",
"607 451 LINE"
);
}
);
width = 718;
},
{
anchors = (
{
name = bottom;
position = "{317, 0}";
},
{
name = top;
position = "{431, 660}";
}
);
background = {
paths = (
{
closed = 1;
nodes = (
"395 -13 OFFCURVE",
"479 0 OFFCURVE",
"583 24 CURVE",
"543 165 LINE",
"467 137 OFFCURVE",
"408 123 OFFCURVE",
"363 123 CURVE SMOOTH",
"287 123 OFFCURVE",
"251 163 OFFCURVE",
"251 245 CURVE SMOOTH",
"251 347 OFFCURVE",
"302 497 OFFCURVE",
"365 557 CURVE",
"260 509 LINE",
"307 516 OFFCURVE",
"352 520 OFFCURVE",
"396 520 CURVE SMOOTH",
"458 520 OFFCURVE",
"519 512 OFFCURVE",
"578 492 CURVE",
"696 645 LINE",
"609 665 OFFCURVE",
"504 674 OFFCURVE",
"447 674 CURVE SMOOTH",
"191 674 OFFCURVE",
"26 518 OFFCURVE",
"26 275 CURVE SMOOTH",
"26 85 OFFCURVE",
"127 -13 OFFCURVE",
"322 -13 CURVE SMOOTH"
);
},
{
closed = 1;
nodes = (
"583 24 LINE",
"622 246 LINE",
"658 257 OFFCURVE",
"682 267 OFFCURVE",
"701 277 CURVE",
"709 355 LINE",
"337 355 LINE",
"324 274 LINE",
"409 243 LINE",
"367 24 LINE"
);
},
{
closed = 1;
nodes = (
"651 419 LINE",
"696 645 LINE",
"497 648 LINE",
"558 419 LINE"
);
}
);
};
layerId = "FCE02CC8-2979-430D-9DE0-31930C0E296D";
paths = (
{
closed = 1;
nodes = (
"395 -13 OFFCURVE",
"479 0 OFFCURVE",
"583 24 CURVE",
"543 165 LINE",
"467 137 OFFCURVE",
"408 123 OFFCURVE",
"363 123 CURVE SMOOTH",
"287 123 OFFCURVE",
"251 163 OFFCURVE",
"251 245 CURVE SMOOTH",
"251 347 OFFCURVE",
"302 497 OFFCURVE",
"365 557 CURVE",
"260 509 LINE",
"302 517 OFFCURVE",
"343 521 OFFCURVE",
"384 521 CURVE SMOOTH",
"451 521 OFFCURVE",
"516 510 OFFCURVE",
"578 492 CURVE",
"696 645 LINE",
"609 665 OFFCURVE",
"504 674 OFFCURVE",
"447 674 CURVE SMOOTH",
"191 674 OFFCURVE",
"26 518 OFFCURVE",
"26 275 CURVE SMOOTH",
"26 85 OFFCURVE",
"127 -13 OFFCURVE",
"322 -13 CURVE SMOOTH"
);
},
{
closed = 1;
nodes = (
"583 24 LINE",
"622 246 LINE",
"658 257 OFFCURVE",
"682 267 OFFCURVE",
"701 277 CURVE",
"709 355 LINE",
"337 355 LINE",
"324 274 LINE",
"409 243 LINE",
"367 24 LINE"
);
},
{
closed = 1;
nodes = (
"651 419 LINE",
"696 645 LINE",
"497 648 LINE",
"558 419 LINE"
);
}
);
width = 696;
}
);
leftKerningGroup = O;
rightKerningGroup = G;
unicode = 0047;
},
{
color = 4;
glyphname = H;
layers = (
{
anchors = (
{
name = bottom;
position = "{350, 0}";
},
{
name = center;
position = "{448, 496}";
},
{
name = top;
position = "{479, 644}";
},
{
name = topleft;
position = "{123, 644}";
}
);
layerId = "0E5388DE-A0E6-4EB4-BC9B-CE5870C9023F";
paths = (
{
closed = 1;
nodes = (
"695 0 LINE",
"697 12 LINE",
"584 30 LINE",
"701 616 LINE",
"732 618 OFFCURVE",
"765 623 OFFCURVE",
"822 635 CURVE",
"824 644 LINE",
"552 644 LINE",
"549 633 LINE",
"671 615 LINE",
"546 29 LINE",
"508 27 OFFCURVE",
"466 19 OFFCURVE",
"424 7 CURVE",
"423 0 LINE"
);
},
{
closed = 1;
nodes = (
"273 0 LINE",
"275 12 LINE",
"162 30 LINE",
"279 616 LINE",
"312 618 OFFCURVE",
"348 624 OFFCURVE",
"400 635 CURVE",
"402 644 LINE",
"130 644 LINE",
"127 633 LINE",
"249 615 LINE",
"124 29 LINE",
"87 27 OFFCURVE",
"46 21 OFFCURVE",
"3 10 CURVE",
"1 0 LINE"
);
},
{
closed = 1;
nodes = (
"626 319 LINE",
"632 349 LINE",
"209 349 LINE",
"203 319 LINE"
);
}
);
width = 793;
},
{
anchors = (
{
name = bottom;
position = "{350, 0}";
},
{
name = center;
position = "{450, 499}";
},
{
name = top;
position = "{481, 660}";
},
{
name = topleft;
position = "{89, 660}";
}
);
layerId = "FCE02CC8-2979-430D-9DE0-31930C0E296D";
paths = (
{
closed = 1;
nodes = (
"742 0 LINE",
"759 81 LINE",
"686 103 LINE",
"776 552 LINE",
"806 562 OFFCURVE",
"833 574 OFFCURVE",
"859 587 CURVE",
"874 660 LINE",
"505 660 LINE",
"490 580 LINE",
"564 549 LINE",
"462 107 LINE",
"436 98 OFFCURVE",
"410 86 OFFCURVE",
"388 74 CURVE",
"374 0 LINE"
);
},
{
closed = 1;
nodes = (
"326 0 LINE",
"342 81 LINE",
"279 103 LINE",
"369 552 LINE",
"394 562 OFFCURVE",
"420 574 OFFCURVE",
"443 587 CURVE",
"457 660 LINE",
"88 660 LINE",
"73 580 LINE",
"156 549 LINE",
"56 107 LINE",
"26 98 OFFCURVE",
"-2 86 OFFCURVE",
"-29 73 CURVE",
"-43 0 LINE"
);
},
{
closed = 1;
nodes = (
"611 259 LINE",
"636 386 LINE",
"230 386 LINE",
"205 259 LINE"
);
}
);
width = 802;
}
);
leftKerningGroup = H;
rightKerningGroup = H;
unicode = 0048;
},
{
color = 4;
glyphname = I;
layers = (
{
anchors = (
{
name = bottom;
position = "{139, 0}";
},
{
name = ogonek;
position = "{247, 10}";
},
{
name = top;
position = "{268, 644}";
},
{
name = topleft;
position = "{123, 644}";
}
);
layerId = "0E5388DE-A0E6-4EB4-BC9B-CE5870C9023F";
paths = (
{
closed = 1;
nodes = (
"273 0 LINE",
"275 12 LINE",
"162 30 LINE",
"279 616 LINE",
"310 618 OFFCURVE",
"343 623 OFFCURVE",
"400 635 CURVE",
"402 644 LINE",
"130 644 LINE",
"127 633 LINE",
"249 615 LINE",
"124 29 LINE",
"87 27 OFFCURVE",
"46 21 OFFCURVE",
"3 10 CURVE",
"1 0 LINE"
);
}
);
width = 371;
},
{
anchors = (
{
name = bottom;
position = "{147, 0}";
},
{
name = ogonek;
position = "{317, 10}";
},
{
name = top;
position = "{278, 660}";
},
{
name = topleft;
position = "{89, 660}";
}
);
layerId = "FCE02CC8-2979-430D-9DE0-31930C0E296D";
paths = (
{
closed = 1;
nodes = (
"336 0 LINE",
"352 81 LINE",
"279 103 LINE",
"369 552 LINE",
"398 562 OFFCURVE",
"427 574 OFFCURVE",
"453 587 CURVE",
"467 660 LINE",
"88 660 LINE",
"73 580 LINE",
"156 549 LINE",
"56 107 LINE",
"26 98 OFFCURVE",
"-2 86 OFFCURVE",
"-29 73 CURVE",
"-43 0 LINE"
);
}
);
width = 395;
}
);
leftKerningGroup = H;
rightKerningGroup = H;
unicode = 0049;
},
{
color = 4;
glyphname = Iacute;
layers = (
{
anchors = (
{
name = top;
position = "{313, 869}";
}
);
components = (
{
name = I;
}
);
layerId = "0E5388DE-A0E6-4EB4-BC9B-CE5870C9023F";
paths = (
{
closed = 1;
nodes = (
"294 768 OFFCURVE",
"349 806 OFFCURVE",
"404 847 CURVE",
"388 869 LINE",
"382 869 LINE",
"226 740 LINE",
"232 731 LINE"
);
}
);
width = 371;
},
{
anchors = (
{
name = top;
position = "{336, 954}";
}
);
components = (
{
name = I;
}
);
layerId = "FCE02CC8-2979-430D-9DE0-31930C0E296D";
paths = (
{
closed = 1;
nodes = (
"298 732 OFFCURVE",
"386 764 OFFCURVE",
"474 805 CURVE",
"403 946 LINE",
"377 946 LINE",
"167 775 LINE",
"207 705 LINE"
);
}
);
width = 395;
}
);
leftKerningGroup = H;
rightKerningGroup = H;
unicode = 00CD;
},
{
color = 4;
glyphname = Idieresis;
layers = (
{
anchors = (
{
name = top;
position = "{306, 834}";
}
);
components = (
{
name = I;
}
);
layerId = "0E5388DE-A0E6-4EB4-BC9B-CE5870C9023F";
paths = (
{
closed = 1;
nodes = (
"230 831 OFFCURVE",
"217 823 OFFCURVE",
"205 811 CURVE",
"208 799 OFFCURVE",
"216 786 OFFCURVE",
"227 773 CURVE",
"241 775 OFFCURVE",
"256 783 OFFCURVE",
"266 794 CURVE",
"264 808 OFFCURVE",
"257 822 OFFCURVE",
"245 834 CURVE"
);
},
{
closed = 1;
nodes = (
"359 831 OFFCURVE",
"345 823 OFFCURVE",
"334 811 CURVE",
"338 796 OFFCURVE",
"346 783 OFFCURVE",
"357 773 CURVE",
"370 775 OFFCURVE",
"383 782 OFFCURVE",
"395 794 CURVE",
"393 808 OFFCURVE",
"386 821 OFFCURVE",
"375 834 CURVE"
);
}
);
width = 371;
},
{
anchors = (
{
name = top;
position = "{334, 940}";
}
);
components = (
{
name = I;
}
);
layerId = "FCE02CC8-2979-430D-9DE0-31930C0E296D";
paths = (
{
closed = 1;
nodes = (
"176 931 OFFCURVE",
"126 901 OFFCURVE",
"91 864 CURVE",
"100 809 OFFCURVE",
"131 757 OFFCURVE",
"170 725 CURVE",
"221 732 OFFCURVE",
"274 764 OFFCURVE",
"307 804 CURVE",
"299 855 OFFCURVE",
"269 904 OFFCURVE",
"229 940 CURVE"
);
},
{
closed = 1;
nodes = (
"403 931 OFFCURVE",
"353 901 OFFCURVE",
"317 864 CURVE",
"326 809 OFFCURVE",
"357 757 OFFCURVE",
"396 725 CURVE",
"448 732 OFFCURVE",
"500 764 OFFCURVE",
"533 804 CURVE",
"525 855 OFFCURVE",
"494 904 OFFCURVE",
"454 940 CURVE"
);
}
);
width = 395;
}
);
leftKerningGroup = H;
rightKerningGroup = H;
unicode = 00CF;
},
{
color = 4;
glyphname = Igrave;
layers = (
{
anchors = (
{
name = top;
position = "{313, 869}";
}
);
components = (
{
name = I;
}
);
layerId = "0E5388DE-A0E6-4EB4-BC9B-CE5870C9023F";
paths = (
{
closed = 1;
nodes = (
"370 740 LINE",
"214 869 LINE",
"208 869 LINE",
"192 847 LINE",
"247 806 OFFCURVE",
"302 768 OFFCURVE",
"364 731 CURVE"
);
}
);
width = 371;
},
{
anchors = (
{
name = top;
position = "{336, 954}";
}
);
components = (
{
name = I;
}
);
layerId = "FCE02CC8-2979-430D-9DE0-31930C0E296D";
paths = (
{
closed = 1;
nodes = (
"452 775 LINE",
"242 946 LINE",
"216 946 LINE",
"145 805 LINE",
"232 764 OFFCURVE",
"321 732 OFFCURVE",
"412 705 CURVE"
);
}
);
width = 395;
}
);
leftKerningGroup = H;
rightKerningGroup = H;
unicode = 00CC;
},
{
color = 4;
glyphname = J;
layers = (
{
anchors = (
{
name = bottom;
position = "{192, 0}";
},
{
name = top;
position = "{409, 644}";
}
);
layerId = "0E5388DE-A0E6-4EB4-BC9B-CE5870C9023F";
paths = (
{
closed = 1;
nodes = (
"45 -5 OFFCURVE",
"69 -7 OFFCURVE",
"90 -7 CURVE SMOOTH",
"225 -7 OFFCURVE",
"307 63 OFFCURVE",
"334 201 CURVE SMOOTH",
"416 616 LINE",
"459 619 OFFCURVE",
"496 625 OFFCURVE",
"530 635 CURVE",
"532 644 LINE",
"248 644 LINE",
"245 633 LINE",
"386 615 LINE",
"282 117 LINE",
"236 47 OFFCURVE",
"190 24 OFFCURVE",
"100 24 CURVE SMOOTH",
"72 24 OFFCURVE",
"48 25 OFFCURVE",
"25 28 CURVE",
"13 0 LINE"
);
},
{
closed = 1;
nodes = (
"54 0 LINE",
"61 205 LINE",
"54 205 LINE",
"13 0 LINE"
);
}
);
width = 486;
},
{
anchors = (
{
name = bottom;
position = "{199, 0}";
},
{
name = top;
position = "{433, 660}";
}
);
layerId = "FCE02CC8-2979-430D-9DE0-31930C0E296D";
paths = (
{
closed = 1;
nodes = (
"8 -11 OFFCURVE",
"59 -15 OFFCURVE",
"106 -15 CURVE SMOOTH",
"305 -15 OFFCURVE",
"425 73 OFFCURVE",
"459 246 CURVE SMOOTH",
"521 552 LINE",
"546 561 OFFCURVE",
"580 577 OFFCURVE",
"601 587 CURVE",
"616 660 LINE",
"177 660 LINE",
"162 580 LINE",
"308 549 LINE",
"220 142 LINE",
"203 132 OFFCURVE",
"184 129 OFFCURVE",
"162 129 CURVE SMOOTH",
"117 129 OFFCURVE",
"61 149 OFFCURVE",
"8 186 CURVE",
"-49 0 LINE"
);
},
{
closed = 1;
nodes = (
"142 0 LINE",
"91 258 LINE",
"3 258 LINE",
"-49 0 LINE"
);
}
);
width = 523;
}
);
leftKerningGroup = J;
rightKerningGroup = U;
unicode = 004A;
},
{
color = 4;
glyphname = K;
layers = (
{
anchors = (
{
name = bottom;
position = "{320, 0}";
},
{
name = top;
position = "{449, 644}";
}
);
layerId = "0E5388DE-A0E6-4EB4-BC9B-CE5870C9023F";
paths = (
{
closed = 1;
nodes = (
"273 0 LINE",
"275 12 LINE",
"162 30 LINE",
"279 616 LINE",
"310 618 OFFCURVE",
"343 623 OFFCURVE",
"400 635 CURVE",
"402 644 LINE",
"130 644 LINE",
"127 633 LINE",
"249 615 LINE",
"124 29 LINE",
"87 27 OFFCURVE",
"46 21 OFFCURVE",
"3 10 CURVE",
"1 0 LINE"
);
},
{
closed = 1;
nodes = (
"655 0 LINE",
"657 12 LINE",
"545 32 LINE",
"491 30 OFFCURVE",
"439 22 OFFCURVE",
"384 7 CURVE",
"383 0 LINE"
);
},
{
closed = 1;
nodes = (
"667 614 OFFCURVE",
"712 622 OFFCURVE",
"763 637 CURVE",
"765 644 LINE",
"493 644 LINE",
"490 632 LINE",
"622 612 LINE"
);
},
{
closed = 1;
nodes = (
"631 634 LINE",
"271 333 LINE",
"529 10 LINE",
"567 10 LINE",
"569 18 LINE",
"306 341 LINE",
"305 322 LINE",
"673 631 LINE",
"674 634 LINE"
);
}
);
width = 742;
},
{
anchors = (
{
name = bottom;
position = "{339, 0}";
},
{
name = top;
position = "{470, 660}";
}
);
layerId = "FCE02CC8-2979-430D-9DE0-31930C0E296D";
paths = (
{
closed = 1;
nodes = (
"336 0 LINE",
"352 81 LINE",
"279 103 LINE",
"369 552 LINE",
"398 562 OFFCURVE",
"427 574 OFFCURVE",
"453 587 CURVE",
"467 660 LINE",
"88 660 LINE",
"73 580 LINE",
"156 549 LINE",
"56 107 LINE",
"26 98 OFFCURVE",
"-2 86 OFFCURVE",
"-29 73 CURVE",
"-43 0 LINE"
);
},
{
closed = 1;
nodes = (
"722 0 LINE",
"738 81 LINE",
"588 146 LINE",
"521 135 OFFCURVE",
"448 111 OFFCURVE",
"378 74 CURVE",
"363 0 LINE"
);
},
{
closed = 1;
nodes = (
"702 526 OFFCURVE",
"760 550 OFFCURVE",
"819 587 CURVE",
"833 660 LINE",
"528 660 LINE",
"512 578 LINE",
"643 514 LINE"
);
},
{
closed = 1;
nodes = (
"638 650 LINE",
"321 319 LINE",
"447 10 LINE",
"663 10 LINE",
"688 65 LINE",
"515 439 LINE",
"488 288 LINE",
"784 586 LINE",
"787 650 LINE"
);
}
);
width = 755;
}
);
leftKerningGroup = H;
rightKerningGroup = X;
unicode = 004B;
},
{
color = 4;
glyphname = L;
layers = (
{
anchors = (
{
name = bottom;
position = "{255, 0}";
},
{
name = center;
position = "{229, 366}";
},
{
name = top;
position = "{274, 644}";
},
{
name = topright;
position = "{576, 644}";
}
);
layerId = "0E5388DE-A0E6-4EB4-BC9B-CE5870C9023F";
paths = (
{
closed = 1;
nodes = (
"444 30 LINE",
"162 30 LINE",
"279 616 LINE",
"317 618 OFFCURVE",
"358 624 OFFCURVE",
"410 635 CURVE",
"412 644 LINE",
"130 644 LINE",
"127 633 LINE",
"249 615 LINE",
"124 29 LINE",
"87 27 OFFCURVE",
"46 21 OFFCURVE",
"3 10 CURVE",
"1 0 LINE",
"475 0 LINE",
"525 250 LINE",
"518 250 LINE"
);
}
);
width = 592;
},
{
anchors = (
{
name = bottom;
position = "{265, 0}";
},
{
name = center;
position = "{234, 346}";
},
{
name = top;
position = "{296, 660}";
},
{
name = topright;
position = "{632, 660}";
}
);
layerId = "FCE02CC8-2979-430D-9DE0-31930C0E296D";
paths = (
{
closed = 1;
nodes = (
"431 127 LINE",
"284 127 LINE",
"369 552 LINE",
"409 562 OFFCURVE",
"448 574 OFFCURVE",
"482 587 CURVE",
"497 660 LINE",
"88 660 LINE",
"73 580 LINE",
"156 549 LINE",
"56 107 LINE",
"26 98 OFFCURVE",
"-2 86 OFFCURVE",
"-29 73 CURVE",
"-43 0 LINE",
"552 0 LINE",
"612 292 LINE",
"521 292 LINE"
);
}
);
width = 606;
}
);
leftKerningGroup = H;
rightKerningGroup = L;
unicode = 004C;
},
{
color = 4;
glyphname = M;
layers = (
{
anchors = (
{
name = bottom;
position = "{413, 0}";
},
{
name = top;
position = "{553, 644}";
}
);
background = {
paths = (
{
closed = 1;
nodes = (
"421 0 LINE",
"833 644 LINE",
"798 644 LINE",
"418 51 LINE",
"434 51 LINE",
"305 644 LINE",
"272 644 LINE",
"412 0 LINE"
);
},
{
closed = 1;
nodes = (
"283 0 LINE",
"285 12 LINE",
"155 30 LINE",
"290 644 LINE",
"134 644 LINE",
"131 633 LINE",
"257 615 LINE",
"120 29 LINE",
"84 27 OFFCURVE",
"44 21 OFFCURVE",
"-4 10 CURVE",
"-6 0 LINE"
);
},
{
closed = 1;
nodes = (
"850 0 LINE",
"852 12 LINE",
"735 30 LINE",
"842 616 LINE",
"874 618 OFFCURVE",
"909 623 OFFCURVE",
"966 635 CURVE",
"968 644 LINE",
"816 644 LINE",
"697 29 LINE",
"660 27 OFFCURVE",
"621 21 OFFCURVE",
"573 10 CURVE",
"571 0 LINE"
);
}
);
};
layerId = "0E5388DE-A0E6-4EB4-BC9B-CE5870C9023F";
paths = (
{
closed = 1;
nodes = (
"283 0 LINE",
"285 12 LINE",
"155 30 LINE",
"284 616 LINE",
"278 616 LINE",
"412 0 LINE",
"421 0 LINE",
"816 617 LINE",
"812 619 LINE",
"697 29 LINE",
"660 27 OFFCURVE",
"621 21 OFFCURVE",
"573 10 CURVE",
"571 0 LINE",
"850 0 LINE",
"852 12 LINE",
"735 30 LINE",
"842 616 LINE",
"874 618 OFFCURVE",
"909 623 OFFCURVE",
"966 635 CURVE",
"968 644 LINE",
"798 644 LINE",
"423 59 LINE",
"433 57 LINE",
"305 644 LINE",
"134 644 LINE",
"131 633 LINE",
"257 615 LINE",
"120 29 LINE",
"84 27 OFFCURVE",
"44 21 OFFCURVE",
"-4 10 CURVE",
"-6 0 LINE"
);
}
);
width = 941;
},
{
anchors = (
{
name = bottom;
position = "{400, 0}";
},
{
name = top;
position = "{570, 660}";
}
);
layerId = "FCE02CC8-2979-430D-9DE0-31930C0E296D";
paths = (
{
closed = 1;
nodes = (
"270 0 LINE",
"287 81 LINE",
"198 103 LINE",
"296 575 LINE",
"267 576 LINE",
"334 0 LINE",
"467 0 LINE",
"774 592 LINE",
"751 599 LINE",
"642 107 LINE",
"612 98 OFFCURVE",
"585 86 OFFCURVE",
"559 73 CURVE",
"545 0 LINE",
"919 0 LINE",
"935 81 LINE",
"858 103 LINE",
"945 552 LINE",
"975 562 OFFCURVE",
"1005 574 OFFCURVE",
"1032 587 CURVE",
"1046 660 LINE",
"668 660 LINE",
"451 225 LINE",
"502 216 LINE",
"461 660 LINE",
"88 660 LINE",
"73 580 LINE",
"159 549 LINE",
"54 107 LINE",
"22 98 OFFCURVE",
"-4 86 OFFCURVE",
"-29 73 CURVE",
"-43 0 LINE"
);
}
);
width = 974;
}
);
leftKerningGroup = M;
rightKerningGroup = M;
unicode = 004D;
},
{
color = 4;
glyphname = N;
layers = (
{
anchors = (
{
name = bottom;
position = "{346, 0}";
},
{
name = top;
position = "{475, 644}";
}
);
background = {
paths = (
{
closed = 1;
nodes = (
"555 633 LINE",
"672 615 LINE",
"567 45 LINE",
"282 644 LINE",
"130 644 LINE",
"127 633 LINE",
"249 615 LINE",
"124 29 LINE",
"87 27 OFFCURVE",
"46 21 OFFCURVE",
"3 10 CURVE",
"1 0 LINE",
"282 0 LINE",
"284 12 LINE",
"158 30 LINE",
"270 589 LINE",
"551 0 LINE",
"583 0 LINE",
"707 616 LINE",
"746 618 OFFCURVE",
"784 624 OFFCURVE",
"827 635 CURVE",
"829 644 LINE",
"558 644 LINE"
);
}
);
};
layerId = "0E5388DE-A0E6-4EB4-BC9B-CE5870C9023F";
paths = (
{
closed = 1;
nodes = (
"555 633 LINE",
"672 615 LINE",
"565 32 LINE",
"573 33 LINE",
"282 644 LINE",
"130 644 LINE",
"127 633 LINE",
"249 615 LINE",
"124 29 LINE",
"87 27 OFFCURVE",
"46 21 OFFCURVE",
"3 10 CURVE",
"1 0 LINE",
"282 0 LINE",
"284 12 LINE",
"158 30 LINE",
"273 602 LINE",
"264 601 LINE",
"551 0 LINE",
"583 0 LINE",
"707 616 LINE",
"746 618 OFFCURVE",
"784 624 OFFCURVE",
"827 635 CURVE",
"829 644 LINE",
"558 644 LINE"
);
}
);
width = 782;
},
{
anchors = (
{
name = bottom;
position = "{344, 0}";
},
{
name = top;
position = "{476, 660}";
}
);
background = {
paths = (
{
closed = 1;
nodes = (
"664 0 LINE",
"667 18 LINE",
"420 660 LINE",
"174 660 LINE",
"428 0 LINE"
);
},
{
closed = 1;
nodes = (
"281 0 LINE",
"297 81 LINE",
"200 103 LINE",
"312 660 LINE",
"89 660 LINE",
"74 580 LINE",
"154 549 LINE",
"54 107 LINE",
"24 98 OFFCURVE",
"-1 86 OFFCURVE",
"-25 73 CURVE",
"-39 0 LINE"
);
},
{
closed = 1;
nodes = (
"664 0 LINE",
"775 552 LINE",
"807 562 OFFCURVE",
"830 573 OFFCURVE",
"856 587 CURVE",
"871 660 LINE",
"560 660 LINE",
"545 580 LINE",
"628 557 LINE",
"532 0 LINE"
);
}
);
};
layerId = "FCE02CC8-2979-430D-9DE0-31930C0E296D";
paths = (
{
closed = 1;
nodes = (
"545 580 LINE",
"628 557 LINE",
"561 162 LINE",
"610 167 LINE",
"420 660 LINE",
"89 660 LINE",
"74 580 LINE",
"154 549 LINE",
"54 107 LINE",
"24 98 OFFCURVE",
"-1 86 OFFCURVE",
"-25 73 CURVE",
"-39 0 LINE",
"281 0 LINE",
"297 81 LINE",
"200 103 LINE",
"283 516 LINE",
"231 511 LINE",
"428 0 LINE",
"664 0 LINE",
"775 552 LINE",
"807 562 OFFCURVE",
"830 573 OFFCURVE",
"856 587 CURVE",
"871 660 LINE",
"560 660 LINE"
);
}
);
width = 786;
}
);
leftKerningGroup = H;
rightKerningGroup = H;
unicode = 004E;
},
{
color = 4;
glyphname = Ntilde;
layers = (
{
anchors = (
{
name = top;
position = "{516, 853}";
}
);
components = (
{
name = N;
}
);
layerId = "0E5388DE-A0E6-4EB4-BC9B-CE5870C9023F";
paths = (
{
closed = 1;
nodes = (
"441 807 LINE",
"547 778 LINE SMOOTH",
"573 771 OFFCURVE",
"583 778 OFFCURVE",
"641 846 CURVE",
"634 853 LINE",
"573 801 LINE",
"466 830 LINE SMOOTH",
"443 836 OFFCURVE",
"436 838 OFFCURVE",
"372 763 CURVE",
"379 755 LINE"
);
}
);
width = 782;
},
{
anchors = (
{
name = top;
position = "{532, 940}";
}
);
components = (
{
name = N;
}
);
layerId = "FCE02CC8-2979-430D-9DE0-31930C0E296D";
paths = (
{
closed = 1;
nodes = (
"421 783 LINE",
"542 750 LINE SMOOTH",
"587 738 OFFCURVE",
"616 735 OFFCURVE",
"710 902 CURVE",
"669 940 LINE",
"600 888 LINE",
"480 921 LINE SMOOTH",
"429 934 OFFCURVE",
"404 928 OFFCURVE",
"313 769 CURVE",
"352 731 LINE"
);
}
);
width = 786;
}
);
leftKerningGroup = H;
rightKerningGroup = H;
unicode = 00D1;
},
{
color = 4;
glyphname = O;
layers = (
{
anchors = (
{
name = bottom;
position = "{327, 0}";
},
{
name = center;
position = "{378, 322}";
},
{
name = ogonek;
position = "{498, 30}";
},
{
name = top;
position = "{427, 644}";
},
{
name = topleft;
position = "{104, 644}";
},
{
name = topright;
position = "{680, 644}";
}
);
layerId = "0E5388DE-A0E6-4EB4-BC9B-CE5870C9023F";
paths = (
{
closed = 1;
nodes = (
"510 -7 OFFCURVE",
"666 176 OFFCURVE",
"666 392 CURVE SMOOTH",
"666 547 OFFCURVE",
"572 651 OFFCURVE",
"433 651 CURVE SMOOTH",
"247 651 OFFCURVE",
"89 468 OFFCURVE",
"89 253 CURVE SMOOTH",
"89 99 OFFCURVE",
"185 -7 OFFCURVE",
"324 -7 CURVE SMOOTH"
);
},
{
closed = 1;
nodes = (
"205 23 OFFCURVE",
"124 116 OFFCURVE",
"124 255 CURVE SMOOTH",
"124 363 OFFCURVE",
"172 479 OFFCURVE",
"255 569 CURVE",
"241 557 LINE",
"297 596 OFFCURVE",
"364 618 OFFCURVE",
"427 618 CURVE SMOOTH",
"551 618 OFFCURVE",
"631 530 OFFCURVE",
"631 392 CURVE SMOOTH",
"631 340 OFFCURVE",
"618 277 OFFCURVE",
"597 226 CURVE SMOOTH",
"544 103 OFFCURVE",
"438 23 OFFCURVE",
"327 23 CURVE SMOOTH"
);
}
);
width = 722;
},
{
anchors = (
{
name = bottom;
position = "{314, 0}";
},
{
name = center;
position = "{366, 330}";
},
{
name = ogonek;
position = "{542, 12}";
},
{
name = top;
position = "{418, 660}";
},
{
name = topleft;
position = "{74, 660}";
},
{
name = topright;
position = "{669, 660}";
}
);
layerId = "FCE02CC8-2979-430D-9DE0-31930C0E296D";
paths = (
{
closed = 1;
nodes = (
"553 -14 OFFCURVE",
"707 147 OFFCURVE",
"707 398 CURVE SMOOTH",
"707 572 OFFCURVE",
"598 674 OFFCURVE",
"417 674 CURVE SMOOTH",
"186 674 OFFCURVE",
"25 505 OFFCURVE",
"25 263 CURVE SMOOTH",
"25 89 OFFCURVE",
"133 -14 OFFCURVE",
"315 -14 CURVE SMOOTH"
);
},
{
closed = 1;
nodes = (
"271 117 OFFCURVE",
"248 150 OFFCURVE",
"248 222 CURVE SMOOTH",
"248 337 OFFCURVE",
"291 467 OFFCURVE",
"356 557 CURVE",
"278 506 LINE",
"328 527 OFFCURVE",
"356 535 OFFCURVE",
"390 535 CURVE SMOOTH",
"456 535 OFFCURVE",
"483 504 OFFCURVE",
"483 432 CURVE SMOOTH",
"483 386 OFFCURVE",
"463 279 OFFCURVE",
"445 226 CURVE SMOOTH",
"417 152 OFFCURVE",
"379 117 OFFCURVE",
"324 117 CURVE SMOOTH"
);
}
);
width = 700;
}
);
leftKerningGroup = O;
rightKerningGroup = O;
unicode = 004F;
},
{
color = 4;
glyphname = Oacute;
layers = (
{
anchors = (
{
name = top;
position = "{472, 869}";
}
);
components = (
{
name = O;
}
);
layerId = "0E5388DE-A0E6-4EB4-BC9B-CE5870C9023F";
paths = (
{
closed = 1;
nodes = (
"453 768 OFFCURVE",
"508 806 OFFCURVE",
"563 847 CURVE",
"547 869 LINE",
"541 869 LINE",
"385 740 LINE",
"391 731 LINE"
);
}
);
width = 722;
},
{
anchors = (
{
name = top;
position = "{476, 954}";
}
);
components = (
{
name = O;
}
);
layerId = "FCE02CC8-2979-430D-9DE0-31930C0E296D";
paths = (
{
closed = 1;
nodes = (
"438 732 OFFCURVE",
"526 764 OFFCURVE",
"614 805 CURVE",
"543 946 LINE",
"517 946 LINE",
"307 775 LINE",
"347 705 LINE"
);
}
);
width = 700;
}
);
leftKerningGroup = O;
rightKerningGroup = O;
unicode = 00D3;
},
{
color = 4;
glyphname = Odieresis;
layers = (
{
anchors = (
{
name = top;
position = "{465, 834}";
}
);
components = (
{
name = O;
}
);
layerId = "0E5388DE-A0E6-4EB4-BC9B-CE5870C9023F";
paths = (
{
closed = 1;
nodes = (
"389 831 OFFCURVE",
"376 823 OFFCURVE",
"364 811 CURVE",
"367 799 OFFCURVE",
"375 786 OFFCURVE",
"386 773 CURVE",
"400 775 OFFCURVE",
"415 783 OFFCURVE",
"425 794 CURVE",
"423 808 OFFCURVE",
"416 822 OFFCURVE",
"404 834 CURVE"
);
},
{
closed = 1;
nodes = (
"518 831 OFFCURVE",
"504 823 OFFCURVE",
"493 811 CURVE",
"497 796 OFFCURVE",
"505 783 OFFCURVE",
"516 773 CURVE",
"529 775 OFFCURVE",
"542 782 OFFCURVE",
"554 794 CURVE",
"552 808 OFFCURVE",
"545 821 OFFCURVE",
"534 834 CURVE"
);
}
);
width = 722;
},
{
anchors = (
{
name = top;
position = "{474, 940}";
}
);
components = (
{
name = O;
}
);
layerId = "FCE02CC8-2979-430D-9DE0-31930C0E296D";
paths = (
{
closed = 1;
nodes = (
"316 931 OFFCURVE",
"266 901 OFFCURVE",
"231 864 CURVE",
"240 809 OFFCURVE",
"271 757 OFFCURVE",
"310 725 CURVE",
"361 732 OFFCURVE",
"414 764 OFFCURVE",
"447 804 CURVE",
"439 855 OFFCURVE",
"409 904 OFFCURVE",
"369 940 CURVE"
);
},
{
closed = 1;
nodes = (
"543 931 OFFCURVE",
"493 901 OFFCURVE",
"457 864 CURVE",
"466 809 OFFCURVE",
"497 757 OFFCURVE",
"536 725 CURVE",
"588 732 OFFCURVE",
"640 764 OFFCURVE",
"673 804 CURVE",
"665 855 OFFCURVE",
"634 904 OFFCURVE",
"594 940 CURVE"
);
}
);
width = 700;
}
);
leftKerningGroup = O;
rightKerningGroup = O;
unicode = 00D6;
},
{
color = 4;
glyphname = Ograve;
layers = (
{
anchors = (
{
name = top;
position = "{472, 869}";
}
);
components = (
{
name = O;
}
);
layerId = "0E5388DE-A0E6-4EB4-BC9B-CE5870C9023F";
paths = (
{
closed = 1;
nodes = (
"529 740 LINE",
"373 869 LINE",
"367 869 LINE",
"351 847 LINE",
"406 806 OFFCURVE",
"461 768 OFFCURVE",
"523 731 CURVE"
);
}
);
width = 722;
},
{
anchors = (
{
name = top;
position = "{476, 954}";
}
);
components = (
{
name = O;
}
);
layerId = "FCE02CC8-2979-430D-9DE0-31930C0E296D";
paths = (
{
closed = 1;
nodes = (
"592 775 LINE",
"382 946 LINE",
"356 946 LINE",
"285 805 LINE",
"372 764 OFFCURVE",
"461 732 OFFCURVE",
"552 705 CURVE"
);
}
);
width = 700;
}
);
leftKerningGroup = O;
rightKerningGroup = O;
unicode = 00D2;
},
{
color = 4;
glyphname = Oslash;
layers = (
{
anchors = (
{
name = bottom;
position = "{345, 0}";
},
{
name = center;
position = "{378, 322}";
},
{
name = ogonek;
position = "{498, 30}";
},
{
name = top;
position = "{345, 644}";
},
{
name = topleft;
position = "{104, 644}";
},
{
name = topright;
position = "{680, 644}";
}
);
layerId = "0E5388DE-A0E6-4EB4-BC9B-CE5870C9023F";
paths = (
{
closed = 1;
nodes = (
"192 55 LINE",
"120 -67 LINE",
"145 -81 LINE",
"216 40 LINE"
);
},
{
closed = 1;
nodes = (
"510 -7 OFFCURVE",
"666 176 OFFCURVE",
"666 392 CURVE SMOOTH",
"666 547 OFFCURVE",
"572 651 OFFCURVE",
"433 651 CURVE SMOOTH",
"247 651 OFFCURVE",
"89 468 OFFCURVE",
"89 253 CURVE SMOOTH",
"89 99 OFFCURVE",
"185 -7 OFFCURVE",
"324 -7 CURVE SMOOTH"
);
},
{
closed = 1;
nodes = (
"205 23 OFFCURVE",
"124 116 OFFCURVE",
"124 255 CURVE SMOOTH",
"124 363 OFFCURVE",
"172 479 OFFCURVE",
"255 569 CURVE",
"241 557 LINE",
"297 596 OFFCURVE",
"364 618 OFFCURVE",
"427 618 CURVE SMOOTH",
"551 618 OFFCURVE",
"631 530 OFFCURVE",
"631 392 CURVE SMOOTH",
"631 340 OFFCURVE",
"618 277 OFFCURVE",
"597 226 CURVE SMOOTH",
"544 103 OFFCURVE",
"438 23 OFFCURVE",
"327 23 CURVE SMOOTH"
);
},
{
closed = 1;
nodes = (
"548 603 LINE",
"613 713 LINE",
"588 727 LINE",
"524 619 LINE"
);
},
{
closed = 1;
nodes = (
"216 40 LINE",
"548 603 LINE",
"524 619 LINE",
"192 55 LINE"
);
}
);
width = 722;
},
{
anchors = (
{
name = bottom;
position = "{363, 0}";
},
{
name = center;
position = "{366, 330}";
},
{
name = ogonek;
position = "{542, 12}";
},
{
name = top;
position = "{363, 660}";
},
{
name = topleft;
position = "{74, 660}";
},
{
name = topright;
position = "{669, 660}";
}
);
layerId = "FCE02CC8-2979-430D-9DE0-31930C0E296D";
paths = (
{
closed = 1;
nodes = (
"190 111 LINE",
"98 -59 LINE",
"187 -105 LINE",
"276 61 LINE"
);
},
{
closed = 1;
nodes = (
"553 -14 OFFCURVE",
"707 147 OFFCURVE",
"707 398 CURVE SMOOTH",
"707 572 OFFCURVE",
"598 674 OFFCURVE",
"417 674 CURVE SMOOTH",
"186 674 OFFCURVE",
"25 505 OFFCURVE",
"25 263 CURVE SMOOTH",
"25 89 OFFCURVE",
"133 -14 OFFCURVE",
"315 -14 CURVE SMOOTH"
);
},
{
closed = 1;
nodes = (
"271 117 OFFCURVE",
"248 150 OFFCURVE",
"248 222 CURVE SMOOTH",
"248 337 OFFCURVE",
"291 467 OFFCURVE",
"356 557 CURVE",
"278 506 LINE",
"328 527 OFFCURVE",
"356 535 OFFCURVE",
"390 535 CURVE SMOOTH",
"456 535 OFFCURVE",
"483 504 OFFCURVE",
"483 432 CURVE SMOOTH",
"483 386 OFFCURVE",
"463 279 OFFCURVE",
"445 226 CURVE SMOOTH",
"417 152 OFFCURVE",
"379 117 OFFCURVE",
"324 117 CURVE SMOOTH"
);
},
{
closed = 1;
nodes = (
"543 561 LINE",
"620 704 LINE",
"530 748 LINE",
"454 605 LINE"
);
},
{
closed = 1;
nodes = (
"276 61 LINE",
"543 561 LINE",
"454 605 LINE",
"190 111 LINE"
);
}
);
width = 700;
}
);
leftKerningGroup = O;
rightKerningGroup = O;
unicode = 00D8;
},
{
color = 4;
glyphname = Otilde;
layers = (
{
anchors = (
{
name = top;
position = "{468, 853}";
}
);
components = (
{
name = O;
}
);
layerId = "0E5388DE-A0E6-4EB4-BC9B-CE5870C9023F";
paths = (
{
closed = 1;
nodes = (
"393 807 LINE",
"499 778 LINE SMOOTH",
"525 771 OFFCURVE",
"535 778 OFFCURVE",
"593 846 CURVE",
"586 853 LINE",
"525 801 LINE",
"418 830 LINE SMOOTH",
"395 836 OFFCURVE",
"388 838 OFFCURVE",
"324 763 CURVE",
"331 755 LINE"
);
}
);
width = 722;
},
{
anchors = (
{
name = top;
position = "{474, 940}";
}
);
components = (
{
name = O;
}
);
layerId = "FCE02CC8-2979-430D-9DE0-31930C0E296D";
paths = (
{
closed = 1;
nodes = (
"363 783 LINE",
"484 750 LINE SMOOTH",
"529 738 OFFCURVE",
"558 735 OFFCURVE",
"652 902 CURVE",
"611 940 LINE",
"542 888 LINE",
"422 921 LINE SMOOTH",
"371 934 OFFCURVE",
"346 928 OFFCURVE",
"255 769 CURVE",
"294 731 LINE"
);
}
);
width = 700;
}
);
leftKerningGroup = O;
rightKerningGroup = O;
unicode = 00D5;
},
{
color = 4;
glyphname = OE;
layers = (
{
anchors = (
{
name = bottom;
position = "{458, 0}";
},
{
name = top;
position = "{586, 644}";
}
);
background = {
anchors = (
{
name = bottom;
position = "{458, 0}";
},
{
name = top;
position = "{586, 644}";
}
);
paths = (
{
closed = 1;
nodes = (
"832 0 LINE",
"838 30 LINE",
"370 30 LINE",
"301 0 LINE"
);
},
{
closed = 1;
nodes = (
"846 0 LINE",
"887 205 LINE",
"879 205 LINE",
"803 0 LINE"
);
},
{
closed = 1;
nodes = (
"940 614 LINE",
"946 644 LINE",
"439 644 LINE",
"473 614 LINE"
);
},
{
closed = 1;
nodes = (
"928 460 LINE",
"964 644 LINE",
"921 644 LINE",
"920 460 LINE"
);
},
{
closed = 1;
nodes = (
"485 0 OFFCURVE",
"632 182 OFFCURVE",
"632 413 CURVE SMOOTH",
"632 553 OFFCURVE",
"554 644 OFFCURVE",
"435 644 CURVE SMOOTH",
"248 644 OFFCURVE",
"88 464 OFFCURVE",
"88 253 CURVE SMOOTH",
"88 103 OFFCURVE",
"173 0 OFFCURVE",
"298 0 CURVE SMOOTH"
);
},
{
closed = 1;
nodes = (
"196 29 OFFCURVE",
"125 122 OFFCURVE",
"125 259 CURVE SMOOTH",
"125 456 OFFCURVE",
"258 612 OFFCURVE",
"425 612 CURVE SMOOTH",
"480 612 OFFCURVE",
"529 593 OFFCURVE",
"564 558 CURVE",
"666 325 OFFCURVE",
"519 29 OFFCURVE",
"301 29 CURVE SMOOTH"
);
}
);
};
layerId = "0E5388DE-A0E6-4EB4-BC9B-CE5870C9023F";
paths = (
{
closed = 1;
nodes = (
"846 0 LINE",
"887 205 LINE",
"879 205 LINE",
"814 30 LINE",
"412 30 LINE",
"418 27 LINE",
"544 85 OFFCURVE",
"632 235 OFFCURVE",
"632 413 CURVE SMOOTH",
"632 509 OFFCURVE",
"595 582 OFFCURVE",
"534 618 CURVE",
"528 614 LINE",
"921 614 LINE",
"920 460 LINE",
"928 460 LINE",
"964 644 LINE",
"435 644 LINE SMOOTH",
"248 644 OFFCURVE",
"88 464 OFFCURVE",
"88 253 CURVE SMOOTH",
"88 103 OFFCURVE",
"173 0 OFFCURVE",
"298 0 CURVE SMOOTH"
);
},
{
closed = 1;
nodes = (
"196 29 OFFCURVE",
"125 122 OFFCURVE",
"125 259 CURVE SMOOTH",
"125 456 OFFCURVE",
"258 612 OFFCURVE",
"425 612 CURVE SMOOTH",
"480 612 OFFCURVE",
"529 593 OFFCURVE",
"564 558 CURVE",
"666 325 OFFCURVE",
"519 29 OFFCURVE",
"301 29 CURVE SMOOTH"
);
},
{
closed = 1;
nodes = (
"799 317 LINE",
"805 347 LINE",
"611 347 LINE",
"604 317 LINE"
);
},
{
closed = 1;
nodes = (
"788 228 LINE",
"830 437 LINE",
"822 437 LINE",
"769 332 LINE",
"780 228 LINE"
);
}
);
width = 1001;
},
{
anchors = (
{
name = bottom;
position = "{488, 0}";
},
{
name = top;
position = "{620, 660}";
}
);
background = {
paths = (
{
closed = 1;
nodes = (
"934 0 LINE",
"961 133 LINE",
"461 133 LINE",
"283 0 LINE"
);
},
{
closed = 1;
nodes = (
"951 0 LINE",
"1000 246 LINE",
"912 246 LINE",
"758 0 LINE"
);
},
{
closed = 1;
nodes = (
"848 269 LINE",
"875 403 LINE",
"553 403 LINE",
"526 269 LINE"
);
},
{
closed = 1;
nodes = (
"841 199 LINE",
"896 469 LINE",
"815 469 LINE",
"723 334 LINE",
"760 199 LINE"
);
},
{
closed = 1;
nodes = (
"1024 527 LINE",
"1050 660 LINE",
"429 660 LINE",
"551 527 LINE"
);
},
{
closed = 1;
nodes = (
"1029 432 LINE",
"1074 660 LINE",
"880 660 LINE",
"940 432 LINE"
);
},
{
closed = 1;
nodes = (
"515 0 OFFCURVE",
"682 182 OFFCURVE",
"682 435 CURVE SMOOTH",
"682 582 OFFCURVE",
"596 660 OFFCURVE",
"431 660 CURVE SMOOTH",
"186 660 OFFCURVE",
"21 500 OFFCURVE",
"21 261 CURVE SMOOTH",
"21 103 OFFCURVE",
"124 0 OFFCURVE",
"282 0 CURVE SMOOTH"
);
},
{
closed = 1;
nodes = (
"270 133 OFFCURVE",
"249 165 OFFCURVE",
"249 237 CURVE SMOOTH",
"249 413 OFFCURVE",
"312 527 OFFCURVE",
"409 527 CURVE SMOOTH",
"430 527 OFFCURVE",
"450 523 OFFCURVE",
"470 513 CURVE",
"435 231 OFFCURVE",
"396 133 OFFCURVE",
"317 133 CURVE SMOOTH"
);
}
);
};
layerId = "FCE02CC8-2979-430D-9DE0-31930C0E296D";
paths = (
{
closed = 1;
nodes = (
"951 0 LINE",
"1000 246 LINE",
"912 246 LINE",
"841 133 LINE",
"484 133 LINE",
"538 92 LINE",
"627 171 OFFCURVE",
"682 292 OFFCURVE",
"682 435 CURVE SMOOTH",
"682 493 OFFCURVE",
"668 540 OFFCURVE",
"642 576 CURVE",
"573 527 LINE",
"915 527 LINE",
"940 432 LINE",
"1029 432 LINE",
"1074 660 LINE",
"429 660 LINE SMOOTH",
"185 659 OFFCURVE",
"21 499 OFFCURVE",
"21 261 CURVE SMOOTH",
"21 103 OFFCURVE",
"124 0 OFFCURVE",
"282 0 CURVE SMOOTH"
);
},
{
closed = 1;
nodes = (
"270 133 OFFCURVE",
"249 165 OFFCURVE",
"249 237 CURVE SMOOTH",
"249 413 OFFCURVE",
"312 527 OFFCURVE",
"409 527 CURVE SMOOTH",
"430 527 OFFCURVE",
"450 523 OFFCURVE",
"470 513 CURVE",
"435 231 OFFCURVE",
"396 133 OFFCURVE",
"317 133 CURVE SMOOTH"
);
},
{
closed = 1;
nodes = (
"848 269 LINE",
"875 403 LINE",
"563 403 LINE",
"536 269 LINE"
);
},
{
closed = 1;
nodes = (
"841 199 LINE",
"896 469 LINE",
"815 469 LINE",
"723 334 LINE",
"760 199 LINE"
);
}
);
width = 1044;
}
);
leftKerningGroup = O;
rightKerningGroup = E;
unicode = 0152;
},
{
color = 4;
glyphname = P;
layers = (
{
anchors = (
{
name = bottom;
position = "{139, 0}";
},
{
name = top;
position = "{389, 644}";
}
);
layerId = "0E5388DE-A0E6-4EB4-BC9B-CE5870C9023F";
paths = (
{
closed = 1;
nodes = (
"301 0 LINE",
"303 12 LINE",
"162 30 LINE",
"279 614 LINE",
"434 614 LINE SMOOTH",
"522 614 OFFCURVE",
"571 574 OFFCURVE",
"571 501 CURVE SMOOTH",
"571 411 OFFCURVE",
"528 348 OFFCURVE",
"430 298 CURVE",
"199 298 LINE",
"193 268 LINE",
"353 268 LINE SMOOTH",
"496 268 OFFCURVE",
"605 370 OFFCURVE",
"605 502 CURVE SMOOTH",
"605 590 OFFCURVE",
"543 644 OFFCURVE",
"443 644 CURVE SMOOTH",
"130 644 LINE",
"127 633 LINE",
"249 615 LINE",
"124 29 LINE",
"66 27 OFFCURVE",
"28 21 OFFCURVE",
"3 10 CURVE",
"1 0 LINE"
);
}
);
width = 614;
},
{
anchors = (
{
name = bottom;
position = "{290, 0}";
},
{
name = top;
position = "{421, 660}";
}
);
background = {
paths = (
{
closed = 1;
nodes = (
"375 0 LINE",
"391 81 LINE",
"279 103 LINE",
"390 660 LINE",
"88 660 LINE",
"73 580 LINE",
"156 549 LINE",
"56 107 LINE",
"23 97 OFFCURVE",
"-3 86 OFFCURVE",
"-29 73 CURVE",
"-43 0 LINE"
);
},
{
closed = 1;
nodes = (
"387 220 LINE SMOOTH",
"576 220 OFFCURVE",
"717 330 OFFCURVE",
"717 478 CURVE SMOOTH",
"717 588 OFFCURVE",
"636 660 OFFCURVE",
"511 660 CURVE SMOOTH",
"277 660 LINE",
"252 533 LINE",
"423 533 LINE SMOOTH",
"466 533 OFFCURVE",
"487 513 OFFCURVE",
"487 474 CURVE SMOOTH",
"487 433 OFFCURVE",
"466 379 OFFCURVE",
"438 346 CURVE",
"215 346 LINE",
"190 220 LINE"
);
}
);
};
layerId = "FCE02CC8-2979-430D-9DE0-31930C0E296D";
paths = (
{
closed = 1;
nodes = (
"375 0 LINE",
"391 81 LINE",
"279 103 LINE",
"365 533 LINE",
"423 533 LINE SMOOTH",
"466 533 OFFCURVE",
"487 513 OFFCURVE",
"487 474 CURVE SMOOTH",
"487 433 OFFCURVE",
"466 379 OFFCURVE",
"438 346 CURVE",
"215 346 LINE",
"190 220 LINE",
"387 220 LINE SMOOTH",
"576 220 OFFCURVE",
"717 330 OFFCURVE",
"717 478 CURVE SMOOTH",
"717 588 OFFCURVE",
"636 660 OFFCURVE",
"511 660 CURVE SMOOTH",
"88 660 LINE",
"73 580 LINE",
"156 549 LINE",
"56 107 LINE",
"23 97 OFFCURVE",
"-3 86 OFFCURVE",
"-29 73 CURVE",
"-43 0 LINE"
);
}
);
width = 666;
}
);
leftKerningGroup = H;
rightKerningGroup = P;
unicode = 0050;
},
{
color = 4;
glyphname = Thorn;
layers = (
{
anchors = (
{
name = bottom;
position = "{139, 0}";
},
{
name = top;
position = "{268, 644}";
}
);
layerId = "0E5388DE-A0E6-4EB4-BC9B-CE5870C9023F";
paths = (
{
closed = 1;
nodes = (
"273 0 LINE",
"275 12 LINE",
"162 30 LINE",
"279 616 LINE",
"310 618 OFFCURVE",
"343 623 OFFCURVE",
"400 635 CURVE",
"402 644 LINE",
"130 644 LINE",
"127 633 LINE",
"249 615 LINE",
"124 29 LINE",
"89 27 OFFCURVE",
"51 21 OFFCURVE",
"3 10 CURVE",
"1 0 LINE"
);
},
{
closed = 1;
nodes = (
"319 148 LINE SMOOTH",
"465 148 OFFCURVE",
"581 251 OFFCURVE",
"581 381 CURVE SMOOTH",
"581 473 OFFCURVE",
"523 524 OFFCURVE",
"419 524 CURVE SMOOTH",
"244 524 LINE",
"238 494 LINE",
"414 494 LINE SMOOTH",
"503 494 OFFCURVE",
"547 456 OFFCURVE",
"547 379 CURVE SMOOTH",
"547 296 OFFCURVE",
"497 227 OFFCURVE",
"404 178 CURVE",
"175 178 LINE",
"169 148 LINE"
);
}
);
width = 613;
},
{
anchors = (
{
name = bottom;
position = "{138, 0}";
},
{
name = top;
position = "{269, 660}";
}
);
background = {
paths = (
{
closed = 1;
nodes = (
"336 0 LINE",
"351 78 LINE",
"279 100 LINE",
"370 556 LINE",
"405 566 OFFCURVE",
"431 580 OFFCURVE",
"454 591 CURVE",
"467 660 LINE",
"88 660 LINE",
"73 580 LINE",
"156 549 LINE",
"56 107 LINE",
"28 98 OFFCURVE",
"0 86 OFFCURVE",
"-29 73 CURVE",
"-43 0 LINE"
);
},
{
closed = 1;
nodes = (
"372 128 LINE SMOOTH",
"557 128 OFFCURVE",
"697 230 OFFCURVE",
"697 366 CURVE SMOOTH",
"697 468 OFFCURVE",
"617 532 OFFCURVE",
"489 532 CURVE SMOOTH",
"255 532 LINE",
"229 403 LINE",
"410 403 LINE SMOOTH",
"456 403 OFFCURVE",
"477 386 OFFCURVE",
"477 352 CURVE SMOOTH",
"477 320 OFFCURVE",
"459 282 OFFCURVE",
"434 257 CURVE",
"200 257 LINE",
"175 128 LINE"
);
}
);
};
layerId = "FCE02CC8-2979-430D-9DE0-31930C0E296D";
paths = (
{
closed = 1;
nodes = (
"336 0 LINE",
"351 78 LINE",
"279 100 LINE",
"370 556 LINE",
"405 566 OFFCURVE",
"431 580 OFFCURVE",
"454 591 CURVE",
"467 660 LINE",
"88 660 LINE",
"73 580 LINE",
"156 549 LINE",
"56 107 LINE",
"28 98 OFFCURVE",
"0 86 OFFCURVE",
"-29 73 CURVE",
"-43 0 LINE"
);
},
{
closed = 1;
nodes = (
"379 133 LINE SMOOTH",
"564 133 OFFCURVE",
"697 230 OFFCURVE",
"697 366 CURVE SMOOTH",
"697 468 OFFCURVE",
"617 526 OFFCURVE",
"489 526 CURVE SMOOTH",
"255 526 LINE",
"229 403 LINE",
"410 403 LINE SMOOTH",
"456 403 OFFCURVE",
"477 386 OFFCURVE",
"477 352 CURVE SMOOTH",
"477 320 OFFCURVE",
"459 282 OFFCURVE",
"434 257 CURVE",
"200 257 LINE",
"175 133 LINE"
);
}
);
width = 663;
}
);
leftKerningGroup = H;
rightKerningGroup = P;
unicode = 00DE;
},
{
color = 4;
glyphname = Q;
layers = (
{
anchors = (
{
name = bottom;
position = "{331, 0}";
},
{
name = top;
position = "{433, 644}";
}
);
layerId = "0E5388DE-A0E6-4EB4-BC9B-CE5870C9023F";
paths = (
{
closed = 1;
nodes = (
"642 -104 OFFCURVE",
"654 -95 OFFCURVE",
"668 -83 CURVE",
"512 -28 LINE SMOOTH",
"452 -7 OFFCURVE",
"410 4 OFFCURVE",
"351 17 CURVE",
"341 1 LINE",
"632 -109 LINE"
);
},
{
closed = 1;
nodes = (
"510 -7 OFFCURVE",
"666 176 OFFCURVE",
"666 392 CURVE SMOOTH",
"666 547 OFFCURVE",
"572 651 OFFCURVE",
"433 651 CURVE SMOOTH",
"247 651 OFFCURVE",
"89 468 OFFCURVE",
"89 253 CURVE SMOOTH",
"89 99 OFFCURVE",
"185 -7 OFFCURVE",
"324 -7 CURVE SMOOTH"
);
},
{
closed = 1;
nodes = (
"205 23 OFFCURVE",
"124 116 OFFCURVE",
"124 255 CURVE SMOOTH",
"124 363 OFFCURVE",
"172 479 OFFCURVE",
"255 569 CURVE",
"241 557 LINE",
"297 596 OFFCURVE",
"364 618 OFFCURVE",
"427 618 CURVE SMOOTH",
"551 618 OFFCURVE",
"631 530 OFFCURVE",
"631 392 CURVE SMOOTH",
"631 340 OFFCURVE",
"618 277 OFFCURVE",
"597 226 CURVE SMOOTH",
"544 103 OFFCURVE",
"438 23 OFFCURVE",
"327 23 CURVE SMOOTH"
);
}
);
width = 726;
},
{
anchors = (
{
name = bottom;
position = "{321, 0}";
},
{
name = top;
position = "{422, 660}";
}
);
layerId = "FCE02CC8-2979-430D-9DE0-31930C0E296D";
paths = (
{
closed = 1;
nodes = (
"648 -130 OFFCURVE",
"696 -88 OFFCURVE",
"750 -30 CURVE",
"594 17 LINE SMOOTH",
"503 44 OFFCURVE",
"418 63 OFFCURVE",
"334 73 CURVE",
"219 33 LINE",
"581 -179 LINE"
);
},
{
closed = 1;
nodes = (
"553 -14 OFFCURVE",
"707 147 OFFCURVE",
"707 398 CURVE SMOOTH",
"707 572 OFFCURVE",
"598 674 OFFCURVE",
"417 674 CURVE SMOOTH",
"186 674 OFFCURVE",
"25 505 OFFCURVE",
"25 263 CURVE SMOOTH",
"25 89 OFFCURVE",
"133 -14 OFFCURVE",
"315 -14 CURVE SMOOTH"
);
},
{
closed = 1;
nodes = (
"271 117 OFFCURVE",
"248 150 OFFCURVE",
"248 222 CURVE SMOOTH",
"248 337 OFFCURVE",
"291 467 OFFCURVE",
"356 557 CURVE",
"278 506 LINE",
"328 527 OFFCURVE",
"356 535 OFFCURVE",
"390 535 CURVE SMOOTH",
"456 535 OFFCURVE",
"483 504 OFFCURVE",
"483 432 CURVE SMOOTH",
"483 386 OFFCURVE",
"463 279 OFFCURVE",
"445 226 CURVE SMOOTH",
"417 152 OFFCURVE",
"379 117 OFFCURVE",
"324 117 CURVE SMOOTH"
);
}
);
width = 710;
}
);
leftKerningGroup = O;
rightKerningGroup = O;
unicode = 0051;
},
{
color = 4;
glyphname = R;
layers = (
{
anchors = (
{
name = bottom;
position = "{299, 0}";
},
{
name = top;
position = "{428, 644}";
}
);
background = {
paths = (
{
closed = 1;
nodes = (
"273 0 LINE",
"275 12 LINE",
"162 30 LINE",
"285 644 LINE",
"130 644 LINE",
"127 633 LINE",
"249 615 LINE",
"124 29 LINE",
"64 27 OFFCURVE",
"26 21 OFFCURVE",
"3 10 CURVE",
"1 0 LINE"
);
},
{
closed = 1;
nodes = (
"513 274 OFFCURVE",
"483 311 OFFCURVE",
"408 318 CURVE",
"417 311 LINE",
"534 337 OFFCURVE",
"614 415 OFFCURVE",
"614 503 CURVE SMOOTH",
"614 587 OFFCURVE",
"551 644 OFFCURVE",
"458 644 CURVE SMOOTH",
"275 644 LINE",
"269 614 LINE",
"449 614 LINE SMOOTH",
"530 614 OFFCURVE",
"579 571 OFFCURVE",
"579 501 CURVE SMOOTH",
"579 426 OFFCURVE",
"525 370 OFFCURVE",
"414 328 CURVE",
"212 328 LINE",
"206 298 LINE",
"368 298 LINE SMOOTH",
"449 298 OFFCURVE",
"479 267 OFFCURVE",
"478 182 CURVE SMOOTH",
"476 0 LINE",
"609 0 LINE",
"611 12 LINE",
"494 36 LINE",
"514 0 LINE",
"513 185 LINE SMOOTH"
);
}
);
};
layerId = "0E5388DE-A0E6-4EB4-BC9B-CE5870C9023F";
paths = (
{
closed = 1;
nodes = (
"273 0 LINE",
"275 12 LINE",
"162 30 LINE",
"279 614 LINE",
"449 614 LINE SMOOTH",
"530 614 OFFCURVE",
"579 571 OFFCURVE",
"579 501 CURVE SMOOTH",
"579 426 OFFCURVE",
"525 370 OFFCURVE",
"414 328 CURVE",
"212 328 LINE",
"206 298 LINE",
"368 298 LINE SMOOTH",
"449 298 OFFCURVE",
"479 267 OFFCURVE",
"478 182 CURVE SMOOTH",
"476 0 LINE",
"609 0 LINE",
"611 12 LINE",
"514 32 LINE",
"513 185 LINE SMOOTH",
"513 268 OFFCURVE",
"486 306 OFFCURVE",
"421 317 CURVE",
"420 312 LINE",
"536 339 OFFCURVE",
"614 416 OFFCURVE",
"614 503 CURVE SMOOTH",
"614 587 OFFCURVE",
"551 644 OFFCURVE",
"458 644 CURVE SMOOTH",
"130 644 LINE",
"127 633 LINE",
"249 615 LINE",
"124 29 LINE",
"64 27 OFFCURVE",
"26 21 OFFCURVE",
"3 10 CURVE",
"1 0 LINE"
);
}
);
width = 689;
},
{
anchors = (
{
name = bottom;
position = "{323, 0}";
},
{
name = top;
position = "{455, 660}";
}
);
background = {
paths = (
{
closed = 1;
nodes = (
"339 0 LINE",
"355 81 LINE",
"280 103 LINE",
"391 660 LINE",
"88 660 LINE",
"73 580 LINE",
"157 549 LINE",
"57 107 LINE",
"16 94 OFFCURVE",
"-5 84 OFFCURVE",
"-29 73 CURVE",
"-43 0 LINE"
);
},
{
closed = 1;
nodes = (
"645 273 OFFCURVE",
"595 314 OFFCURVE",
"449 319 CURVE",
"483 297 LINE",
"624 312 OFFCURVE",
"734 403 OFFCURVE",
"734 507 CURVE SMOOTH",
"734 601 OFFCURVE",
"646 660 OFFCURVE",
"506 660 CURVE SMOOTH",
"282 660 LINE",
"257 533 LINE",
"433 533 LINE SMOOTH",
"476 533 OFFCURVE",
"498 510 OFFCURVE",
"498 467 CURVE SMOOTH",
"498 432 OFFCURVE",
"478 396 OFFCURVE",
"443 370 CURVE",
"224 370 LINE",
"199 244 LINE",
"366 244 LINE SMOOTH",
"412 244 OFFCURVE",
"423 229 OFFCURVE",
"420 175 CURVE SMOOTH",
"409 0 LINE",
"699 0 LINE",
"715 81 LINE",
"565 128 LINE",
"638 0 LINE",
"643 161 LINE SMOOTH"
);
}
);
};
layerId = "FCE02CC8-2979-430D-9DE0-31930C0E296D";
paths = (
{
closed = 1;
nodes = (
"339 0 LINE",
"355 81 LINE",
"280 103 LINE",
"366 533 LINE",
"433 533 LINE SMOOTH",
"476 533 OFFCURVE",
"498 510 OFFCURVE",
"498 467 CURVE SMOOTH",
"498 432 OFFCURVE",
"478 396 OFFCURVE",
"443 370 CURVE",
"224 370 LINE",
"199 244 LINE",
"366 244 LINE SMOOTH",
"412 244 OFFCURVE",
"423 229 OFFCURVE",
"420 175 CURVE SMOOTH",
"409 0 LINE",
"699 0 LINE",
"715 81 LINE",
"641 104 LINE",
"643 161 LINE SMOOTH",
"645 272 OFFCURVE",
"596 312 OFFCURVE",
"455 319 CURVE",
"466 296 LINE",
"616 305 OFFCURVE",
"734 398 OFFCURVE",
"734 507 CURVE SMOOTH",
"734 601 OFFCURVE",
"646 660 OFFCURVE",
"506 660 CURVE SMOOTH",
"88 660 LINE",
"73 580 LINE",
"157 549 LINE",
"57 107 LINE",
"16 94 OFFCURVE",
"-5 84 OFFCURVE",
"-29 73 CURVE",
"-43 0 LINE"
);
}
);
width = 729;
}
);
leftKerningGroup = H;
rightKerningGroup = R;
unicode = 0052;
},
{
color = 4;
glyphname = S;
layers = (
{
anchors = (
{
name = bottom;
position = "{258, 0}";
},
{
name = top;
position = "{387, 644}";
}
);
background = {
paths = (
{
closed = 1;
nodes = (
"139 3 OFFCURVE",
"212 -10 OFFCURVE",
"275 -10 CURVE SMOOTH",
"416 -10 OFFCURVE",
"515 58 OFFCURVE",
"515 154 CURVE SMOOTH",
"515 318 OFFCURVE",
"186 347 OFFCURVE",
"186 501 CURVE SMOOTH",
"186 548 OFFCURVE",
"217 593 OFFCURVE",
"266 617 CURVE",
"337 627 OFFCURVE",
"461 618 OFFCURVE",
"555 596 CURVE",
"564 621 LINE",
"499 643 OFFCURVE",
"438 654 OFFCURVE",
"383 654 CURVE SMOOTH",
"247 654 OFFCURVE",
"152 587 OFFCURVE",
"152 490 CURVE SMOOTH",
"152 321 OFFCURVE",
"479 289 OFFCURVE",
"479 147 CURVE SMOOTH",
"479 98 OFFCURVE",
"440 49 OFFCURVE",
"380 21 CURVE",
"263 15 OFFCURVE",
"163 26 OFFCURVE",
"74 56 CURVE",
"61 29 LINE"
);
},
{
closed = 1;
nodes = (
"103 210 LINE",
"95 210 LINE",
"61 29 LINE",
"102 26 LINE"
);
},
{
closed = 1;
nodes = (
"531 450 LINE",
"564 621 LINE",
"523 625 LINE",
"523 450 LINE"
);
}
);
};
layerId = "0E5388DE-A0E6-4EB4-BC9B-CE5870C9023F";
paths = (
{
closed = 1;
nodes = (
"139 3 OFFCURVE",
"212 -10 OFFCURVE",
"275 -10 CURVE SMOOTH",
"416 -10 OFFCURVE",
"515 58 OFFCURVE",
"515 154 CURVE SMOOTH",
"515 318 OFFCURVE",
"186 347 OFFCURVE",
"186 501 CURVE SMOOTH",
"186 551 OFFCURVE",
"221 598 OFFCURVE",
"275 621 CURVE",
"260 616 LINE",
"329 628 OFFCURVE",
"458 619 OFFCURVE",
"555 596 CURVE",
"564 621 LINE",
"499 643 OFFCURVE",
"438 654 OFFCURVE",
"383 654 CURVE SMOOTH",
"247 654 OFFCURVE",
"152 587 OFFCURVE",
"152 490 CURVE SMOOTH",
"152 321 OFFCURVE",
"479 289 OFFCURVE",
"479 147 CURVE SMOOTH",
"479 95 OFFCURVE",
"436 44 OFFCURVE",
"370 17 CURVE",
"390 22 LINE",
"269 14 OFFCURVE",
"166 25 OFFCURVE",
"74 56 CURVE",
"61 29 LINE"
);
},
{
closed = 1;
nodes = (
"103 210 LINE",
"95 210 LINE",
"61 29 LINE",
"102 26 LINE"
);
},
{
closed = 1;
nodes = (
"531 450 LINE",
"564 621 LINE",
"523 625 LINE",
"523 450 LINE"
);
}
);
width = 611;
},
{
anchors = (
{
name = bottom;
position = "{268, 0}";
},
{
name = top;
position = "{400, 660}";
}
);
background = {
paths = (
{
closed = 1;
nodes = (
"99 5 OFFCURVE",
"195 -13 OFFCURVE",
"274 -13 CURVE SMOOTH",
"471 -13 OFFCURVE",
"609 79 OFFCURVE",
"609 209 CURVE SMOOTH",
"609 400 OFFCURVE",
"292 433 OFFCURVE",
"292 503 CURVE SMOOTH",
"292 513 OFFCURVE",
"295 521 OFFCURVE",
"301 526 CURVE",
"403 529 OFFCURVE",
"489 514 OFFCURVE",
"558 480 CURVE",
"646 631 LINE",
"576 657 OFFCURVE",
"492 670 OFFCURVE",
"408 670 CURVE SMOOTH",
"205 670 OFFCURVE",
"73 584 OFFCURVE",
"73 453 CURVE SMOOTH",
"73 259 OFFCURVE",
"390 233 OFFCURVE",
"390 160 CURVE SMOOTH",
"390 146 OFFCURVE",
"384 131 OFFCURVE",
"371 116 CURVE",
"443 140 LINE",
"338 121 OFFCURVE",
"233 131 OFFCURVE",
"128 173 CURVE",
"8 36 LINE"
);
},
{
closed = 1;
nodes = (
"147 254 LINE",
"51 254 LINE",
"8 36 LINE",
"209 24 LINE"
);
},
{
closed = 1;
nodes = (
"602 414 LINE",
"646 631 LINE",
"444 643 LINE",
"505 414 LINE"
);
}
);
};
layerId = "FCE02CC8-2979-430D-9DE0-31930C0E296D";
paths = (
{
closed = 1;
nodes = (
"101 5 OFFCURVE",
"197 -13 OFFCURVE",
"274 -13 CURVE SMOOTH",
"471 -13 OFFCURVE",
"609 79 OFFCURVE",
"609 209 CURVE SMOOTH",
"609 400 OFFCURVE",
"292 433 OFFCURVE",
"292 503 CURVE SMOOTH",
"292 516 OFFCURVE",
"297 525 OFFCURVE",
"307 533 CURVE",
"226 522 LINE",
"359 536 OFFCURVE",
"471 522 OFFCURVE",
"558 480 CURVE",
"646 631 LINE",
"578 657 OFFCURVE",
"494 670 OFFCURVE",
"408 670 CURVE SMOOTH",
"205 670 OFFCURVE",
"73 584 OFFCURVE",
"73 453 CURVE SMOOTH",
"73 259 OFFCURVE",
"390 233 OFFCURVE",
"390 160 CURVE SMOOTH",
"390 146 OFFCURVE",
"384 131 OFFCURVE",
"371 116 CURVE",
"443 140 LINE",
"338 121 OFFCURVE",
"233 131 OFFCURVE",
"128 173 CURVE",
"8 36 LINE"
);
},
{
closed = 1;
nodes = (
"147 254 LINE",
"51 254 LINE",
"8 36 LINE",
"209 24 LINE"
);
},
{
closed = 1;
nodes = (
"602 414 LINE",
"646 631 LINE",
"444 643 LINE",
"505 414 LINE"
);
}
);
width = 634;
}
);
leftKerningGroup = S;
rightKerningGroup = S;
unicode = 0053;
},
{
color = 4;
glyphname = Scaron;
layers = (
{
anchors = (
{
name = top;
position = "{428, 850}";
}
);
components = (
{
name = S;
}
);
layerId = "0E5388DE-A0E6-4EB4-BC9B-CE5870C9023F";
paths = (
{
closed = 1;
nodes = (
"410 747 LINE",
"527 838 LINE",
"517 850 LINE",
"408 778 LINE",
"321 850 LINE",
"309 838 LINE",
"398 747 LINE"
);
}
);
width = 611;
},
{
anchors = (
{
name = top;
position = "{459, 958}";
}
);
components = (
{
name = S;
}
);
layerId = "FCE02CC8-2979-430D-9DE0-31930C0E296D";
paths = (
{
closed = 1;
nodes = (
"483 722 LINE",
"636 887 LINE",
"572 958 LINE",
"430 860 LINE",
"322 958 LINE",
"236 887 LINE",
"347 722 LINE"
);
}
);
width = 634;
}
);
leftKerningGroup = S;
rightKerningGroup = S;
unicode = 0160;
},
{
color = 4;
glyphname = T;
layers = (
{
anchors = (
{
name = bottom;
position = "{298, 0}";
},
{
name = center;
position = "{363, 322}";
},
{
name = top;
position = "{428, 644}";
}
);
layerId = "0E5388DE-A0E6-4EB4-BC9B-CE5870C9023F";
paths = (
{
closed = 1;
nodes = (
"152 644 LINE",
"100 383 LINE",
"108 383 LINE",
"184 614 LINE",
"407 614 LINE",
"281 29 LINE",
"232 27 OFFCURVE",
"184 21 OFFCURVE",
"137 10 CURVE",
"136 0 LINE",
"455 0 LINE",
"458 12 LINE",
"320 30 LINE",
"438 614 LINE",
"658 614 LINE",
"642 383 LINE",
"650 383 LINE",
"702 644 LINE"
);
}
);
width = 691;
},
{
anchors = (
{
name = bottom;
position = "{295, 0}";
},
{
name = center;
position = "{359, 316}";
},
{
name = top;
position = "{428, 660}";
}
);
layerId = "FCE02CC8-2979-430D-9DE0-31930C0E296D";
paths = (
{
closed = 1;
nodes = (
"88 660 LINE",
"30 367 LINE",
"120 367 LINE",
"211 533 LINE",
"296 533 LINE",
"194 109 LINE",
"149 100 OFFCURVE",
"109 90 OFFCURVE",
"69 76 CURVE",
"60 0 LINE",
"519 0 LINE",
"535 81 LINE",
"423 103 LINE",
"514 533 LINE",
"596 533 LINE",
"621 367 LINE",
"708 367 LINE",
"766 660 LINE"
);
}
);
width = 688;
}
);
leftKerningGroup = T;
rightKerningGroup = T;
unicode = 0054;
},
{
color = 4;
glyphname = U;
layers = (
{
anchors = (
{
name = bottom;
position = "{339, 0}";
},
{
name = ogonek;
position = "{472, 10}";
},
{
name = top;
position = "{467, 644}";
},
{
name = topright;
position = "{811, 644}";
}
);
layerId = "0E5388DE-A0E6-4EB4-BC9B-CE5870C9023F";
paths = (
{
closed = 1;
nodes = (
"486 -8 OFFCURVE",
"587 70 OFFCURVE",
"614 205 CURVE SMOOTH",
"696 616 LINE",
"747 619 OFFCURVE",
"785 625 OFFCURVE",
"816 635 CURVE",
"818 644 LINE",
"546 644 LINE",
"544 633 LINE",
"665 615 LINE",
"562 120 LINE",
"502 51 OFFCURVE",
"437 22 OFFCURVE",
"342 22 CURVE SMOOTH",
"229 22 OFFCURVE",
"174 63 OFFCURVE",
"174 147 CURVE SMOOTH",
"174 158 OFFCURVE",
"176 173 OFFCURVE",
"179 195 CURVE SMOOTH",
"263 616 LINE",
"314 619 OFFCURVE",
"352 625 OFFCURVE",
"383 635 CURVE",
"385 644 LINE",
"113 644 LINE",
"111 633 LINE",
"232 615 LINE",
"142 195 LINE",
"138 174 OFFCURVE",
"137 160 OFFCURVE",
"137 149 CURVE SMOOTH",
"137 49 OFFCURVE",
"211 -8 OFFCURVE",
"340 -8 CURVE SMOOTH"
);
}
);
width = 769;
},
{
anchors = (
{
name = bottom;
position = "{299, 0}";
},
{
name = ogonek;
position = "{511, 10}";
},
{
name = top;
position = "{470, 660}";
},
{
name = topright;
position = "{784, 660}";
}
);
layerId = "FCE02CC8-2979-430D-9DE0-31930C0E296D";
paths = (
{
closed = 1;
nodes = (
"502 -14 OFFCURVE",
"614 71 OFFCURVE",
"646 231 CURVE SMOOTH",
"711 552 LINE",
"742 563 OFFCURVE",
"769 574 OFFCURVE",
"795 587 CURVE",
"810 660 LINE",
"503 660 LINE",
"487 580 LINE",
"555 549 LINE",
"468 157 LINE",
"442 138 OFFCURVE",
"402 126 OFFCURVE",
"364 126 CURVE SMOOTH",
"309 126 OFFCURVE",
"273 152 OFFCURVE",
"273 192 CURVE SMOOTH",
"273 197 OFFCURVE",
"274 201 OFFCURVE",
"275 206 CURVE SMOOTH",
"344 552 LINE",
"376 563 OFFCURVE",
"395 572 OFFCURVE",
"419 587 CURVE",
"434 660 LINE",
"67 660 LINE",
"51 580 LINE",
"134 549 LINE",
"59 219 LINE",
"57 203 OFFCURVE",
"55 188 OFFCURVE",
"55 174 CURVE SMOOTH",
"55 58 OFFCURVE",
"155 -14 OFFCURVE",
"322 -14 CURVE SMOOTH"
);
}
);
width = 714;
}
);
leftKerningGroup = U;
rightKerningGroup = U;
unicode = 0055;
},
{
color = 4;
glyphname = Uacute;
layers = (
{
anchors = (
{
name = top;
position = "{512, 869}";
}
);
components = (
{
name = U;
}
);
layerId = "0E5388DE-A0E6-4EB4-BC9B-CE5870C9023F";
paths = (
{
closed = 1;
nodes = (
"493 768 OFFCURVE",
"548 806 OFFCURVE",
"603 847 CURVE",
"587 869 LINE",
"581 869 LINE",
"425 740 LINE",
"431 731 LINE"
);
}
);
width = 769;
},
{
anchors = (
{
name = top;
position = "{528, 954}";
}
);
components = (
{
name = U;
}
);
layerId = "FCE02CC8-2979-430D-9DE0-31930C0E296D";
paths = (
{
closed = 1;
nodes = (
"490 732 OFFCURVE",
"578 764 OFFCURVE",
"666 805 CURVE",
"595 946 LINE",
"569 946 LINE",
"359 775 LINE",
"399 705 LINE"
);
}
);
width = 714;
}
);
leftKerningGroup = U;
rightKerningGroup = U;
unicode = 00DA;
},
{
color = 4;
glyphname = Udieresis;
layers = (
{
anchors = (
{
name = top;
position = "{505, 834}";
}
);
components = (
{
name = U;
}
);
layerId = "0E5388DE-A0E6-4EB4-BC9B-CE5870C9023F";
paths = (
{
closed = 1;
nodes = (
"429 831 OFFCURVE",
"416 823 OFFCURVE",
"404 811 CURVE",
"407 799 OFFCURVE",
"415 786 OFFCURVE",
"426 773 CURVE",
"440 775 OFFCURVE",
"455 783 OFFCURVE",
"465 794 CURVE",
"463 808 OFFCURVE",
"456 822 OFFCURVE",
"444 834 CURVE"
);
},
{
closed = 1;
nodes = (
"558 831 OFFCURVE",
"544 823 OFFCURVE",
"533 811 CURVE",
"537 796 OFFCURVE",
"545 783 OFFCURVE",
"556 773 CURVE",
"569 775 OFFCURVE",
"582 782 OFFCURVE",
"594 794 CURVE",
"592 808 OFFCURVE",
"585 821 OFFCURVE",
"574 834 CURVE"
);
}
);
width = 769;
},
{
anchors = (
{
name = top;
position = "{526, 940}";
}
);
components = (
{
name = U;
}
);
layerId = "FCE02CC8-2979-430D-9DE0-31930C0E296D";
paths = (
{
closed = 1;
nodes = (
"368 931 OFFCURVE",
"318 901 OFFCURVE",
"283 864 CURVE",
"292 809 OFFCURVE",
"323 757 OFFCURVE",
"362 725 CURVE",
"413 732 OFFCURVE",
"466 764 OFFCURVE",
"499 804 CURVE",
"491 855 OFFCURVE",
"461 904 OFFCURVE",
"421 940 CURVE"
);
},
{
closed = 1;
nodes = (
"595 931 OFFCURVE",
"545 901 OFFCURVE",
"509 864 CURVE",
"518 809 OFFCURVE",
"549 757 OFFCURVE",
"588 725 CURVE",
"640 732 OFFCURVE",
"692 764 OFFCURVE",
"725 804 CURVE",
"717 855 OFFCURVE",
"686 904 OFFCURVE",
"646 940 CURVE"
);
}
);
width = 714;
}
);
leftKerningGroup = U;
rightKerningGroup = U;
unicode = 00DC;
},
{
color = 4;
glyphname = Ugrave;
layers = (
{
anchors = (
{
name = top;
position = "{512, 869}";
}
);
components = (
{
name = U;
}
);
layerId = "0E5388DE-A0E6-4EB4-BC9B-CE5870C9023F";
paths = (
{
closed = 1;
nodes = (
"569 740 LINE",
"413 869 LINE",
"407 869 LINE",
"391 847 LINE",
"446 806 OFFCURVE",
"501 768 OFFCURVE",
"563 731 CURVE"
);
}
);
width = 769;
},
{
anchors = (
{
name = top;
position = "{528, 954}";
}
);
components = (
{
name = U;
}
);
layerId = "FCE02CC8-2979-430D-9DE0-31930C0E296D";
paths = (
{
closed = 1;
nodes = (
"644 775 LINE",
"434 946 LINE",
"408 946 LINE",
"337 805 LINE",
"424 764 OFFCURVE",
"513 732 OFFCURVE",
"604 705 CURVE"
);
}
);
width = 714;
}
);
leftKerningGroup = U;
rightKerningGroup = U;
unicode = 00D9;
},
{
color = 4;
glyphname = V;
layers = (
{
anchors = (
{
name = bottom;
position = "{306, 0}";
},
{
name = top;
position = "{435, 644}";
}
);
layerId = "0E5388DE-A0E6-4EB4-BC9B-CE5870C9023F";
paths = (
{
closed = 1;
nodes = (
"324 0 LINE",
"703 644 LINE",
"668 644 LINE",
"301 15 LINE",
"312 15 LINE",
"207 644 LINE",
"173 644 LINE",
"285 0 LINE"
);
},
{
closed = 1;
nodes = (
"329 633 LINE",
"331 644 LINE",
"107 644 LINE",
"106 635 LINE",
"137 626 OFFCURVE",
"167 620 OFFCURVE",
"197 616 CURVE"
);
},
{
closed = 1;
nodes = (
"758 633 LINE",
"760 644 LINE",
"527 644 LINE",
"526 635 LINE",
"572 626 OFFCURVE",
"621 620 OFFCURVE",
"676 616 CURVE"
);
}
);
width = 705;
},
{
anchors = (
{
name = bottom;
position = "{289, 0}";
},
{
name = top;
position = "{421, 660}";
}
);
layerId = "FCE02CC8-2979-430D-9DE0-31930C0E296D";
paths = (
{
closed = 1;
nodes = (
"415 0 LINE",
"769 660 LINE",
"591 660 LINE",
"322 106 LINE",
"357 106 LINE",
"315 660 LINE",
"71 660 LINE",
"168 0 LINE"
);
},
{
closed = 1;
nodes = (
"408 587 LINE",
"421 660 LINE",
"46 660 LINE",
"37 588 LINE",
"97 552 OFFCURVE",
"161 526 OFFCURVE",
"232 514 CURVE"
);
},
{
closed = 1;
nodes = (
"782 587 LINE",
"795 660 LINE",
"487 660 LINE",
"479 588 LINE",
"533 552 OFFCURVE",
"594 527 OFFCURVE",
"662 515 CURVE"
);
}
);
width = 678;
}
);
leftKerningGroup = V;
rightKerningGroup = V;
unicode = 0056;
},
{
color = 4;
glyphname = W;
layers = (
{
anchors = (
{
name = bottom;
position = "{466, 0}";
},
{
name = top;
position = "{595, 644}";
}
);
background = {
paths = (
{
closed = 1;
nodes = (
"676 0 LINE",
"1023 644 LINE",
"988 644 LINE",
"653 15 LINE",
"664 15 LINE",
"587 644 LINE",
"555 644 LINE",
"637 0 LINE"
);
},
{
closed = 1;
nodes = (
"289 0 LINE",
"585 551 LINE",
"571 586 LINE",
"267 15 LINE",
"278 15 LINE",
"203 644 LINE",
"169 644 LINE",
"251 0 LINE"
);
},
{
closed = 1;
nodes = (
"328 633 LINE",
"330 644 LINE",
"108 644 LINE",
"107 635 LINE",
"138 626 OFFCURVE",
"168 620 OFFCURVE",
"197 616 CURVE"
);
},
{
closed = 1;
nodes = (
"703 633 LINE",
"705 644 LINE",
"475 644 LINE",
"474 635 LINE",
"509 626 OFFCURVE",
"544 620 OFFCURVE",
"583 616 CURVE"
);
},
{
closed = 1;
nodes = (
"1079 633 LINE",
"1081 644 LINE",
"851 644 LINE",
"850 635 LINE",
"894 626 OFFCURVE",
"942 620 OFFCURVE",
"998 616 CURVE"
);
}
);
};
layerId = "0E5388DE-A0E6-4EB4-BC9B-CE5870C9023F";
paths = (
{
closed = 1;
nodes = (
"676 0 LINE",
"1018 634 LINE",
"983 634 LINE",
"653 15 LINE",
"664 15 LINE",
"588 634 LINE",
"556 634 LINE",
"637 0 LINE"
);
},
{
closed = 1;
nodes = (
"289 0 LINE",
"585 551 LINE",
"571 586 LINE",
"267 15 LINE",
"278 15 LINE",
"204 634 LINE",
"170 634 LINE",
"251 0 LINE"
);
},
{
closed = 1;
nodes = (
"328 633 LINE",
"330 644 LINE",
"108 644 LINE",
"107 635 LINE",
"138 626 OFFCURVE",
"168 620 OFFCURVE",
"197 616 CURVE"
);
},
{
closed = 1;
nodes = (
"703 633 LINE",
"705 644 LINE",
"475 644 LINE",
"474 635 LINE",
"509 626 OFFCURVE",
"544 620 OFFCURVE",
"583 616 CURVE"
);
},
{
closed = 1;
nodes = (
"1079 633 LINE",
"1081 644 LINE",
"851 644 LINE",
"850 635 LINE",
"894 626 OFFCURVE",
"942 620 OFFCURVE",
"998 616 CURVE"
);
}
);
width = 1027;
},
{
anchors = (
{
name = bottom;
position = "{454, 0}";
},
{
name = top;
position = "{586, 660}";
}
);
background = {
paths = (
{
closed = 1;
nodes = (
"761 0 LINE",
"1094 660 LINE",
"919 660 LINE",
"668 105 LINE",
"702 105 LINE",
"677 660 LINE",
"481 660 LINE",
"523 0 LINE"
);
},
{
closed = 1;
nodes = (
"389 0 LINE",
"614 495 LINE",
"526 618 LINE",
"298 105 LINE",
"330 105 LINE",
"309 660 LINE",
"72 660 LINE",
"147 0 LINE"
);
},
{
closed = 1;
nodes = (
"392 587 LINE",
"406 660 LINE",
"49 660 LINE",
"40 588 LINE",
"95 552 OFFCURVE",
"153 527 OFFCURVE",
"220 515 CURVE"
);
},
{
closed = 1;
nodes = (
"767 587 LINE",
"781 660 LINE",
"457 660 LINE",
"448 588 LINE",
"499 552 OFFCURVE",
"554 527 OFFCURVE",
"616 515 CURVE"
);
},
{
closed = 1;
nodes = (
"1110 587 LINE",
"1123 660 LINE",
"832 660 LINE",
"823 589 LINE",
"873 553 OFFCURVE",
"926 527 OFFCURVE",
"987 515 CURVE"
);
}
);
};
layerId = "FCE02CC8-2979-430D-9DE0-31930C0E296D";
paths = (
{
closed = 1;
nodes = (
"761 0 LINE",
"1089 650 LINE",
"915 650 LINE",
"668 105 LINE",
"702 105 LINE",
"678 650 LINE",
"482 650 LINE",
"523 0 LINE"
);
},
{
closed = 1;
nodes = (
"389 0 LINE",
"614 495 LINE",
"526 618 LINE",
"298 105 LINE",
"330 105 LINE",
"309 650 LINE",
"73 650 LINE",
"147 0 LINE"
);
},
{
closed = 1;
nodes = (
"392 587 LINE",
"406 660 LINE",
"49 660 LINE",
"40 588 LINE",
"95 552 OFFCURVE",
"153 527 OFFCURVE",
"220 515 CURVE"
);
},
{
closed = 1;
nodes = (
"767 587 LINE",
"781 660 LINE",
"457 660 LINE",
"448 588 LINE",
"499 552 OFFCURVE",
"554 527 OFFCURVE",
"616 515 CURVE"
);
},
{
closed = 1;
nodes = (
"1110 587 LINE",
"1123 660 LINE",
"832 660 LINE",
"823 589 LINE",
"873 553 OFFCURVE",
"926 527 OFFCURVE",
"987 515 CURVE"
);
}
);
width = 1007;
}
);
leftKerningGroup = V;
rightKerningGroup = V;
unicode = 0057;
},
{
color = 4;
glyphname = X;
layers = (
{
anchors = (
{
name = bottom;
position = "{336, 0}";
},
{
name = top;
position = "{465, 644}";
}
);
background = {
paths = (
{
closed = 1;
nodes = (
"107 0 LINE",
"413 328 LINE",
"398 328 LINE",
"566 0 LINE",
"596 0 LINE",
"597 8 LINE",
"414 363 LINE",
"404 363 LINE",
"69 3 LINE",
"69 0 LINE"
);
},
{
closed = 1;
nodes = (
"409 327 LINE",
"696 638 LINE",
"696 641 LINE",
"660 641 LINE",
"402 363 LINE",
"414 363 LINE",
"271 642 LINE",
"242 642 LINE",
"240 633 LINE",
"397 327 LINE"
);
},
{
closed = 1;
nodes = (
"680 0 LINE",
"683 12 LINE",
"569 32 LINE",
"513 30 OFFCURVE",
"462 22 OFFCURVE",
"409 7 CURVE",
"408 0 LINE"
);
},
{
closed = 1;
nodes = (
"259 0 LINE",
"262 12 LINE",
"118 32 LINE",
"74 30 OFFCURVE",
"32 22 OFFCURVE",
"-12 7 CURVE",
"-13 0 LINE"
);
},
{
closed = 1;
nodes = (
"159 644 LINE",
"157 632 LINE",
"260 612 LINE",
"319 614 OFFCURVE",
"376 622 OFFCURVE",
"431 637 CURVE",
"431 644 LINE"
);
},
{
closed = 1;
nodes = (
"518 644 LINE",
"516 632 LINE",
"649 612 LINE",
"698 614 OFFCURVE",
"745 622 OFFCURVE",
"790 637 CURVE",
"790 644 LINE"
);
}
);
};
layerId = "0E5388DE-A0E6-4EB4-BC9B-CE5870C9023F";
paths = (
{
closed = 1;
nodes = (
"116 10 LINE",
"413 328 LINE",
"398 328 LINE",
"561 10 LINE",
"591 10 LINE",
"592 18 LINE",
"414 363 LINE",
"404 363 LINE",
"78 13 LINE",
"78 10 LINE"
);
},
{
closed = 1;
nodes = (
"409 327 LINE",
"696 638 LINE",
"696 640 LINE",
"659 640 LINE",
"402 363 LINE",
"414 363 LINE",
"272 640 LINE",
"242 640 LINE",
"240 633 LINE",
"397 327 LINE"
);
},
{
closed = 1;
nodes = (
"680 0 LINE",
"683 12 LINE",
"569 32 LINE",
"513 30 OFFCURVE",
"462 22 OFFCURVE",
"409 7 CURVE",
"408 0 LINE"
);
},
{
closed = 1;
nodes = (
"259 0 LINE",
"262 12 LINE",
"118 32 LINE",
"74 30 OFFCURVE",
"32 22 OFFCURVE",
"-12 7 CURVE",
"-13 0 LINE"
);
},
{
closed = 1;
nodes = (
"159 644 LINE",
"157 632 LINE",
"260 612 LINE",
"319 614 OFFCURVE",
"376 622 OFFCURVE",
"431 637 CURVE",
"431 644 LINE"
);
},
{
closed = 1;
nodes = (
"518 644 LINE",
"516 632 LINE",
"649 612 LINE",
"698 614 OFFCURVE",
"745 622 OFFCURVE",
"790 637 CURVE",
"790 644 LINE"
);
}
);
width = 767;
},
{
anchors = (
{
name = bottom;
position = "{321, 0}";
},
{
name = top;
position = "{454, 660}";
}
);
background = {
paths = (
{
closed = 1;
nodes = (
"132 10 LINE",
"382 302 LINE",
"321 302 LINE",
"448 10 LINE",
"676 10 LINE",
"690 79 LINE",
"539 386 LINE",
"273 386 LINE",
"-2 90 LINE",
"-17 10 LINE"
);
},
{
closed = 1;
nodes = (
"524 309 LINE",
"783 585 LINE",
"786 650 LINE",
"633 650 LINE",
"417 393 LINE",
"476 393 LINE",
"363 650 LINE",
"128 650 LINE",
"113 594 LINE",
"259 309 LINE"
);
},
{
closed = 1;
nodes = (
"703 0 LINE",
"719 81 LINE",
"556 147 LINE",
"482 136 OFFCURVE",
"404 115 OFFCURVE",
"327 78 CURVE",
"317 0 LINE"
);
},
{
closed = 1;
nodes = (
"256 0 LINE",
"271 81 LINE",
"140 148 LINE",
"82 137 OFFCURVE",
"11 116 OFFCURVE",
"-51 79 CURVE",
"-61 0 LINE"
);
},
{
closed = 1;
nodes = (
"85 660 LINE",
"70 580 LINE",
"230 513 LINE",
"304 525 OFFCURVE",
"381 546 OFFCURVE",
"456 583 CURVE",
"465 660 LINE"
);
},
{
closed = 1;
nodes = (
"518 660 LINE",
"503 580 LINE",
"638 512 LINE",
"694 524 OFFCURVE",
"752 545 OFFCURVE",
"812 582 CURVE",
"823 660 LINE"
);
}
);
};
layerId = "FCE02CC8-2979-430D-9DE0-31930C0E296D";
paths = (
{
closed = 1;
nodes = (
"132 10 LINE",
"382 302 LINE",
"321 302 LINE",
"448 10 LINE",
"676 10 LINE",
"690 79 LINE",
"539 386 LINE",
"273 386 LINE",
"-2 90 LINE",
"-17 10 LINE"
);
},
{
closed = 1;
nodes = (
"524 309 LINE",
"783 585 LINE",
"786 650 LINE",
"633 650 LINE",
"417 393 LINE",
"476 393 LINE",
"363 650 LINE",
"128 650 LINE",
"113 594 LINE",
"259 309 LINE"
);
},
{
closed = 1;
nodes = (
"703 0 LINE",
"719 81 LINE",
"556 147 LINE",
"482 136 OFFCURVE",
"404 115 OFFCURVE",
"327 78 CURVE",
"317 0 LINE"
);
},
{
closed = 1;
nodes = (
"256 0 LINE",
"271 81 LINE",
"140 148 LINE",
"82 137 OFFCURVE",
"11 116 OFFCURVE",
"-51 79 CURVE",
"-61 0 LINE"
);
},
{
closed = 1;
nodes = (
"85 660 LINE",
"70 580 LINE",
"230 513 LINE",
"304 525 OFFCURVE",
"381 546 OFFCURVE",
"456 583 CURVE",
"465 660 LINE"
);
},
{
closed = 1;
nodes = (
"518 660 LINE",
"503 580 LINE",
"638 512 LINE",
"694 524 OFFCURVE",
"752 545 OFFCURVE",
"812 582 CURVE",
"823 660 LINE"
);
}
);
width = 739;
}
);
leftKerningGroup = X;
rightKerningGroup = X;
unicode = 0058;
},
{
color = 4;
glyphname = Y;
layers = (
{
anchors = (
{
name = bottom;
position = "{283, 0}";
},
{
name = center;
position = "{320, 179}";
},
{
name = top;
position = "{422, 644}";
},
{
name = topleft;
position = "{101, 644}";
}
);
background = {
paths = (
{
closed = 1;
nodes = (
"338 237 LINE",
"646 641 LINE",
"646 644 LINE",
"611 644 LINE",
"332 273 LINE",
"344 273 LINE",
"218 644 LINE",
"188 644 LINE",
"187 635 LINE",
"326 237 LINE"
);
},
{
closed = 1;
nodes = (
"432 0 LINE",
"435 12 LINE",
"307 30 LINE",
"355 270 LINE",
"321 270 LINE",
"268 29 LINE",
"224 27 OFFCURVE",
"180 21 OFFCURVE",
"134 10 CURVE",
"133 0 LINE"
);
},
{
closed = 1;
nodes = (
"267 614 OFFCURVE",
"323 622 OFFCURVE",
"378 637 CURVE",
"378 644 LINE",
"106 644 LINE",
"104 632 LINE",
"207 612 LINE"
);
},
{
closed = 1;
nodes = (
"645 614 OFFCURVE",
"692 622 OFFCURVE",
"737 637 CURVE",
"737 644 LINE",
"465 644 LINE",
"463 632 LINE",
"596 612 LINE"
);
}
);
};
layerId = "0E5388DE-A0E6-4EB4-BC9B-CE5870C9023F";
paths = (
{
closed = 1;
nodes = (
"338 237 LINE",
"638 631 LINE",
"638 634 LINE",
"603 634 LINE",
"332 273 LINE",
"344 273 LINE",
"221 634 LINE",
"191 634 LINE",
"190 625 LINE",
"326 237 LINE"
);
},
{
closed = 1;
nodes = (
"432 0 LINE",
"435 12 LINE",
"307 30 LINE",
"355 270 LINE",
"321 270 LINE",
"268 29 LINE",
"224 27 OFFCURVE",
"180 21 OFFCURVE",
"134 10 CURVE",
"133 0 LINE"
);
},
{
closed = 1;
nodes = (
"267 614 OFFCURVE",
"323 622 OFFCURVE",
"378 637 CURVE",
"378 644 LINE",
"106 644 LINE",
"104 632 LINE",
"207 612 LINE"
);
},
{
closed = 1;
nodes = (
"645 614 OFFCURVE",
"692 622 OFFCURVE",
"737 637 CURVE",
"737 644 LINE",
"465 644 LINE",
"463 632 LINE",
"596 612 LINE"
);
}
);
width = 681;
},
{
anchors = (
{
name = bottom;
position = "{274, 0}";
},
{
name = center;
position = "{317, 181}";
},
{
name = top;
position = "{416, 660}";
},
{
name = topleft;
position = "{102, 660}";
}
);
background = {
paths = (
{
closed = 1;
nodes = (
"382 154 LINE",
"742 585 LINE",
"754 660 LINE",
"620 660 LINE",
"370 331 LINE",
"436 331 LINE",
"322 660 LINE",
"84 660 LINE",
"74 594 LINE",
"257 154 LINE"
);
},
{
closed = 1;
nodes = (
"497 0 LINE",
"512 81 LINE",
"418 103 LINE",
"461 317 LINE",
"242 317 LINE",
"189 109 LINE",
"154 101 OFFCURVE",
"121 90 OFFCURVE",
"86 77 CURVE",
"71 0 LINE"
);
},
{
closed = 1;
nodes = (
"273 525 OFFCURVE",
"350 546 OFFCURVE",
"425 583 CURVE",
"434 660 LINE",
"45 660 LINE",
"30 580 LINE",
"199 513 LINE"
);
},
{
closed = 1;
nodes = (
"654 524 OFFCURVE",
"713 545 OFFCURVE",
"772 582 CURVE",
"783 660 LINE",
"487 660 LINE",
"472 580 LINE",
"597 512 LINE"
);
}
);
};
layerId = "FCE02CC8-2979-430D-9DE0-31930C0E296D";
paths = (
{
closed = 1;
nodes = (
"382 154 LINE",
"742 585 LINE",
"748 650 LINE",
"615 650 LINE",
"370 331 LINE",
"436 331 LINE",
"325 650 LINE",
"87 650 LINE",
"74 594 LINE",
"257 154 LINE"
);
},
{
closed = 1;
nodes = (
"497 0 LINE",
"512 81 LINE",
"418 103 LINE",
"461 317 LINE",
"242 317 LINE",
"189 109 LINE",
"154 101 OFFCURVE",
"121 90 OFFCURVE",
"86 77 CURVE",
"71 0 LINE"
);
},
{
closed = 1;
nodes = (
"273 525 OFFCURVE",
"350 546 OFFCURVE",
"425 583 CURVE",
"434 660 LINE",
"45 660 LINE",
"30 580 LINE",
"199 513 LINE"
);
},
{
closed = 1;
nodes = (
"654 524 OFFCURVE",
"713 545 OFFCURVE",
"772 582 CURVE",
"783 660 LINE",
"487 660 LINE",
"472 580 LINE",
"597 512 LINE"
);
}
);
width = 667;
}
);
leftKerningGroup = Y;
rightKerningGroup = Y;
unicode = 0059;
},
{
color = 4;
glyphname = Yacute;
layers = (
{
anchors = (
{
name = top;
position = "{467, 869}";
}
);
components = (
{
name = Y;
}
);
layerId = "0E5388DE-A0E6-4EB4-BC9B-CE5870C9023F";
paths = (
{
closed = 1;
nodes = (
"448 768 OFFCURVE",
"503 806 OFFCURVE",
"558 847 CURVE",
"542 869 LINE",
"536 869 LINE",
"380 740 LINE",
"386 731 LINE"
);
}
);
width = 681;
},
{
anchors = (
{
name = top;
position = "{474, 954}";
}
);
components = (
{
name = Y;
}
);
layerId = "FCE02CC8-2979-430D-9DE0-31930C0E296D";
paths = (
{
closed = 1;
nodes = (
"436 732 OFFCURVE",
"524 764 OFFCURVE",
"612 805 CURVE",
"541 946 LINE",
"515 946 LINE",
"305 775 LINE",
"345 705 LINE"
);
}
);
width = 667;
}
);
leftKerningGroup = Y;
rightKerningGroup = Y;
unicode = 00DD;
},
{
color = 4;
glyphname = Ydieresis;
layers = (
{
anchors = (
{
name = top;
position = "{460, 834}";
}
);
components = (
{
name = Y;
}
);
layerId = "0E5388DE-A0E6-4EB4-BC9B-CE5870C9023F";
paths = (
{
closed = 1;
nodes = (
"384 831 OFFCURVE",
"371 823 OFFCURVE",
"359 811 CURVE",
"362 799 OFFCURVE",
"370 786 OFFCURVE",
"381 773 CURVE",
"395 775 OFFCURVE",
"410 783 OFFCURVE",
"420 794 CURVE",
"418 808 OFFCURVE",
"411 822 OFFCURVE",
"399 834 CURVE"
);
},
{
closed = 1;
nodes = (
"513 831 OFFCURVE",
"499 823 OFFCURVE",
"488 811 CURVE",
"492 796 OFFCURVE",
"500 783 OFFCURVE",
"511 773 CURVE",
"524 775 OFFCURVE",
"537 782 OFFCURVE",
"549 794 CURVE",
"547 808 OFFCURVE",
"540 821 OFFCURVE",
"529 834 CURVE"
);
}
);
width = 681;
},
{
anchors = (
{
name = top;
position = "{472, 940}";
}
);
components = (
{
name = Y;
}
);
layerId = "FCE02CC8-2979-430D-9DE0-31930C0E296D";
paths = (
{
closed = 1;
nodes = (
"314 931 OFFCURVE",
"264 901 OFFCURVE",
"229 864 CURVE",
"238 809 OFFCURVE",
"269 757 OFFCURVE",
"308 725 CURVE",
"359 732 OFFCURVE",
"412 764 OFFCURVE",
"445 804 CURVE",
"437 855 OFFCURVE",
"407 904 OFFCURVE",
"367 940 CURVE"
);
},
{
closed = 1;
nodes = (
"541 931 OFFCURVE",
"491 901 OFFCURVE",
"455 864 CURVE",
"464 809 OFFCURVE",
"495 757 OFFCURVE",
"534 725 CURVE",
"586 732 OFFCURVE",
"638 764 OFFCURVE",
"671 804 CURVE",
"663 855 OFFCURVE",
"632 904 OFFCURVE",
"592 940 CURVE"
);
}
);
width = 667;
}
);
leftKerningGroup = Y;
rightKerningGroup = Y;
unicode = 0178;
},
{
color = 4;
glyphname = Z;
layers = (
{
anchors = (
{
name = bottom;
position = "{274, 0}";
},
{
name = top;
position = "{403, 644}";
}
);
layerId = "0E5388DE-A0E6-4EB4-BC9B-CE5870C9023F";
paths = (
{
closed = 1;
nodes = (
"644 644 LINE",
"171 644 LINE",
"139 465 LINE",
"146 465 LINE",
"198 613 LINE",
"596 620 LINE",
"592 630 LINE",
"20 3 LINE",
"20 0 LINE",
"521 0 LINE",
"553 186 LINE",
"546 186 LINE",
"493 31 LINE",
"67 24 LINE",
"71 14 LINE",
"644 641 LINE"
);
}
);
width = 645;
},
{
anchors = (
{
name = bottom;
position = "{284, 0}";
},
{
name = top;
position = "{416, 660}";
}
);
layerId = "FCE02CC8-2979-430D-9DE0-31930C0E296D";
paths = (
{
closed = 1;
nodes = (
"720 660 LINE",
"121 660 LINE",
"64 384 LINE",
"164 384 LINE",
"250 530 LINE",
"503 541 LINE",
"474 605 LINE",
"-8 89 LINE",
"-23 0 LINE",
"584 0 LINE",
"637 269 LINE",
"539 269 LINE",
"458 133 LINE",
"194 117 LINE",
"222 55 LINE",
"705 572 LINE"
);
}
);
width = 667;
}
);
leftKerningGroup = Z;
rightKerningGroup = Z;
unicode = 005A;
},
{
color = 4;
glyphname = Zcaron;
layers = (
{
anchors = (
{
name = top;
position = "{444, 850}";
}
);
components = (
{
name = Z;
}
);
layerId = "0E5388DE-A0E6-4EB4-BC9B-CE5870C9023F";
paths = (
{
closed = 1;
nodes = (
"426 747 LINE",
"543 838 LINE",
"533 850 LINE",
"424 778 LINE",
"337 850 LINE",
"325 838 LINE",
"414 747 LINE"
);
}
);
width = 645;
},
{
anchors = (
{
name = top;
position = "{475, 958}";
}
);
components = (
{
name = Z;
}
);
layerId = "FCE02CC8-2979-430D-9DE0-31930C0E296D";
paths = (
{
closed = 1;
nodes = (
"499 722 LINE",
"652 887 LINE",
"588 958 LINE",
"446 860 LINE",
"338 958 LINE",
"252 887 LINE",
"363 722 LINE"
);
}
);
width = 667;
}
);
leftKerningGroup = Z;
rightKerningGroup = Z;
unicode = 017D;
},
{
color = 4;
glyphname = a;
layers = (
{
anchors = (
{
name = bottom;
position = "{199, 0}";
},
{
name = ogonek;
position = "{401, 10}";
},
{
name = top;
position = "{273, 478}";
}
);
layerId = "0E5388DE-A0E6-4EB4-BC9B-CE5870C9023F";
paths = (
{
closed = 1;
nodes = (
"264 55 OFFCURVE",
"330 164 OFFCURVE",
"399 350 CURVE",
"385 359 LINE",
"312 168 OFFCURVE",
"239 55 OFFCURVE",
"160 11 CURVE",
"184 16 LINE",
"144 23 OFFCURVE",
"113 42 OFFCURVE",
"77 63 CURVE",
"103 40 LINE",
"36 215 OFFCURVE",
"117 441 OFFCURVE",
"258 470 CURVE",
"232 472 LINE",
"302 462 OFFCURVE",
"358 438 OFFCURVE",
"398 400 CURVE",
"399 410 LINE",
"373 458 OFFCURVE",
"326 486 OFFCURVE",
"271 486 CURVE SMOOTH",
"149 486 OFFCURVE",
"50 345 OFFCURVE",
"50 170 CURVE SMOOTH",
"50 45 OFFCURVE",
"101 -19 OFFCURVE",
"185 -2 CURVE"
);
},
{
closed = 1;
nodes = (
"434 478 LINE",
"405 478 LINE",
"358 251 LINE",
"361 250 LINE",
"313 51 LINE",
"318 16 OFFCURVE",
"336 -5 OFFCURVE",
"362 -5 CURVE SMOOTH",
"390 -5 OFFCURVE",
"419 21 OFFCURVE",
"433 60 CURVE",
"396 44 OFFCURVE",
"364 36 OFFCURVE",
"331 36 CURVE",
"339 21 LINE"
);
}
);
width = 497;
},
{
anchors = (
{
name = bottom;
position = "{232, 0}";
},
{
name = ogonek;
position = "{466, 10}";
},
{
name = top;
position = "{314, 496}";
}
);
layerId = "FCE02CC8-2979-430D-9DE0-31930C0E296D";
paths = (
{
closed = 1;
nodes = (
"255 98 OFFCURVE",
"312 211 OFFCURVE",
"359 327 CURVE",
"331 356 LINE",
"294 271 OFFCURVE",
"249 194 OFFCURVE",
"194 125 CURVE",
"215 127 LINE",
"197 129 OFFCURVE",
"180 136 OFFCURVE",
"166 147 CURVE",
"173 131 LINE",
"185 229 OFFCURVE",
"210 322 OFFCURVE",
"248 412 CURVE",
"194 388 LINE",
"252 390 OFFCURVE",
"303 385 OFFCURVE",
"351 373 CURVE",
"352 426 LINE",
"340 476 OFFCURVE",
"304 504 OFFCURVE",
"252 504 CURVE SMOOTH",
"124 504 OFFCURVE",
"-3 329 OFFCURVE",
"-3 159 CURVE SMOOTH",
"-3 43 OFFCURVE",
"54 -7 OFFCURVE",
"164 -7 CURVE"
);
},
{
closed = 1;
nodes = (
"539 495 LINE",
"360 495 LINE",
"284 194 LINE",
"305 186 LINE",
"255 58 LINE",
"281 12 OFFCURVE",
"325 -9 OFFCURVE",
"371 -9 CURVE SMOOTH",
"443 -9 OFFCURVE",
"519 42 OFFCURVE",
"532 129 CURVE",
"488 134 OFFCURVE",
"447 132 OFFCURVE",
"407 125 CURVE",
"441 36 LINE"
);
}
);
width = 548;
}
);
leftKerningGroup = o;
rightKerningGroup = n;
unicode = 0061;
},
{
color = 4;
glyphname = aacute;
layers = (
{
anchors = (
{
name = top;
position = "{318, 703}";
}
);
components = (
{
name = a;
}
);
layerId = "0E5388DE-A0E6-4EB4-BC9B-CE5870C9023F";
paths = (
{
closed = 1;
nodes = (
"299 602 OFFCURVE",
"354 640 OFFCURVE",
"409 681 CURVE",
"393 703 LINE",
"387 703 LINE",
"231 574 LINE",
"237 565 LINE"
);
}
);
width = 497;
},
{
anchors = (
{
name = top;
position = "{372, 790}";
}
);
components = (
{
name = a;
}
);
layerId = "FCE02CC8-2979-430D-9DE0-31930C0E296D";
paths = (
{
closed = 1;
nodes = (
"334 568 OFFCURVE",
"422 600 OFFCURVE",
"510 641 CURVE",
"439 782 LINE",
"413 782 LINE",
"203 611 LINE",
"243 541 LINE"
);
}
);
width = 548;
}
);
leftKerningGroup = o;
rightKerningGroup = n;
unicode = 00E1;
},
{
color = 4;
glyphname = adieresis;
layers = (
{
anchors = (
{
name = top;
position = "{311, 668}";
}
);
components = (
{
name = a;
}
);
layerId = "0E5388DE-A0E6-4EB4-BC9B-CE5870C9023F";
paths = (
{
closed = 1;
nodes = (
"235 665 OFFCURVE",
"222 657 OFFCURVE",
"210 645 CURVE",
"213 633 OFFCURVE",
"221 620 OFFCURVE",
"232 607 CURVE",
"246 609 OFFCURVE",
"261 617 OFFCURVE",
"271 628 CURVE",
"269 642 OFFCURVE",
"262 656 OFFCURVE",
"250 668 CURVE"
);
},
{
closed = 1;
nodes = (
"364 665 OFFCURVE",
"350 657 OFFCURVE",
"339 645 CURVE",
"343 630 OFFCURVE",
"351 617 OFFCURVE",
"362 607 CURVE",
"375 609 OFFCURVE",
"388 616 OFFCURVE",
"400 628 CURVE",
"398 642 OFFCURVE",
"391 655 OFFCURVE",
"380 668 CURVE"
);
}
);
width = 497;
},
{
anchors = (
{
name = top;
position = "{370, 776}";
}
);
components = (
{
name = a;
}
);
layerId = "FCE02CC8-2979-430D-9DE0-31930C0E296D";
paths = (
{
closed = 1;
nodes = (
"212 767 OFFCURVE",
"162 737 OFFCURVE",
"127 700 CURVE",
"136 645 OFFCURVE",
"167 593 OFFCURVE",
"206 561 CURVE",
"257 568 OFFCURVE",
"310 600 OFFCURVE",
"343 640 CURVE",
"335 691 OFFCURVE",
"305 740 OFFCURVE",
"265 776 CURVE"
);
},
{
closed = 1;
nodes = (
"439 767 OFFCURVE",
"389 737 OFFCURVE",
"353 700 CURVE",
"362 645 OFFCURVE",
"393 593 OFFCURVE",
"432 561 CURVE",
"484 568 OFFCURVE",
"536 600 OFFCURVE",
"569 640 CURVE",
"561 691 OFFCURVE",
"530 740 OFFCURVE",
"490 776 CURVE"
);
}
);
width = 548;
}
);
leftKerningGroup = o;
rightKerningGroup = n;
unicode = 00E4;
},
{
color = 4;
glyphname = agrave;
layers = (
{
anchors = (
{
name = top;
position = "{318, 703}";
}
);
components = (
{
name = a;
}
);
layerId = "0E5388DE-A0E6-4EB4-BC9B-CE5870C9023F";
paths = (
{
closed = 1;
nodes = (
"375 574 LINE",
"219 703 LINE",
"213 703 LINE",
"197 681 LINE",
"252 640 OFFCURVE",
"307 602 OFFCURVE",
"369 565 CURVE"
);
}
);
width = 497;
},
{
anchors = (
{
name = top;
position = "{372, 790}";
}
);
components = (
{
name = a;
}
);
layerId = "FCE02CC8-2979-430D-9DE0-31930C0E296D";
paths = (
{
closed = 1;
nodes = (
"488 611 LINE",
"278 782 LINE",
"252 782 LINE",
"181 641 LINE",
"268 600 OFFCURVE",
"357 568 OFFCURVE",
"448 541 CURVE"
);
}
);
width = 548;
}
);
leftKerningGroup = o;
rightKerningGroup = n;
unicode = 00E0;
},
{
color = 4;
glyphname = aring;
layers = (
{
anchors = (
{
name = top;
position = "{303, 635}";
}
);
components = (
{
name = a;
}
);
layerId = "0E5388DE-A0E6-4EB4-BC9B-CE5870C9023F";
paths = (
{
closed = 1;
nodes = (
"339 567 OFFCURVE",
"374 602 OFFCURVE",
"374 645 CURVE SMOOTH",
"374 680 OFFCURVE",
"348 705 OFFCURVE",
"313 705 CURVE SMOOTH",
"270 705 OFFCURVE",
"235 670 OFFCURVE",
"235 628 CURVE SMOOTH",
"235 592 OFFCURVE",
"261 567 OFFCURVE",
"297 567 CURVE SMOOTH"
);
},
{
closed = 1;
nodes = (
"274 591 OFFCURVE",
"259 605 OFFCURVE",
"259 627 CURVE SMOOTH",
"259 657 OFFCURVE",
"283 681 OFFCURVE",
"313 681 CURVE SMOOTH",
"335 681 OFFCURVE",
"350 667 OFFCURVE",
"350 645 CURVE SMOOTH",
"350 615 OFFCURVE",
"326 591 OFFCURVE",
"297 591 CURVE SMOOTH"
);
}
);
width = 497;
},
{
anchors = (
{
name = top;
position = "{363, 769}";
}
);
components = (
{
name = a;
}
);
layerId = "FCE02CC8-2979-430D-9DE0-31930C0E296D";
paths = (
{
closed = 1;
nodes = (
"419 533 OFFCURVE",
"487 602 OFFCURVE",
"487 686 CURVE SMOOTH",
"487 756 OFFCURVE",
"434 808 OFFCURVE",
"362 808 CURVE SMOOTH",
"280 808 OFFCURVE",
"211 738 OFFCURVE",
"211 655 CURVE SMOOTH",
"211 585 OFFCURVE",
"263 533 OFFCURVE",
"335 533 CURVE SMOOTH"
);
},
{
closed = 1;
nodes = (
"309 614 OFFCURVE",
"292 631 OFFCURVE",
"292 660 CURVE SMOOTH",
"292 697 OFFCURVE",
"322 727 OFFCURVE",
"358 727 CURVE SMOOTH",
"388 727 OFFCURVE",
"405 710 OFFCURVE",
"405 681 CURVE SMOOTH",
"405 644 OFFCURVE",
"377 614 OFFCURVE",
"339 614 CURVE SMOOTH"
);
}
);
width = 548;
}
);
leftKerningGroup = o;
rightKerningGroup = n;
unicode = 00E5;
},
{
color = 4;
glyphname = atilde;
layers = (
{
anchors = (
{
name = top;
position = "{314, 687}";
}
);
components = (
{
name = a;
}
);
layerId = "0E5388DE-A0E6-4EB4-BC9B-CE5870C9023F";
paths = (
{
closed = 1;
nodes = (
"239 641 LINE",
"345 612 LINE SMOOTH",
"371 605 OFFCURVE",
"381 612 OFFCURVE",
"439 680 CURVE",
"432 687 LINE",
"371 635 LINE",
"264 664 LINE SMOOTH",
"241 670 OFFCURVE",
"234 672 OFFCURVE",
"170 597 CURVE",
"177 589 LINE"
);
}
);
width = 497;
},
{
anchors = (
{
name = top;
position = "{370, 776}";
}
);
components = (
{
name = a;
}
);
layerId = "FCE02CC8-2979-430D-9DE0-31930C0E296D";
paths = (
{
closed = 1;
nodes = (
"259 619 LINE",
"380 586 LINE SMOOTH",
"425 574 OFFCURVE",
"454 571 OFFCURVE",
"548 738 CURVE",
"507 776 LINE",
"438 724 LINE",
"318 757 LINE SMOOTH",
"267 770 OFFCURVE",
"242 764 OFFCURVE",
"151 605 CURVE",
"190 567 LINE"
);
}
);
width = 548;
}
);
leftKerningGroup = o;
rightKerningGroup = n;
unicode = 00E3;
},
{
color = 4;
glyphname = ae;
layers = (
{
anchors = (
{
name = bottom;
position = "{306, 0}";
},
{
name = top;
position = "{402, 478}";
}
);
layerId = "0E5388DE-A0E6-4EB4-BC9B-CE5870C9023F";
paths = (
{
closed = 1;
nodes = (
"241 38 OFFCURVE",
"280 104 OFFCURVE",
"395 350 CURVE",
"379 357 LINE",
"264 115 OFFCURVE",
"220 44 OFFCURVE",
"160 11 CURVE",
"184 17 LINE",
"149 24 OFFCURVE",
"117 38 OFFCURVE",
"77 64 CURVE",
"106 40 LINE",
"29 204 OFFCURVE",
"118 437 OFFCURVE",
"272 473 CURVE",
"229 470 LINE",
"314 463 OFFCURVE",
"372 442 OFFCURVE",
"421 402 CURVE",
"433 415 LINE",
"403 457 OFFCURVE",
"341 486 OFFCURVE",
"281 486 CURVE SMOOTH",
"148 486 OFFCURVE",
"50 353 OFFCURVE",
"50 173 CURVE SMOOTH",
"50 47 OFFCURVE",
"101 -19 OFFCURVE",
"185 -2 CURVE"
);
},
{
closed = 1;
nodes = (
"546 -7 OFFCURVE",
"607 37 OFFCURVE",
"642 112 CURVE",
"632 118 LINE",
"568 26 OFFCURVE",
"486 1 OFFCURVE",
"396 48 CURVE",
"319 198 OFFCURVE",
"386 407 OFFCURVE",
"527 460 CURVE",
"560 458 OFFCURVE",
"584 448 OFFCURVE",
"623 432 CURVE",
"629 416 OFFCURVE",
"632 400 OFFCURVE",
"632 386 CURVE SMOOTH",
"632 304 OFFCURVE",
"544 253 OFFCURVE",
"351 224 CURVE",
"351 197 LINE",
"557 226 OFFCURVE",
"665 290 OFFCURVE",
"665 383 CURVE SMOOTH",
"665 440 OFFCURVE",
"616 485 OFFCURVE",
"554 485 CURVE SMOOTH",
"437 485 OFFCURVE",
"333 343 OFFCURVE",
"333 183 CURVE SMOOTH",
"333 68 OFFCURVE",
"390 -7 OFFCURVE",
"477 -7 CURVE SMOOTH"
);
}
);
width = 706;
},
{
anchors = (
{
name = bottom;
position = "{320, 0}";
},
{
name = top;
position = "{420, 495}";
}
);
layerId = "FCE02CC8-2979-430D-9DE0-31930C0E296D";
paths = (
{
closed = 1;
nodes = (
"231 52 OFFCURVE",
"297 159 OFFCURVE",
"360 327 CURVE",
"332 343 LINE",
"283 242 OFFCURVE",
"256 198 OFFCURVE",
"199 129 CURVE",
"227 147 LINE",
"202 147 OFFCURVE",
"190 150 OFFCURVE",
"175 159 CURVE",
"187 136 LINE",
"191 216 OFFCURVE",
"227 341 OFFCURVE",
"261 392 CURVE",
"196 380 LINE",
"256 381 OFFCURVE",
"314 374 OFFCURVE",
"368 361 CURVE",
"438 450 LINE",
"382 487 OFFCURVE",
"324 505 OFFCURVE",
"270 505 CURVE SMOOTH",
"125 505 OFFCURVE",
"4 378 OFFCURVE",
"4 182 CURVE SMOOTH",
"4 58 OFFCURVE",
"56 -7 OFFCURVE",
"154 -7 CURVE"
);
},
{
closed = 1;
nodes = (
"600 -14 OFFCURVE",
"689 51 OFFCURVE",
"719 151 CURVE",
"701 176 LINE",
"610 137 OFFCURVE",
"510 129 OFFCURVE",
"473 158 CURVE",
"473 266 OFFCURVE",
"486 329 OFFCURVE",
"521 383 CURVE",
"533 383 OFFCURVE",
"548 381 OFFCURVE",
"564 377 CURVE",
"565 369 OFFCURVE",
"565 363 OFFCURVE",
"565 356 CURVE SMOOTH",
"565 290 OFFCURVE",
"532 272 OFFCURVE",
"428 269 CURVE",
"428 203 LINE",
"597 180 OFFCURVE",
"741 253 OFFCURVE",
"741 364 CURVE SMOOTH",
"741 454 OFFCURVE",
"675 507 OFFCURVE",
"564 507 CURVE SMOOTH",
"406 507 OFFCURVE",
"292 384 OFFCURVE",
"292 214 CURVE SMOOTH",
"292 74 OFFCURVE",
"370 -14 OFFCURVE",
"495 -14 CURVE SMOOTH"
);
}
);
width = 740;
}
);
leftKerningGroup = o;
rightKerningGroup = e;
unicode = 00E6;
},
{
color = 4;
glyphname = b;
layers = (
{
anchors = (
{
name = bottom;
position = "{195, 0}";
},
{
name = top;
position = "{291, 478}";
}
);
layerId = "0E5388DE-A0E6-4EB4-BC9B-CE5870C9023F";
paths = (
{
closed = 1;
nodes = (
"337 -8 OFFCURVE",
"436 131 OFFCURVE",
"436 305 CURVE SMOOTH",
"436 431 OFFCURVE",
"386 496 OFFCURVE",
"301 480 CURVE",
"227 429 OFFCURVE",
"162 325 OFFCURVE",
"91 142 CURVE",
"105 130 LINE",
"171 310 OFFCURVE",
"247 426 OFFCURVE",
"326 466 CURVE",
"302 461 LINE",
"337 454 OFFCURVE",
"369 440 OFFCURVE",
"409 413 CURVE",
"380 437 LINE",
"456 288 OFFCURVE",
"372 52 OFFCURVE",
"228 10 CURVE",
"257 10 LINE",
"183 17 OFFCURVE",
"136 39 OFFCURVE",
"94 87 CURVE",
"85 67 LINE",
"115 17 OFFCURVE",
"158 -8 OFFCURVE",
"213 -8 CURVE SMOOTH"
);
},
{
closed = 1;
nodes = (
"55 0 LINE",
"72 19 OFFCURVE",
"81 35 OFFCURVE",
"95 71 CURVE",
"127 226 LINE",
"124 228 LINE",
"167 416 LINE",
"229 725 LINE",
"200 718 LINE",
"49 0 LINE"
);
},
{
closed = 1;
nodes = (
"229 725 LINE",
"190 725 OFFCURVE",
"156 720 OFFCURVE",
"106 708 CURVE",
"201 685 LINE"
);
}
);
width = 486;
},
{
anchors = (
{
name = bottom;
position = "{212, 0}";
},
{
name = top;
position = "{313, 495}";
}
);
layerId = "FCE02CC8-2979-430D-9DE0-31930C0E296D";
paths = (
{
closed = 1;
nodes = (
"409 -12 OFFCURVE",
"532 164 OFFCURVE",
"532 334 CURVE SMOOTH",
"532 450 OFFCURVE",
"476 500 OFFCURVE",
"365 500 CURVE",
"274 395 OFFCURVE",
"218 282 OFFCURVE",
"171 166 CURVE",
"199 137 LINE",
"235 222 OFFCURVE",
"280 299 OFFCURVE",
"336 368 CURVE",
"315 366 LINE",
"333 363 OFFCURVE",
"349 357 OFFCURVE",
"363 346 CURVE",
"357 362 LINE",
"344 264 OFFCURVE",
"319 171 OFFCURVE",
"281 81 CURVE",
"336 106 LINE",
"272 103 OFFCURVE",
"217 113 OFFCURVE",
"164 134 CURVE",
"132 87 LINE",
"147 28 OFFCURVE",
"204 -12 OFFCURVE",
"270 -12 CURVE SMOOTH"
);
},
{
closed = 1;
nodes = (
"24 0 LINE",
"92 12 OFFCURVE",
"150 39 OFFCURVE",
"197 82 CURVE",
"242 299 LINE",
"225 307 LINE",
"280 485 LINE",
"331 737 LINE",
"145 680 LINE",
"-12 0 LINE"
);
},
{
closed = 1;
nodes = (
"331 737 LINE",
"235 741 OFFCURVE",
"147 724 OFFCURVE",
"67 687 CURVE",
"132 560 LINE"
);
}
);
width = 530;
}
);
leftKerningGroup = h;
rightKerningGroup = o;
unicode = 0062;
},
{
color = 4;
glyphname = c;
layers = (
{
anchors = (
{
name = bottom;
position = "{183, 0}";
},
{
name = top;
position = "{252, 478}";
}
);
background = {
paths = (
{
closed = 1;
nodes = (
"257 -7 OFFCURVE",
"318 42 OFFCURVE",
"343 114 CURVE",
"333 120 LINE",
"275 21 OFFCURVE",
"201 0 OFFCURVE",
"100 54 CURVE",
"114 40 LINE",
"35 197 OFFCURVE",
"103 421 OFFCURVE",
"246 465 CURVE",
"228 463 LINE",
"279 460 OFFCURVE",
"325 442 OFFCURVE",
"361 429 CURVE",
"375 457 LINE",
"349 474 OFFCURVE",
"306 485 OFFCURVE",
"266 485 CURVE SMOOTH",
"146 485 OFFCURVE",
"49 356 OFFCURVE",
"49 196 CURVE SMOOTH",
"49 74 OFFCURVE",
"107 -7 OFFCURVE",
"193 -7 CURVE SMOOTH"
);
},
{
closed = 1;
nodes = (
"351 329 LINE",
"375 457 LINE",
"333 458 LINE",
"340 329 LINE"
);
}
);
};
layerId = "0E5388DE-A0E6-4EB4-BC9B-CE5870C9023F";
paths = (
{
closed = 1;
nodes = (
"257 -7 OFFCURVE",
"318 42 OFFCURVE",
"343 114 CURVE",
"333 120 LINE",
"296 56 OFFCURVE",
"252 25 OFFCURVE",
"198 25 CURVE SMOOTH",
"169 25 OFFCURVE",
"136 35 OFFCURVE",
"100 54 CURVE",
"114 40 LINE",
"39 187 OFFCURVE",
"97 420 OFFCURVE",
"246 465 CURVE",
"223 465 LINE",
"272 459 OFFCURVE",
"318 447 OFFCURVE",
"361 429 CURVE",
"375 457 LINE",
"349 474 OFFCURVE",
"306 485 OFFCURVE",
"266 485 CURVE SMOOTH",
"146 485 OFFCURVE",
"49 356 OFFCURVE",
"49 196 CURVE SMOOTH",
"49 74 OFFCURVE",
"107 -7 OFFCURVE",
"193 -7 CURVE SMOOTH"
);
},
{
closed = 1;
nodes = (
"351 329 LINE",
"375 457 LINE",
"333 458 LINE",
"340 329 LINE"
);
}
);
width = 410;
},
{
anchors = (
{
name = bottom;
position = "{179, 0}";
},
{
name = top;
position = "{269, 495}";
}
);
background = {
paths = (
{
closed = 1;
nodes = (
"302 -14 OFFCURVE",
"378 58 OFFCURVE",
"388 172 CURVE",
"360 186 LINE",
"292 127 OFFCURVE",
"150 121 OFFCURVE",
"187 205 CURVE",
"187 95 LINE",
"186 211 OFFCURVE",
"213 334 OFFCURVE",
"257 427 CURVE",
"164 375 LINE",
"250 377 OFFCURVE",
"292 372 OFFCURVE",
"366 342 CURVE",
"430 481 LINE",
"391 498 OFFCURVE",
"341 507 OFFCURVE",
"292 507 CURVE SMOOTH",
"120 507 OFFCURVE",
"4 387 OFFCURVE",
"4 208 CURVE SMOOTH",
"4 63 OFFCURVE",
"71 -14 OFFCURVE",
"196 -14 CURVE SMOOTH"
);
},
{
closed = 1;
nodes = (
"393 279 LINE",
"430 481 LINE",
"263 481 LINE",
"308 279 LINE"
);
}
);
};
layerId = "FCE02CC8-2979-430D-9DE0-31930C0E296D";
paths = (
{
closed = 1;
nodes = (
"302 -14 OFFCURVE",
"378 58 OFFCURVE",
"388 172 CURVE",
"360 186 LINE",
"324 157 OFFCURVE",
"278 142 OFFCURVE",
"241 142 CURVE SMOOTH",
"208 142 OFFCURVE",
"181 153 OFFCURVE",
"175 176 CURVE",
"187 95 LINE",
"186 211 OFFCURVE",
"213 334 OFFCURVE",
"257 427 CURVE",
"164 377 LINE",
"237 379 OFFCURVE",
"305 369 OFFCURVE",
"366 342 CURVE",
"430 481 LINE",
"391 498 OFFCURVE",
"341 507 OFFCURVE",
"292 507 CURVE SMOOTH",
"120 507 OFFCURVE",
"4 387 OFFCURVE",
"4 208 CURVE SMOOTH",
"4 63 OFFCURVE",
"71 -14 OFFCURVE",
"196 -14 CURVE SMOOTH"
);
},
{
closed = 1;
nodes = (
"393 279 LINE",
"430 481 LINE",
"263 481 LINE",
"308 279 LINE"
);
}
);
width = 424;
}
);
leftKerningGroup = o;
rightKerningGroup = c;
unicode = 0063;
},
{
color = 4;
glyphname = ccedilla;
layers = (
{
anchors = (
{
name = _bottom;
position = "{183, 0}";
},
{
name = bottom;
position = "{171, -206}";
}
);
components = (
{
name = c;
}
);
layerId = "0E5388DE-A0E6-4EB4-BC9B-CE5870C9023F";
paths = (
{
closed = 1;
nodes = (
"178 -223 OFFCURVE",
"257 -192 OFFCURVE",
"257 -129 CURVE SMOOTH",
"257 -95 OFFCURVE",
"229 -71 OFFCURVE",
"164 -49 CURVE",
"149 -72 LINE",
"210 -94 OFFCURVE",
"233 -111 OFFCURVE",
"233 -135 CURVE SMOOTH",
"233 -150 OFFCURVE",
"222 -170 OFFCURVE",
"207 -181 CURVE",
"99 -175 LINE",
"97 -192 LINE"
);
},
{
closed = 1;
nodes = (
"149 -72 LINE",
"171 -72 LINE",
"198 11 LINE",
"176 11 LINE"
);
}
);
width = 410;
},
{
anchors = (
{
name = _bottom;
position = "{179, 0}";
},
{
name = bottom;
position = "{166, -248}";
}
);
components = (
{
name = c;
}
);
layerId = "FCE02CC8-2979-430D-9DE0-31930C0E296D";
paths = (
{
closed = 1;
nodes = (
"203 -268 OFFCURVE",
"306 -223 OFFCURVE",
"306 -125 CURVE SMOOTH",
"306 -72 OFFCURVE",
"266 -41 OFFCURVE",
"163 -16 CURVE",
"108 -105 LINE",
"188 -135 OFFCURVE",
"205 -144 OFFCURVE",
"205 -154 CURVE SMOOTH",
"205 -156 OFFCURVE",
"204 -159 OFFCURVE",
"202 -161 CURVE",
"67 -138 LINE",
"54 -231 LINE"
);
},
{
closed = 1;
nodes = (
"108 -105 LINE",
"178 -105 LINE",
"225 18 LINE",
"152 18 LINE"
);
}
);
width = 424;
}
);
leftKerningGroup = o;
rightKerningGroup = c;
unicode = 00E7;
},
{
color = 4;
glyphname = d;
layers = (
{
anchors = (
{
name = bottom;
position = "{201, 0}";
},
{
name = center;
position = "{386, 568}";
},
{
name = top;
position = "{297, 478}";
},
{
name = topright;
position = "{578, 725}";
}
);
layerId = "0E5388DE-A0E6-4EB4-BC9B-CE5870C9023F";
paths = (
{
closed = 1;
nodes = (
"484 725 LINE",
"455 718 LINE",
"359 252 LINE",
"362 251 LINE",
"314 51 LINE",
"319 16 OFFCURVE",
"337 -5 OFFCURVE",
"363 -5 CURVE SMOOTH",
"391 -5 OFFCURVE",
"420 21 OFFCURVE",
"434 60 CURVE",
"401 44 OFFCURVE",
"367 36 OFFCURVE",
"333 36 CURVE",
"340 21 LINE"
);
},
{
closed = 1;
nodes = (
"264 55 OFFCURVE",
"330 164 OFFCURVE",
"399 350 CURVE",
"385 359 LINE",
"312 168 OFFCURVE",
"239 55 OFFCURVE",
"160 11 CURVE",
"184 16 LINE",
"144 23 OFFCURVE",
"113 42 OFFCURVE",
"77 63 CURVE",
"103 40 LINE",
"36 215 OFFCURVE",
"117 441 OFFCURVE",
"258 470 CURVE",
"232 472 LINE",
"302 462 OFFCURVE",
"358 438 OFFCURVE",
"398 400 CURVE",
"399 410 LINE",
"373 458 OFFCURVE",
"326 486 OFFCURVE",
"271 486 CURVE SMOOTH",
"149 486 OFFCURVE",
"50 345 OFFCURVE",
"50 170 CURVE SMOOTH",
"50 45 OFFCURVE",
"101 -19 OFFCURVE",
"185 -2 CURVE"
);
},
{
closed = 1;
nodes = (
"484 725 LINE",
"445 725 OFFCURVE",
"411 720 OFFCURVE",
"361 708 CURVE",
"456 685 LINE"
);
},
{
closed = 1;
nodes = (
"471 783 LINE",
"471 784 LINE",
"470 784 LINE"
);
}
);
width = 500;
},
{
anchors = (
{
name = bottom;
position = "{218, 0}";
},
{
name = center;
position = "{451, 578}";
},
{
name = top;
position = "{317, 495}";
},
{
name = topright;
position = "{676, 737}";
}
);
layerId = "FCE02CC8-2979-430D-9DE0-31930C0E296D";
paths = (
{
closed = 1;
nodes = (
"582 737 LINE",
"396 680 LINE",
"286 194 LINE",
"307 186 LINE",
"257 58 LINE",
"283 12 OFFCURVE",
"327 -9 OFFCURVE",
"372 -9 CURVE SMOOTH",
"443 -9 OFFCURVE",
"518 42 OFFCURVE",
"531 129 CURVE",
"488 132 OFFCURVE",
"451 131 OFFCURVE",
"406 125 CURVE",
"442 38 LINE"
);
},
{
closed = 1;
nodes = (
"255 98 OFFCURVE",
"312 211 OFFCURVE",
"359 327 CURVE",
"331 356 LINE",
"294 271 OFFCURVE",
"249 194 OFFCURVE",
"194 125 CURVE",
"215 127 LINE",
"197 129 OFFCURVE",
"180 136 OFFCURVE",
"166 147 CURVE",
"173 131 LINE",
"185 229 OFFCURVE",
"210 322 OFFCURVE",
"248 412 CURVE",
"194 388 LINE",
"252 390 OFFCURVE",
"303 385 OFFCURVE",
"351 373 CURVE",
"352 426 LINE",
"340 476 OFFCURVE",
"304 504 OFFCURVE",
"252 504 CURVE SMOOTH",
"124 504 OFFCURVE",
"-3 329 OFFCURVE",
"-3 159 CURVE SMOOTH",
"-3 43 OFFCURVE",
"54 -7 OFFCURVE",
"164 -7 CURVE"
);
},
{
closed = 1;
nodes = (
"582 737 LINE",
"488 741 OFFCURVE",
"400 725 OFFCURVE",
"318 687 CURVE",
"384 560 LINE"
);
},
{
closed = 1;
nodes = (
"490 751 LINE",
"490 752 LINE",
"489 752 LINE"
);
}
);
width = 546;
}
);
leftKerningGroup = o;
rightKerningGroup = d;
unicode = 0064;
},
{
color = 4;
glyphname = eth;
layers = (
{
layerId = "0E5388DE-A0E6-4EB4-BC9B-CE5870C9023F";
paths = (
{
closed = 1;
nodes = (
"317 -7 OFFCURVE",
"406 129 OFFCURVE",
"406 321 CURVE SMOOTH",
"406 484 OFFCURVE",
"349 619 OFFCURVE",
"232 733 CURVE",
"213 716 LINE",
"314 608 OFFCURVE",
"376 453 OFFCURVE",
"376 311 CURVE SMOOTH",
"376 166 OFFCURVE",
"313 51 OFFCURVE",
"214 16 CURVE",
"163 23 OFFCURVE",
"130 45 OFFCURVE",
"100 62 CURVE",
"41 211 OFFCURVE",
"112 413 OFFCURVE",
"239 455 CURVE",
"310 443 OFFCURVE",
"334 431 OFFCURVE",
"386 413 CURVE",
"386 425 LINE",
"365 455 OFFCURVE",
"312 478 OFFCURVE",
"266 478 CURVE SMOOTH",
"145 478 OFFCURVE",
"48 348 OFFCURVE",
"48 186 CURVE SMOOTH",
"48 67 OFFCURVE",
"102 -7 OFFCURVE",
"190 -7 CURVE SMOOTH"
);
},
{
closed = 1;
nodes = (
"434 633 LINE",
"427 655 LINE",
"163 567 LINE",
"170 545 LINE"
);
}
);
width = 465;
},
{
layerId = "FCE02CC8-2979-430D-9DE0-31930C0E296D";
paths = (
{
closed = 1;
nodes = (
"387 -14 OFFCURVE",
"485 142 OFFCURVE",
"485 319 CURVE SMOOTH",
"485 478 OFFCURVE",
"408 654 OFFCURVE",
"246 749 CURVE",
"159 705 LINE",
"252 602 OFFCURVE",
"299 479 OFFCURVE",
"299 350 CURVE SMOOTH",
"299 268 OFFCURVE",
"280 186 OFFCURVE",
"243 106 CURVE",
"230 105 OFFCURVE",
"215 109 OFFCURVE",
"187 118 CURVE",
"184 199 OFFCURVE",
"214 316 OFFCURVE",
"242 369 CURVE",
"286 363 OFFCURVE",
"328 351 OFFCURVE",
"376 332 CURVE",
"375 458 LINE",
"346 482 OFFCURVE",
"306 495 OFFCURVE",
"258 495 CURVE SMOOTH",
"110 495 OFFCURVE",
"3 382 OFFCURVE",
"3 205 CURVE SMOOTH",
"3 66 OFFCURVE",
"77 -14 OFFCURVE",
"206 -14 CURVE SMOOTH"
);
},
{
closed = 1;
nodes = (
"518 643 LINE",
"490 723 LINE",
"88 586 LINE",
"116 506 LINE"
);
}
);
width = 493;
}
);
leftKerningGroup = o;
unicode = 00F0;
},
{
color = 4;
glyphname = e;
layers = (
{
anchors = (
{
name = bottom;
position = "{176, 0}";
},
{
name = ogonek;
position = "{294, 10}";
},
{
name = top;
position = "{244, 470}";
}
);
background = {
paths = (
{
closed = 1;
nodes = (
"259 -7 OFFCURVE",
"320 37 OFFCURVE",
"355 112 CURVE",
"345 118 LINE",
"281 26 OFFCURVE",
"199 1 OFFCURVE",
"109 48 CURVE",
"32 198 OFFCURVE",
"99 407 OFFCURVE",
"240 460 CURVE",
"273 458 OFFCURVE",
"297 448 OFFCURVE",
"336 432 CURVE",
"342 416 OFFCURVE",
"345 400 OFFCURVE",
"345 386 CURVE SMOOTH",
"345 304 OFFCURVE",
"257 253 OFFCURVE",
"64 224 CURVE",
"64 197 LINE",
"270 226 OFFCURVE",
"378 290 OFFCURVE",
"378 383 CURVE SMOOTH",
"378 440 OFFCURVE",
"329 485 OFFCURVE",
"267 485 CURVE SMOOTH",
"150 485 OFFCURVE",
"46 343 OFFCURVE",
"46 183 CURVE SMOOTH",
"46 68 OFFCURVE",
"103 -7 OFFCURVE",
"190 -7 CURVE SMOOTH"
);
},
{
closed = 1;
nodes = (
"-21 217 LINE",
"0 330 LINE",
"-19 333 LINE",
"-37 303 OFFCURVE",
"-48 272 OFFCURVE",
"-48 246 CURVE SMOOTH",
"-48 216 OFFCURVE",
"-29 199 OFFCURVE",
"12 199 CURVE"
);
},
{
closed = 1;
nodes = (
"65 224 LINE",
"-35 220 LINE",
"12 199 LINE",
"65 199 LINE"
);
}
);
};
layerId = "0E5388DE-A0E6-4EB4-BC9B-CE5870C9023F";
paths = (
{
closed = 1;
nodes = (
"259 -7 OFFCURVE",
"320 37 OFFCURVE",
"355 112 CURVE",
"345 118 LINE",
"302 56 OFFCURVE",
"251 25 OFFCURVE",
"195 25 CURVE SMOOTH",
"165 25 OFFCURVE",
"133 34 OFFCURVE",
"100 53 CURVE",
"113 40 LINE",
"88 85 OFFCURVE",
"76 136 OFFCURVE",
"76 187 CURVE SMOOTH",
"76 308 OFFCURVE",
"143 428 OFFCURVE",
"248 463 CURVE",
"231 460 LINE",
"273 457 OFFCURVE",
"311 446 OFFCURVE",
"347 428 CURVE",
"332 441 LINE",
"341 422 OFFCURVE",
"345 403 OFFCURVE",
"345 386 CURVE SMOOTH",
"345 304 OFFCURVE",
"257 253 OFFCURVE",
"64 224 CURVE",
"64 197 LINE",
"270 226 OFFCURVE",
"378 290 OFFCURVE",
"378 383 CURVE SMOOTH",
"378 440 OFFCURVE",
"329 485 OFFCURVE",
"267 485 CURVE SMOOTH",
"150 485 OFFCURVE",
"46 343 OFFCURVE",
"46 183 CURVE SMOOTH",
"46 68 OFFCURVE",
"103 -7 OFFCURVE",
"190 -7 CURVE SMOOTH"
);
}
);
width = 419;
},
{
anchors = (
{
name = bottom;
position = "{183, 0}";
},
{
name = ogonek;
position = "{379, 10}";
},
{
name = top;
position = "{249, 494}";
}
);
background = {
paths = (
{
closed = 1;
nodes = (
"311 -14 OFFCURVE",
"399 51 OFFCURVE",
"430 151 CURVE",
"411 176 LINE",
"320 137 OFFCURVE",
"221 129 OFFCURVE",
"183 158 CURVE",
"183 280 OFFCURVE",
"199 339 OFFCURVE",
"242 397 CURVE",
"191 384 LINE",
"234 386 OFFCURVE",
"277 380 OFFCURVE",
"316 365 CURVE",
"264 414 LINE",
"271 398 OFFCURVE",
"275 376 OFFCURVE",
"275 356 CURVE SMOOTH",
"275 290 OFFCURVE",
"243 272 OFFCURVE",
"138 269 CURVE",
"138 203 LINE",
"308 180 OFFCURVE",
"452 253 OFFCURVE",
"452 364 CURVE SMOOTH",
"452 454 OFFCURVE",
"386 507 OFFCURVE",
"274 507 CURVE SMOOTH",
"116 507 OFFCURVE",
"2 384 OFFCURVE",
"2 214 CURVE SMOOTH",
"2 74 OFFCURVE",
"81 -14 OFFCURVE",
"205 -14 CURVE SMOOTH"
);
}
);
};
layerId = "FCE02CC8-2979-430D-9DE0-31930C0E296D";
paths = (
{
closed = 1;
nodes = (
"311 -14 OFFCURVE",
"399 51 OFFCURVE",
"430 151 CURVE",
"411 176 LINE",
"357 152 OFFCURVE",
"303 141 OFFCURVE",
"259 141 CURVE SMOOTH",
"211 141 OFFCURVE",
"174 154 OFFCURVE",
"157 181 CURVE",
"184 110 LINE",
"183 129 OFFCURVE",
"183 147 OFFCURVE",
"183 163 CURVE SMOOTH",
"183 282 OFFCURVE",
"199 339 OFFCURVE",
"242 397 CURVE",
"191 384 LINE",
"234 386 OFFCURVE",
"277 380 OFFCURVE",
"316 365 CURVE",
"264 414 LINE",
"271 398 OFFCURVE",
"275 376 OFFCURVE",
"275 356 CURVE SMOOTH",
"275 290 OFFCURVE",
"243 272 OFFCURVE",
"138 269 CURVE",
"138 203 LINE",
"308 180 OFFCURVE",
"452 253 OFFCURVE",
"452 364 CURVE SMOOTH",
"452 454 OFFCURVE",
"386 507 OFFCURVE",
"274 507 CURVE SMOOTH",
"116 507 OFFCURVE",
"2 384 OFFCURVE",
"2 214 CURVE SMOOTH",
"2 74 OFFCURVE",
"81 -14 OFFCURVE",
"205 -14 CURVE SMOOTH"
);
}
);
width = 451;
}
);
leftKerningGroup = o;
rightKerningGroup = e;
unicode = 0065;
},
{
color = 4;
glyphname = eacute;
layers = (
{
anchors = (
{
name = top;
position = "{289, 695}";
}
);
components = (
{
name = e;
}
);
layerId = "0E5388DE-A0E6-4EB4-BC9B-CE5870C9023F";
paths = (
{
closed = 1;
nodes = (
"270 594 OFFCURVE",
"325 632 OFFCURVE",
"380 673 CURVE",
"364 695 LINE",
"358 695 LINE",
"202 566 LINE",
"208 557 LINE"
);
}
);
width = 419;
},
{
anchors = (
{
name = top;
position = "{307, 788}";
}
);
components = (
{
name = e;
}
);
layerId = "FCE02CC8-2979-430D-9DE0-31930C0E296D";
paths = (
{
closed = 1;
nodes = (
"269 566 OFFCURVE",
"357 598 OFFCURVE",
"445 639 CURVE",
"374 780 LINE",
"348 780 LINE",
"138 609 LINE",
"178 539 LINE"
);
}
);
width = 451;
}
);
leftKerningGroup = o;
rightKerningGroup = e;
unicode = 00E9;
},
{
color = 4;
glyphname = edieresis;
layers = (
{
anchors = (
{
name = top;
position = "{282, 660}";
}
);
components = (
{
name = e;
}
);
layerId = "0E5388DE-A0E6-4EB4-BC9B-CE5870C9023F";
paths = (
{
closed = 1;
nodes = (
"206 657 OFFCURVE",
"193 649 OFFCURVE",
"181 637 CURVE",
"184 625 OFFCURVE",
"192 612 OFFCURVE",
"203 599 CURVE",
"217 601 OFFCURVE",
"232 609 OFFCURVE",
"242 620 CURVE",
"240 634 OFFCURVE",
"233 648 OFFCURVE",
"221 660 CURVE"
);
},
{
closed = 1;
nodes = (
"335 657 OFFCURVE",
"321 649 OFFCURVE",
"310 637 CURVE",
"314 622 OFFCURVE",
"322 609 OFFCURVE",
"333 599 CURVE",
"346 601 OFFCURVE",
"359 608 OFFCURVE",
"371 620 CURVE",
"369 634 OFFCURVE",
"362 647 OFFCURVE",
"351 660 CURVE"
);
}
);
width = 419;
},
{
anchors = (
{
name = top;
position = "{305, 774}";
}
);
components = (
{
name = e;
}
);
layerId = "FCE02CC8-2979-430D-9DE0-31930C0E296D";
paths = (
{
closed = 1;
nodes = (
"147 765 OFFCURVE",
"97 735 OFFCURVE",
"62 698 CURVE",
"71 643 OFFCURVE",
"102 591 OFFCURVE",
"141 559 CURVE",
"192 566 OFFCURVE",
"245 598 OFFCURVE",
"278 638 CURVE",
"270 689 OFFCURVE",
"240 738 OFFCURVE",
"200 774 CURVE"
);
},
{
closed = 1;
nodes = (
"374 765 OFFCURVE",
"324 735 OFFCURVE",
"288 698 CURVE",
"297 643 OFFCURVE",
"328 591 OFFCURVE",
"367 559 CURVE",
"419 566 OFFCURVE",
"471 598 OFFCURVE",
"504 638 CURVE",
"496 689 OFFCURVE",
"465 738 OFFCURVE",
"425 774 CURVE"
);
}
);
width = 451;
}
);
leftKerningGroup = o;
rightKerningGroup = e;
unicode = 00EB;
},
{
color = 4;
glyphname = egrave;
layers = (
{
anchors = (
{
name = top;
position = "{289, 695}";
}
);
components = (
{
name = e;
}
);
layerId = "0E5388DE-A0E6-4EB4-BC9B-CE5870C9023F";
paths = (
{
closed = 1;
nodes = (
"346 566 LINE",
"190 695 LINE",
"184 695 LINE",
"168 673 LINE",
"223 632 OFFCURVE",
"278 594 OFFCURVE",
"340 557 CURVE"
);
}
);
width = 419;
},
{
anchors = (
{
name = top;
position = "{307, 788}";
}
);
components = (
{
name = e;
}
);
layerId = "FCE02CC8-2979-430D-9DE0-31930C0E296D";
paths = (
{
closed = 1;
nodes = (
"423 609 LINE",
"213 780 LINE",
"187 780 LINE",
"116 639 LINE",
"203 598 OFFCURVE",
"292 566 OFFCURVE",
"383 539 CURVE"
);
}
);
width = 451;
}
);
leftKerningGroup = o;
rightKerningGroup = e;
unicode = 00E8;
},
{
color = 4;
glyphname = f;
layers = (
{
layerId = "0E5388DE-A0E6-4EB4-BC9B-CE5870C9023F";
rightMetricsKey = "=-32";
paths = (
{
closed = 1;
nodes = (
"39 -208 OFFCURVE",
"80 -155 OFFCURVE",
"103 -12 CURVE SMOOTH",
"181 475 LINE",
"200 618 OFFCURVE",
"205 642 OFFCURVE",
"226 686 CURVE",
"281 692 OFFCURVE",
"340 694 OFFCURVE",
"401 692 CURVE",
"387 716 OFFCURVE",
"352 732 OFFCURVE",
"312 732 CURVE SMOOTH",
"241 732 OFFCURVE",
"184 684 OFFCURVE",
"173 615 CURVE SMOOTH",
"74 -10 LINE SMOOTH",
"62 -84 OFFCURVE",
"54 -117 OFFCURVE",
"37 -162 CURVE",
"-22 -165 OFFCURVE",
"-75 -167 OFFCURVE",
"-135 -167 CURVE",
"-123 -190 OFFCURVE",
"-84 -208 OFFCURVE",
"-47 -208 CURVE SMOOTH"
);
},
{
closed = 1;
nodes = (
"339 452 LINE",
"344 478 LINE",
"154 478 LINE SMOOTH",
"116 478 OFFCURVE",
"85 472 OFFCURVE",
"57 459 CURVE",
"56 452 LINE"
);
}
);
width = 278;
},
{
layerId = "FCE02CC8-2979-430D-9DE0-31930C0E296D";
rightMetricsKey = "=-46";
paths = (
{
closed = 1;
nodes = (
"104 -197 OFFCURVE",
"192 -46 OFFCURVE",
"232 218 CURVE SMOOTH",
"272 482 LINE",
"266 528 OFFCURVE",
"264 557 OFFCURVE",
"265 580 CURVE",
"319 583 OFFCURVE",
"366 583 OFFCURVE",
"423 580 CURVE",
"452 673 OFFCURVE",
"400 746 OFFCURVE",
"306 746 CURVE SMOOTH",
"208 746 OFFCURVE",
"118 666 OFFCURVE",
"105 566 CURVE SMOOTH",
"58 197 LINE SMOOTH",
"50 126 OFFCURVE",
"45 84 OFFCURVE",
"39 -30 CURVE",
"-14 -34 OFFCURVE",
"-66 -34 OFFCURVE",
"-124 -30 CURVE",
"-156 -125 OFFCURVE",
"-108 -197 OFFCURVE",
"-22 -197 CURVE SMOOTH"
);
},
{
closed = 1;
nodes = (
"356 384 LINE",
"376 488 LINE",
"100 488 LINE",
"67 478 OFFCURVE",
"38 463 OFFCURVE",
"9 443 CURVE",
"-4 384 LINE"
);
}
);
width = 312;
}
);
leftKerningGroup = f;
rightKerningGroup = f;
unicode = 0066;
},
{
color = 4;
glyphname = g;
layers = (
{
anchors = (
{
name = bottom;
position = "{175, -195}";
},
{
name = top;
position = "{260, 478}";
}
);
layerId = "0E5388DE-A0E6-4EB4-BC9B-CE5870C9023F";
leftMetricsKey = "=38";
rightMetricsKey = "=7";
paths = (
{
closed = 1;
nodes = (
"301 -201 OFFCURVE",
"394 -144 OFFCURVE",
"394 -68 CURVE SMOOTH",
"394 -22 OFFCURVE",
"361 13 OFFCURVE",
"300 33 CURVE SMOOTH",
"191 69 LINE",
"192 170 LINE",
"171 152 OFFCURVE",
"159 126 OFFCURVE",
"159 101 CURVE SMOOTH",
"159 79 OFFCURVE",
"168 57 OFFCURVE",
"186 38 CURVE",
"336 -12 LINE",
"402 -91 OFFCURVE",
"323 -176 OFFCURVE",
"183 -176 CURVE SMOOTH",
"41 -176 OFFCURVE",
"-28 -97 OFFCURVE",
"29 1 CURVE",
"14 -2 OFFCURVE",
"16 -2 OFFCURVE",
"-10 -19 CURVE",
"-55 -119 OFFCURVE",
"30 -201 OFFCURVE",
"178 -201 CURVE SMOOTH"
);
},
{
closed = 1;
nodes = (
"309 157 OFFCURVE",
"393 239 OFFCURVE",
"393 335 CURVE SMOOTH",
"393 419 OFFCURVE",
"335 478 OFFCURVE",
"254 478 CURVE SMOOTH",
"153 478 OFFCURVE",
"67 396 OFFCURVE",
"67 298 CURVE SMOOTH",
"67 215 OFFCURVE",
"126 157 OFFCURVE",
"210 157 CURVE SMOOTH"
);
},
{
closed = 1;
nodes = (
"208 178 OFFCURVE",
"176 186 OFFCURVE",
"125 205 CURVE",
"68 297 OFFCURVE",
"117 419 OFFCURVE",
"227 458 CURVE",
"266 454 OFFCURVE",
"301 442 OFFCURVE",
"336 431 CURVE",
"392 340 OFFCURVE",
"342 216 OFFCURVE",
"233 177 CURVE"
);
},
{
closed = 1;
nodes = (
"331 462 LINE",
"433 445 LINE",
"442 478 LINE",
"254 478 LINE",
"323 441 LINE"
);
}
);
width = 464;
},
{
anchors = (
{
name = bottom;
position = "{198, -188}";
},
{
name = top;
position = "{296, 495}";
}
);
layerId = "FCE02CC8-2979-430D-9DE0-31930C0E296D";
leftMetricsKey = "=-2";
rightMetricsKey = "=-6";
paths = (
{
closed = 1;
nodes = (
"370 -199 OFFCURVE",
"502 -122 OFFCURVE",
"502 -22 CURVE SMOOTH",
"502 34 OFFCURVE",
"464 69 OFFCURVE",
"389 86 CURVE SMOOTH",
"226 124 LINE",
"226 171 LINE",
"152 174 OFFCURVE",
"104 123 OFFCURVE",
"104 65 CURVE SMOOTH",
"104 37 OFFCURVE",
"116 8 OFFCURVE",
"143 -17 CURVE",
"318 -60 LINE",
"318 -82 OFFCURVE",
"283 -98 OFFCURVE",
"236 -98 CURVE SMOOTH",
"155 -98 OFFCURVE",
"106 -51 OFFCURVE",
"101 32 CURVE",
"33 15 OFFCURVE",
"-21 -20 OFFCURVE",
"-68 -81 CURVE",
"-31 -153 OFFCURVE",
"72 -199 OFFCURVE",
"199 -199 CURVE SMOOTH"
);
},
{
closed = 1;
nodes = (
"383 144 OFFCURVE",
"488 222 OFFCURVE",
"488 332 CURVE SMOOTH",
"488 431 OFFCURVE",
"404 495 OFFCURVE",
"274 495 CURVE SMOOTH",
"128 495 OFFCURVE",
"20 414 OFFCURVE",
"20 303 CURVE SMOOTH",
"20 206 OFFCURVE",
"104 144 OFFCURVE",
"235 144 CURVE SMOOTH"
);
},
{
closed = 1;
nodes = (
"249 231 OFFCURVE",
"230 232 OFFCURVE",
"211 235 CURVE",
"209 292 OFFCURVE",
"219 346 OFFCURVE",
"240 399 CURVE",
"264 400 OFFCURVE",
"282 399 OFFCURVE",
"298 395 CURVE",
"301 339 OFFCURVE",
"291 286 OFFCURVE",
"268 232 CURVE"
);
},
{
closed = 1;
nodes = (
"483 389 LINE",
"551 372 LINE",
"573 495 LINE",
"274 495 LINE",
"459 349 LINE"
);
}
);
width = 552;
}
);
leftKerningGroup = g;
rightKerningGroup = g;
unicode = 0067;
},
{
color = 4;
glyphname = h;
layers = (
{
anchors = (
{
name = bottom;
position = "{213, 0}";
},
{
name = center;
position = "{234, 568}";
},
{
name = top;
position = "{205, 695}";
}
);
layerId = "0E5388DE-A0E6-4EB4-BC9B-CE5870C9023F";
paths = (
{
closed = 1;
nodes = (
"184 310 OFFCURVE",
"274 431 OFFCURVE",
"350 464 CURVE",
"334 465 LINE",
"369 448 OFFCURVE",
"388 434 OFFCURVE",
"422 400 CURVE",
"424 422 LINE",
"331 51 LINE",
"336 16 OFFCURVE",
"354 -5 OFFCURVE",
"380 -5 CURVE SMOOTH",
"408 -5 OFFCURVE",
"437 21 OFFCURVE",
"451 60 CURVE",
"424 47 OFFCURVE",
"395 39 OFFCURVE",
"360 36 CURVE",
"439 373 LINE SMOOTH",
"452 428 OFFCURVE",
"409 480 OFFCURVE",
"349 480 CURVE SMOOTH",
"341 480 OFFCURVE",
"331 478 OFFCURVE",
"317 475 CURVE",
"241 424 OFFCURVE",
"168 319 OFFCURVE",
"98 159 CURVE",
"109 141 LINE"
);
},
{
closed = 1;
nodes = (
"84 0 LINE",
"131 226 LINE",
"128 228 LINE",
"171 416 LINE",
"233 725 LINE",
"204 718 LINE",
"53 0 LINE"
);
},
{
closed = 1;
nodes = (
"233 725 LINE",
"194 725 OFFCURVE",
"160 720 OFFCURVE",
"110 708 CURVE",
"205 685 LINE"
);
}
);
width = 514;
},
{
anchors = (
{
name = bottom;
position = "{231, 0}";
},
{
name = center;
position = "{227, 578}";
},
{
name = top;
position = "{222, 709}";
}
);
layerId = "FCE02CC8-2979-430D-9DE0-31930C0E296D";
paths = (
{
closed = 1;
nodes = (
"215 175 OFFCURVE",
"267 270 OFFCURVE",
"340 363 CURVE",
"309 352 LINE",
"331 348 OFFCURVE",
"346 339 OFFCURVE",
"361 325 CURVE",
"345 348 LINE",
"269 58 LINE",
"294 12 OFFCURVE",
"339 -9 OFFCURVE",
"385 -9 CURVE SMOOTH",
"457 -9 OFFCURVE",
"533 42 OFFCURVE",
"548 129 CURVE",
"526 131 OFFCURVE",
"514 130 OFFCURVE",
"480 129 CURVE",
"531 350 LINE SMOOTH",
"553 444 OFFCURVE",
"510 500 OFFCURVE",
"418 500 CURVE SMOOTH",
"406 500 OFFCURVE",
"393 499 OFFCURVE",
"380 497 CURVE",
"316 448 OFFCURVE",
"220 283 OFFCURVE",
"160 121 CURVE",
"174 50 LINE"
);
},
{
closed = 1;
nodes = (
"183 0 LINE",
"236 270 LINE",
"220 277 LINE",
"280 485 LINE",
"330 737 LINE",
"144 680 LINE",
"-12 0 LINE"
);
},
{
closed = 1;
nodes = (
"330 737 LINE",
"236 741 OFFCURVE",
"148 725 OFFCURVE",
"66 687 CURVE",
"131 560 LINE"
);
}
);
width = 561;
}
);
leftKerningGroup = h;
rightKerningGroup = n;
unicode = 0068;
},
{
color = 4;
glyphname = i;
layers = (
{
anchors = (
{
name = bottom;
position = "{99, 0}";
},
{
name = ogonek;
position = "{181, 10}";
},
{
name = top;
position = "{150, 478}";
}
);
layerId = "0E5388DE-A0E6-4EB4-BC9B-CE5870C9023F";
paths = (
{
closed = 1;
nodes = (
"180 437 LINE",
"171 466 OFFCURVE",
"152 483 OFFCURVE",
"129 483 CURVE SMOOTH",
"101 483 OFFCURVE",
"75 460 OFFCURVE",
"63 424 CURVE",
"92 436 OFFCURVE",
"118 439 OFFCURVE",
"163 437 CURVE",
"156 456 LINE",
"70 51 LINE",
"75 16 OFFCURVE",
"93 -5 OFFCURVE",
"119 -5 CURVE SMOOTH",
"147 -5 OFFCURVE",
"176 21 OFFCURVE",
"190 60 CURVE",
"159 44 OFFCURVE",
"125 36 OFFCURVE",
"88 36 CURVE",
"96 19 LINE"
);
},
{
closed = 1;
nodes = (
"176 668 OFFCURVE",
"160 659 OFFCURVE",
"149 646 CURVE",
"153 631 OFFCURVE",
"162 616 OFFCURVE",
"174 605 CURVE",
"189 607 OFFCURVE",
"205 616 OFFCURVE",
"215 628 CURVE",
"213 643 OFFCURVE",
"204 660 OFFCURVE",
"192 671 CURVE"
);
}
);
width = 251;
},
{
anchors = (
{
name = bottom;
position = "{112, 0}";
},
{
name = ogonek;
position = "{228, 10}";
},
{
name = top;
position = "{194, 495}";
}
);
layerId = "FCE02CC8-2979-430D-9DE0-31930C0E296D";
paths = (
{
closed = 1;
nodes = (
"286 434 LINE",
"260 480 OFFCURVE",
"217 502 OFFCURVE",
"171 502 CURVE SMOOTH",
"99 502 OFFCURVE",
"22 449 OFFCURVE",
"9 363 CURVE",
"51 361 OFFCURVE",
"88 363 OFFCURVE",
"134 368 CURVE",
"109 456 LINE",
"17 58 LINE",
"43 12 OFFCURVE",
"87 -10 OFFCURVE",
"132 -10 CURVE SMOOTH",
"205 -10 OFFCURVE",
"282 43 OFFCURVE",
"296 129 CURVE",
"255 131 OFFCURVE",
"216 130 OFFCURVE",
"168 125 CURVE",
"207 40 LINE"
);
},
{
closed = 1;
nodes = (
"203 784 OFFCURVE",
"144 748 OFFCURVE",
"103 705 CURVE",
"114 642 OFFCURVE",
"150 580 OFFCURVE",
"195 544 CURVE",
"256 551 OFFCURVE",
"317 589 OFFCURVE",
"355 635 CURVE",
"346 695 OFFCURVE",
"310 753 OFFCURVE",
"264 794 CURVE"
);
}
);
width = 306;
}
);
leftKerningGroup = i;
rightKerningGroup = i;
unicode = 0069;
},
{
color = 4;
glyphname = iacute;
layers = (
{
anchors = (
{
name = bottom;
position = "{99, 0}";
},
{
name = ogonek;
position = "{181, 10}";
},
{
name = top;
position = "{150, 478}";
}
);
layerId = "0E5388DE-A0E6-4EB4-BC9B-CE5870C9023F";
paths = (
{
closed = 1;
nodes = (
"180 437 LINE",
"171 466 OFFCURVE",
"152 483 OFFCURVE",
"129 483 CURVE SMOOTH",
"101 483 OFFCURVE",
"75 460 OFFCURVE",
"63 424 CURVE",
"92 436 OFFCURVE",
"118 439 OFFCURVE",
"163 437 CURVE",
"156 456 LINE",
"70 51 LINE",
"75 16 OFFCURVE",
"93 -5 OFFCURVE",
"119 -5 CURVE SMOOTH",
"147 -5 OFFCURVE",
"176 21 OFFCURVE",
"190 60 CURVE",
"159 44 OFFCURVE",
"125 36 OFFCURVE",
"88 36 CURVE",
"96 19 LINE"
);
},
{
closed = 1;
nodes = (
"176 602 OFFCURVE",
"231 640 OFFCURVE",
"286 681 CURVE",
"270 703 LINE",
"264 703 LINE",
"108 574 LINE",
"114 565 LINE"
);
}
);
width = 251;
},
{
anchors = (
{
name = bottom;
position = "{112, 0}";
},
{
name = ogonek;
position = "{228, 10}";
},
{
name = top;
position = "{194, 495}";
}
);
layerId = "FCE02CC8-2979-430D-9DE0-31930C0E296D";
paths = (
{
closed = 1;
nodes = (
"286 434 LINE",
"260 480 OFFCURVE",
"217 502 OFFCURVE",
"171 502 CURVE SMOOTH",
"99 502 OFFCURVE",
"22 449 OFFCURVE",
"9 363 CURVE",
"51 361 OFFCURVE",
"88 363 OFFCURVE",
"134 368 CURVE",
"109 456 LINE",
"17 58 LINE",
"43 12 OFFCURVE",
"87 -10 OFFCURVE",
"132 -10 CURVE SMOOTH",
"205 -10 OFFCURVE",
"282 43 OFFCURVE",
"296 129 CURVE",
"255 131 OFFCURVE",
"216 130 OFFCURVE",
"168 125 CURVE",
"207 40 LINE"
);
},
{
closed = 1;
nodes = (
"214 567 OFFCURVE",
"302 599 OFFCURVE",
"390 640 CURVE",
"319 781 LINE",
"293 781 LINE",
"83 610 LINE",
"123 540 LINE"
);
}
);
width = 306;
}
);
leftKerningGroup = n;
rightKerningGroup = i;
unicode = 00ED;
},
{
color = 4;
glyphname = idieresis;
layers = (
{
anchors = (
{
name = bottom;
position = "{99, 0}";
},
{
name = ogonek;
position = "{181, 10}";
},
{
name = top;
position = "{150, 478}";
}
);
layerId = "0E5388DE-A0E6-4EB4-BC9B-CE5870C9023F";
paths = (
{
closed = 1;
nodes = (
"180 437 LINE",
"171 466 OFFCURVE",
"152 483 OFFCURVE",
"129 483 CURVE SMOOTH",
"101 483 OFFCURVE",
"75 460 OFFCURVE",
"63 424 CURVE",
"92 436 OFFCURVE",
"118 439 OFFCURVE",
"163 437 CURVE",
"156 456 LINE",
"70 51 LINE",
"75 16 OFFCURVE",
"93 -5 OFFCURVE",
"119 -5 CURVE SMOOTH",
"147 -5 OFFCURVE",
"176 21 OFFCURVE",
"190 60 CURVE",
"159 44 OFFCURVE",
"125 36 OFFCURVE",
"88 36 CURVE",
"96 19 LINE"
);
},
{
closed = 1;
nodes = (
"112 665 OFFCURVE",
"99 657 OFFCURVE",
"87 645 CURVE",
"90 633 OFFCURVE",
"98 620 OFFCURVE",
"109 607 CURVE",
"123 609 OFFCURVE",
"138 617 OFFCURVE",
"148 628 CURVE",
"146 642 OFFCURVE",
"139 656 OFFCURVE",
"127 668 CURVE"
);
},
{
closed = 1;
nodes = (
"241 665 OFFCURVE",
"227 657 OFFCURVE",
"216 645 CURVE",
"220 630 OFFCURVE",
"228 617 OFFCURVE",
"239 607 CURVE",
"252 609 OFFCURVE",
"265 616 OFFCURVE",
"277 628 CURVE",
"275 642 OFFCURVE",
"268 655 OFFCURVE",
"257 668 CURVE"
);
}
);
width = 251;
},
{
anchors = (
{
name = bottom;
position = "{112, 0}";
},
{
name = ogonek;
position = "{228, 10}";
},
{
name = top;
position = "{194, 495}";
}
);
layerId = "FCE02CC8-2979-430D-9DE0-31930C0E296D";
paths = (
{
closed = 1;
nodes = (
"286 434 LINE",
"260 480 OFFCURVE",
"217 502 OFFCURVE",
"171 502 CURVE SMOOTH",
"99 502 OFFCURVE",
"22 449 OFFCURVE",
"9 363 CURVE",
"51 361 OFFCURVE",
"88 363 OFFCURVE",
"134 368 CURVE",
"109 456 LINE",
"17 58 LINE",
"43 12 OFFCURVE",
"87 -10 OFFCURVE",
"132 -10 CURVE SMOOTH",
"205 -10 OFFCURVE",
"282 43 OFFCURVE",
"296 129 CURVE",
"255 131 OFFCURVE",
"216 130 OFFCURVE",
"168 125 CURVE",
"207 40 LINE"
);
},
{
closed = 1;
nodes = (
"92 766 OFFCURVE",
"42 736 OFFCURVE",
"7 699 CURVE",
"16 644 OFFCURVE",
"47 592 OFFCURVE",
"86 560 CURVE",
"137 567 OFFCURVE",
"190 599 OFFCURVE",
"223 639 CURVE",
"215 690 OFFCURVE",
"185 739 OFFCURVE",
"145 775 CURVE"
);
},
{
closed = 1;
nodes = (
"319 766 OFFCURVE",
"269 736 OFFCURVE",
"233 699 CURVE",
"242 644 OFFCURVE",
"273 592 OFFCURVE",
"312 560 CURVE",
"364 567 OFFCURVE",
"416 599 OFFCURVE",
"449 639 CURVE",
"441 690 OFFCURVE",
"410 739 OFFCURVE",
"370 775 CURVE"
);
}
);
width = 306;
}
);
leftKerningGroup = n;
rightKerningGroup = i;
unicode = 00EF;
},
{
color = 4;
glyphname = igrave;
layers = (
{
anchors = (
{
name = bottom;
position = "{99, 0}";
},
{
name = ogonek;
position = "{181, 10}";
},
{
name = top;
position = "{150, 478}";
}
);
layerId = "0E5388DE-A0E6-4EB4-BC9B-CE5870C9023F";
paths = (
{
closed = 1;
nodes = (
"180 437 LINE",
"171 466 OFFCURVE",
"152 483 OFFCURVE",
"129 483 CURVE SMOOTH",
"101 483 OFFCURVE",
"75 460 OFFCURVE",
"63 424 CURVE",
"92 436 OFFCURVE",
"118 439 OFFCURVE",
"163 437 CURVE",
"156 456 LINE",
"70 51 LINE",
"75 16 OFFCURVE",
"93 -5 OFFCURVE",
"119 -5 CURVE SMOOTH",
"147 -5 OFFCURVE",
"176 21 OFFCURVE",
"190 60 CURVE",
"159 44 OFFCURVE",
"125 36 OFFCURVE",
"88 36 CURVE",
"96 19 LINE"
);
},
{
closed = 1;
nodes = (
"252 574 LINE",
"96 703 LINE",
"90 703 LINE",
"74 681 LINE",
"129 640 OFFCURVE",
"184 602 OFFCURVE",
"246 565 CURVE"
);
}
);
width = 251;
},
{
anchors = (
{
name = bottom;
position = "{112, 0}";
},
{
name = ogonek;
position = "{228, 10}";
},
{
name = top;
position = "{194, 495}";
}
);
layerId = "FCE02CC8-2979-430D-9DE0-31930C0E296D";
paths = (
{
closed = 1;
nodes = (
"286 434 LINE",
"260 480 OFFCURVE",
"217 502 OFFCURVE",
"171 502 CURVE SMOOTH",
"99 502 OFFCURVE",
"22 449 OFFCURVE",
"9 363 CURVE",
"51 361 OFFCURVE",
"88 363 OFFCURVE",
"134 368 CURVE",
"109 456 LINE",
"17 58 LINE",
"43 12 OFFCURVE",
"87 -10 OFFCURVE",
"132 -10 CURVE SMOOTH",
"205 -10 OFFCURVE",
"282 43 OFFCURVE",
"296 129 CURVE",
"255 131 OFFCURVE",
"216 130 OFFCURVE",
"168 125 CURVE",
"207 40 LINE"
);
},
{
closed = 1;
nodes = (
"368 610 LINE",
"158 781 LINE",
"132 781 LINE",
"61 640 LINE",
"148 599 OFFCURVE",
"237 567 OFFCURVE",
"328 540 CURVE"
);
}
);
width = 306;
}
);
leftKerningGroup = n;
rightKerningGroup = i;
unicode = 00EC;
},
{
color = 4;
glyphname = j;
layers = (
{
anchors = (
{
name = bottom;
position = "{31, -195}";
},
{
name = top;
position = "{148, 478}";
}
);
layerId = "0E5388DE-A0E6-4EB4-BC9B-CE5870C9023F";
paths = (
{
closed = 1;
nodes = (
"177 437 LINE",
"169 466 OFFCURVE",
"150 483 OFFCURVE",
"126 483 CURVE SMOOTH",
"99 483 OFFCURVE",
"72 459 OFFCURVE",
"60 424 CURVE",
"87 435 OFFCURVE",
"126 440 OFFCURVE",
"160 437 CURVE"
);
},
{
closed = 1;
nodes = (
"151 454 LINE",
"62 -69 LINE SMOOTH",
"54 -117 OFFCURVE",
"51 -126 OFFCURVE",
"29 -164 CURVE",
"-21 -169 OFFCURVE",
"-83 -167 OFFCURVE",
"-122 -167 CURVE",
"-109 -192 OFFCURVE",
"-79 -208 OFFCURVE",
"-43 -208 CURVE SMOOTH",
"27 -208 OFFCURVE",
"78 -156 OFFCURVE",
"92 -71 CURVE SMOOTH",
"177 437 LINE"
);
},
{
closed = 1;
nodes = (
"174 668 OFFCURVE",
"158 659 OFFCURVE",
"147 646 CURVE",
"151 631 OFFCURVE",
"160 616 OFFCURVE",
"172 605 CURVE",
"187 607 OFFCURVE",
"203 616 OFFCURVE",
"213 628 CURVE",
"211 643 OFFCURVE",
"202 660 OFFCURVE",
"190 671 CURVE"
);
}
);
width = 235;
},
{
anchors = (
{
name = bottom;
position = "{56, -188}";
},
{
name = top;
position = "{191, 495}";
}
);
layerId = "FCE02CC8-2979-430D-9DE0-31930C0E296D";
paths = (
{
closed = 1;
nodes = (
"282 434 LINE",
"256 480 OFFCURVE",
"212 502 OFFCURVE",
"167 502 CURVE SMOOTH",
"95 502 OFFCURVE",
"18 449 OFFCURVE",
"5 363 CURVE",
"53 360 OFFCURVE",
"94 363 OFFCURVE",
"151 371 CURVE"
);
},
{
closed = 1;
nodes = (
"100 422 LINE",
"55 214 LINE SMOOTH",
"40 149 OFFCURVE",
"29 63 OFFCURVE",
"27 -30 CURVE",
"-27 -34 OFFCURVE",
"-81 -34 OFFCURVE",
"-138 -30 CURVE",
"-160 -123 OFFCURVE",
"-101 -197 OFFCURVE",
"-1 -197 CURVE SMOOTH",
"113 -197 OFFCURVE",
"183 -98 OFFCURVE",
"217 83 CURVE SMOOTH",
"282 434 LINE"
);
},
{
closed = 1;
nodes = (
"200 784 OFFCURVE",
"141 748 OFFCURVE",
"100 705 CURVE",
"111 642 OFFCURVE",
"147 580 OFFCURVE",
"192 544 CURVE",
"253 551 OFFCURVE",
"314 589 OFFCURVE",
"352 635 CURVE",
"343 695 OFFCURVE",
"307 753 OFFCURVE",
"261 794 CURVE"
);
}
);
width = 287;
}
);
leftKerningGroup = j;
rightKerningGroup = j;
unicode = 006A;
},
{
color = 4;
glyphname = k;
layers = (
{
anchors = (
{
name = bottom;
position = "{187, 0}";
},
{
name = top;
position = "{219, 725}";
}
);
layerId = "0E5388DE-A0E6-4EB4-BC9B-CE5870C9023F";
paths = (
{
closed = 1;
nodes = (
"80 0 LINE",
"226 725 LINE",
"197 718 LINE",
"47 0 LINE"
);
},
{
closed = 1;
nodes = (
"324 1 OFFCURVE",
"334 -2 OFFCURVE",
"342 -2 CURVE SMOOTH",
"368 -2 OFFCURVE",
"387 19 OFFCURVE",
"394 54 CURVE",
"375 44 OFFCURVE",
"355 39 OFFCURVE",
"333 39 CURVE SMOOTH",
"324 39 OFFCURVE",
"321 39 OFFCURVE",
"318 40 CURVE",
"343 20 LINE",
"175 275 LINE",
"150 262 LINE",
"315 6 LINE"
);
},
{
closed = 1;
nodes = (
"174 256 LINE",
"276 369 OFFCURVE",
"318 407 OFFCURVE",
"381 448 CURVE",
"354 437 LINE",
"413 426 LINE",
"426 483 LINE",
"424 484 OFFCURVE",
"422 484 OFFCURVE",
"415 484 CURVE SMOOTH",
"365 484 OFFCURVE",
"292 423 OFFCURVE",
"150 262 CURVE"
);
},
{
closed = 1;
nodes = (
"226 725 LINE",
"173 725 OFFCURVE",
"137 720 OFFCURVE",
"103 708 CURVE",
"198 685 LINE"
);
}
);
width = 449;
},
{
anchors = (
{
name = bottom;
position = "{246, 0}";
},
{
name = top;
position = "{384, 737}";
}
);
layerId = "FCE02CC8-2979-430D-9DE0-31930C0E296D";
paths = (
{
closed = 1;
nodes = (
"182 0 LINE",
"330 737 LINE",
"144 680 LINE",
"-12 0 LINE"
);
},
{
closed = 1;
nodes = (
"318 9 OFFCURVE",
"360 -11 OFFCURVE",
"399 -11 CURVE SMOOTH",
"466 -11 OFFCURVE",
"530 43 OFFCURVE",
"534 131 CURVE",
"512 132 OFFCURVE",
"496 132 OFFCURVE",
"481 132 CURVE SMOOTH",
"446 132 OFFCURVE",
"433 130 OFFCURVE",
"410 127 CURVE",
"488 66 LINE",
"365 340 LINE",
"231 235 LINE",
"288 49 LINE"
);
},
{
closed = 1;
nodes = (
"305 226 LINE",
"344 289 OFFCURVE",
"387 343 OFFCURVE",
"430 387 CURVE",
"324 344 LINE",
"526 269 LINE",
"573 495 LINE",
"553 497 OFFCURVE",
"536 499 OFFCURVE",
"519 499 CURVE SMOOTH",
"408 499 OFFCURVE",
"352 442 OFFCURVE",
"231 235 CURVE"
);
},
{
closed = 1;
nodes = (
"330 737 LINE",
"234 741 OFFCURVE",
"146 724 OFFCURVE",
"66 687 CURVE",
"131 560 LINE"
);
}
);
width = 568;
}
);
leftKerningGroup = h;
rightKerningGroup = x;
unicode = 006B;
},
{
color = 4;
glyphname = l;
layers = (
{
anchors = (
{
name = bottom;
position = "{101, 0}";
},
{
name = center;
position = "{147, 363}";
},
{
name = top;
position = "{206, 680}";
},
{
name = topright;
position = "{322, 725}";
}
);
layerId = "0E5388DE-A0E6-4EB4-BC9B-CE5870C9023F";
paths = (
{
closed = 1;
nodes = (
"227 725 LINE",
"182 725 OFFCURVE",
"138 719 OFFCURVE",
"104 708 CURVE",
"199 685 LINE"
);
},
{
closed = 1;
nodes = (
"227 725 LINE",
"198 718 LINE",
"59 51 LINE",
"64 16 OFFCURVE",
"82 -5 OFFCURVE",
"108 -5 CURVE SMOOTH",
"136 -5 OFFCURVE",
"165 21 OFFCURVE",
"179 60 CURVE",
"148 44 OFFCURVE",
"114 36 OFFCURVE",
"77 36 CURVE",
"85 19 LINE"
);
}
);
width = 244;
},
{
anchors = (
{
name = bottom;
position = "{105, 0}";
},
{
name = center;
position = "{169, 369}";
},
{
name = top;
position = "{233, 710}";
},
{
name = topright;
position = "{425, 737}";
}
);
layerId = "FCE02CC8-2979-430D-9DE0-31930C0E296D";
paths = (
{
closed = 1;
nodes = (
"325 737 LINE",
"231 741 OFFCURVE",
"142 726 OFFCURVE",
"61 687 CURVE",
"127 560 LINE"
);
},
{
closed = 1;
nodes = (
"325 737 LINE",
"139 680 LINE",
"-4 58 LINE",
"22 12 OFFCURVE",
"66 -10 OFFCURVE",
"111 -10 CURVE SMOOTH",
"184 -10 OFFCURVE",
"261 43 OFFCURVE",
"275 129 CURVE",
"234 131 OFFCURVE",
"195 130 OFFCURVE",
"147 125 CURVE",
"186 40 LINE"
);
}
);
width = 289;
}
);
leftKerningGroup = h;
rightKerningGroup = l;
unicode = 006C;
},
{
color = 4;
glyphname = m;
layers = (
{
anchors = (
{
name = bottom;
position = "{358, 0}";
},
{
name = top;
position = "{454, 478}";
}
);
layerId = "0E5388DE-A0E6-4EB4-BC9B-CE5870C9023F";
paths = (
{
closed = 1;
nodes = (
"467 310 OFFCURVE",
"557 431 OFFCURVE",
"633 464 CURVE",
"617 465 LINE",
"652 448 OFFCURVE",
"671 434 OFFCURVE",
"705 400 CURVE",
"707 422 LINE",
"614 51 LINE",
"619 16 OFFCURVE",
"637 -5 OFFCURVE",
"663 -5 CURVE SMOOTH",
"691 -5 OFFCURVE",
"720 21 OFFCURVE",
"734 60 CURVE",
"707 47 OFFCURVE",
"678 39 OFFCURVE",
"643 36 CURVE",
"722 373 LINE SMOOTH",
"735 428 OFFCURVE",
"692 480 OFFCURVE",
"632 480 CURVE SMOOTH",
"624 480 OFFCURVE",
"614 478 OFFCURVE",
"600 475 CURVE",
"524 424 OFFCURVE",
"451 319 OFFCURVE",
"381 159 CURVE",
"392 141 LINE"
);
},
{
closed = 1;
nodes = (
"95 0 LINE",
"140 226 LINE",
"137 227 LINE",
"184 437 LINE",
"175 466 OFFCURVE",
"156 483 OFFCURVE",
"132 483 CURVE SMOOTH",
"105 483 OFFCURVE",
"78 459 OFFCURVE",
"66 424 CURVE",
"98 436 OFFCURVE",
"128 440 OFFCURVE",
"166 437 CURVE",
"159 456 LINE",
"62 0 LINE"
);
},
{
closed = 1;
nodes = (
"369 0 LINE",
"414 226 LINE",
"411 227 LINE",
"442 366 LINE SMOOTH",
"455 433 OFFCURVE",
"421 480 OFFCURVE",
"359 480 CURVE SMOOTH",
"352 480 OFFCURVE",
"344 479 OFFCURVE",
"326 475 CURVE",
"250 424 OFFCURVE",
"177 319 OFFCURVE",
"107 159 CURVE",
"118 141 LINE",
"193 310 OFFCURVE",
"283 431 OFFCURVE",
"359 464 CURVE",
"343 465 LINE",
"378 448 OFFCURVE",
"397 434 OFFCURVE",
"431 400 CURVE",
"428 432 LINE",
"336 0 LINE"
);
}
);
width = 797;
},
{
anchors = (
{
name = bottom;
position = "{379, 0}";
},
{
name = top;
position = "{479, 495}";
}
);
layerId = "FCE02CC8-2979-430D-9DE0-31930C0E296D";
paths = (
{
closed = 1;
nodes = (
"508 171 OFFCURVE",
"560 267 OFFCURVE",
"636 363 CURVE",
"604 352 LINE",
"625 348 OFFCURVE",
"641 340 OFFCURVE",
"656 325 CURVE",
"641 348 LINE",
"564 58 LINE",
"590 12 OFFCURVE",
"634 -9 OFFCURVE",
"680 -9 CURVE SMOOTH",
"753 -9 OFFCURVE",
"829 42 OFFCURVE",
"843 129 CURVE",
"822 131 OFFCURVE",
"809 130 OFFCURVE",
"775 129 CURVE",
"827 350 LINE SMOOTH",
"849 444 OFFCURVE",
"806 500 OFFCURVE",
"713 500 CURVE SMOOTH",
"701 500 OFFCURVE",
"689 499 OFFCURVE",
"675 497 CURVE",
"611 448 OFFCURVE",
"515 284 OFFCURVE",
"456 121 CURVE",
"469 50 LINE"
);
},
{
closed = 1;
nodes = (
"203 0 LINE",
"256 270 LINE",
"237 277 LINE",
"290 434 LINE",
"264 480 OFFCURVE",
"220 501 OFFCURVE",
"174 501 CURVE SMOOTH",
"102 501 OFFCURVE",
"26 450 OFFCURVE",
"12 363 CURVE",
"86 361 OFFCURVE",
"111 362 OFFCURVE",
"138 368 CURVE",
"113 456 LINE",
"8 0 LINE"
);
},
{
closed = 1;
nodes = (
"479 0 LINE",
"531 270 LINE",
"512 277 LINE",
"542 363 LINE SMOOTH",
"570 443 OFFCURVE",
"523 501 OFFCURVE",
"439 501 CURVE SMOOTH",
"427 501 OFFCURVE",
"413 500 OFFCURVE",
"400 497 CURVE",
"336 448 OFFCURVE",
"240 284 OFFCURVE",
"180 121 CURVE",
"194 50 LINE",
"231 167 OFFCURVE",
"283 263 OFFCURVE",
"361 363 CURVE",
"329 352 LINE",
"350 348 OFFCURVE",
"365 340 OFFCURVE",
"381 325 CURVE",
"365 348 LINE",
"283 0 LINE"
);
}
);
width = 856;
}
);
leftKerningGroup = n;
rightKerningGroup = n;
unicode = 006D;
},
{
color = 4;
glyphname = n;
layers = (
{
anchors = (
{
name = bottom;
position = "{221, 0}";
},
{
name = top;
position = "{310, 478}";
}
);
layerId = "0E5388DE-A0E6-4EB4-BC9B-CE5870C9023F";
paths = (
{
closed = 1;
nodes = (
"345 16 OFFCURVE",
"363 -5 OFFCURVE",
"389 -5 CURVE SMOOTH",
"417 -5 OFFCURVE",
"446 21 OFFCURVE",
"460 60 CURVE",
"433 47 OFFCURVE",
"404 39 OFFCURVE",
"369 36 CURVE",
"448 373 LINE SMOOTH",
"461 428 OFFCURVE",
"418 480 OFFCURVE",
"358 480 CURVE SMOOTH",
"350 480 OFFCURVE",
"340 478 OFFCURVE",
"326 475 CURVE",
"250 424 OFFCURVE",
"177 319 OFFCURVE",
"107 159 CURVE",
"118 141 LINE",
"193 310 OFFCURVE",
"283 431 OFFCURVE",
"359 464 CURVE",
"343 465 LINE",
"378 448 OFFCURVE",
"397 434 OFFCURVE",
"431 400 CURVE",
"433 422 LINE",
"340 51 LINE"
);
},
{
closed = 1;
nodes = (
"95 0 LINE",
"140 226 LINE",
"137 227 LINE",
"184 437 LINE",
"175 466 OFFCURVE",
"156 483 OFFCURVE",
"132 483 CURVE SMOOTH",
"105 483 OFFCURVE",
"78 459 OFFCURVE",
"66 424 CURVE",
"98 436 OFFCURVE",
"128 440 OFFCURVE",
"166 437 CURVE",
"159 456 LINE",
"62 0 LINE"
);
}
);
width = 523;
},
{
anchors = (
{
name = bottom;
position = "{250, 0}";
},
{
name = top;
position = "{340, 495}";
}
);
layerId = "FCE02CC8-2979-430D-9DE0-31930C0E296D";
paths = (
{
closed = 1;
nodes = (
"315 12 OFFCURVE",
"359 -9 OFFCURVE",
"405 -9 CURVE SMOOTH",
"478 -9 OFFCURVE",
"553 42 OFFCURVE",
"568 129 CURVE",
"547 131 OFFCURVE",
"534 130 OFFCURVE",
"500 129 CURVE",
"551 350 LINE SMOOTH",
"573 444 OFFCURVE",
"530 500 OFFCURVE",
"438 500 CURVE SMOOTH",
"426 500 OFFCURVE",
"413 499 OFFCURVE",
"400 497 CURVE",
"336 448 OFFCURVE",
"240 283 OFFCURVE",
"180 121 CURVE",
"194 50 LINE",
"235 175 OFFCURVE",
"287 270 OFFCURVE",
"361 363 CURVE",
"329 352 LINE",
"351 348 OFFCURVE",
"366 339 OFFCURVE",
"381 325 CURVE",
"365 348 LINE",
"289 58 LINE"
);
},
{
closed = 1;
nodes = (
"203 0 LINE",
"256 270 LINE",
"237 277 LINE",
"290 434 LINE",
"264 480 OFFCURVE",
"220 501 OFFCURVE",
"174 501 CURVE SMOOTH",
"102 501 OFFCURVE",
"26 450 OFFCURVE",
"12 363 CURVE",
"86 361 OFFCURVE",
"111 362 OFFCURVE",
"138 368 CURVE",
"113 456 LINE",
"8 0 LINE"
);
}
);
width = 581;
}
);
leftKerningGroup = n;
rightKerningGroup = n;
unicode = 006E;
},
{
color = 4;
glyphname = ntilde;
layers = (
{
anchors = (
{
name = top;
position = "{351, 687}";
}
);
components = (
{
name = n;
}
);
layerId = "0E5388DE-A0E6-4EB4-BC9B-CE5870C9023F";
paths = (
{
closed = 1;
nodes = (
"276 641 LINE",
"382 612 LINE SMOOTH",
"408 605 OFFCURVE",
"418 612 OFFCURVE",
"476 680 CURVE",
"469 687 LINE",
"408 635 LINE",
"301 664 LINE SMOOTH",
"278 670 OFFCURVE",
"271 672 OFFCURVE",
"207 597 CURVE",
"214 589 LINE"
);
}
);
width = 523;
},
{
anchors = (
{
name = top;
position = "{396, 775}";
}
);
components = (
{
name = n;
}
);
layerId = "FCE02CC8-2979-430D-9DE0-31930C0E296D";
paths = (
{
closed = 1;
nodes = (
"285 618 LINE",
"406 585 LINE SMOOTH",
"451 573 OFFCURVE",
"480 570 OFFCURVE",
"574 737 CURVE",
"533 775 LINE",
"464 723 LINE",
"344 756 LINE SMOOTH",
"293 769 OFFCURVE",
"268 763 OFFCURVE",
"177 604 CURVE",
"216 566 LINE"
);
}
);
width = 581;
}
);
leftKerningGroup = n;
rightKerningGroup = n;
unicode = 00F1;
},
{
color = 4;
glyphname = o;
layers = (
{
anchors = (
{
name = bottom;
position = "{181, 0}";
},
{
name = center;
position = "{229, 239}";
},
{
name = ogonek;
position = "{293, 10}";
},
{
name = top;
position = "{267, 478}";
},
{
name = topright;
position = "{487, 478}";
}
);
layerId = "0E5388DE-A0E6-4EB4-BC9B-CE5870C9023F";
paths = (
{
closed = 1;
nodes = (
"310 -7 OFFCURVE",
"409 129 OFFCURVE",
"409 293 CURVE SMOOTH",
"409 412 OFFCURVE",
"355 485 OFFCURVE",
"268 485 CURVE SMOOTH",
"148 485 OFFCURVE",
"49 349 OFFCURVE",
"49 185 CURVE SMOOTH",
"49 67 OFFCURVE",
"103 -7 OFFCURVE",
"191 -7 CURVE SMOOTH"
);
},
{
closed = 1;
nodes = (
"174 23 OFFCURVE",
"134 39 OFFCURVE",
"101 62 CURVE",
"41 211 OFFCURVE",
"113 415 OFFCURVE",
"241 462 CURVE",
"282 456 OFFCURVE",
"321 441 OFFCURVE",
"357 417 CURVE",
"416 262 OFFCURVE",
"345 60 OFFCURVE",
"216 16 CURVE"
);
}
);
width = 458;
},
{
anchors = (
{
name = bottom;
position = "{194, 0}";
},
{
name = center;
position = "{244, 247}";
},
{
name = ogonek;
position = "{390, 10}";
},
{
name = top;
position = "{284, 495}";
},
{
name = topright;
position = "{518, 495}";
}
);
layerId = "FCE02CC8-2979-430D-9DE0-31930C0E296D";
paths = (
{
closed = 1;
nodes = (
"366 -14 OFFCURVE",
"484 114 OFFCURVE",
"484 292 CURVE SMOOTH",
"484 430 OFFCURVE",
"410 507 OFFCURVE",
"281 507 CURVE SMOOTH",
"119 507 OFFCURVE",
"3 382 OFFCURVE",
"3 204 CURVE SMOOTH",
"3 66 OFFCURVE",
"78 -14 OFFCURVE",
"204 -14 CURVE SMOOTH"
);
},
{
closed = 1;
nodes = (
"222 107 OFFCURVE",
"204 110 OFFCURVE",
"187 118 CURVE",
"184 199 OFFCURVE",
"212 328 OFFCURVE",
"243 382 CURVE",
"263 381 OFFCURVE",
"282 376 OFFCURVE",
"300 369 CURVE",
"304 288 OFFCURVE",
"273 158 OFFCURVE",
"244 106 CURVE"
);
}
);
width = 487;
}
);
leftKerningGroup = o;
rightKerningGroup = o;
unicode = 006F;
},
{
color = 4;
glyphname = oacute;
layers = (
{
anchors = (
{
name = top;
position = "{312, 703}";
}
);
components = (
{
name = o;
}
);
layerId = "0E5388DE-A0E6-4EB4-BC9B-CE5870C9023F";
paths = (
{
closed = 1;
nodes = (
"293 602 OFFCURVE",
"348 640 OFFCURVE",
"403 681 CURVE",
"387 703 LINE",
"381 703 LINE",
"225 574 LINE",
"231 565 LINE"
);
}
);
width = 458;
},
{
anchors = (
{
name = top;
position = "{342, 789}";
}
);
components = (
{
name = o;
}
);
layerId = "FCE02CC8-2979-430D-9DE0-31930C0E296D";
paths = (
{
closed = 1;
nodes = (
"304 567 OFFCURVE",
"392 599 OFFCURVE",
"480 640 CURVE",
"409 781 LINE",
"383 781 LINE",
"173 610 LINE",
"213 540 LINE"
);
}
);
width = 487;
}
);
leftKerningGroup = o;
rightKerningGroup = o;
unicode = 00F3;
},
{
color = 4;
glyphname = odieresis;
layers = (
{
anchors = (
{
name = top;
position = "{305, 668}";
}
);
components = (
{
name = o;
}
);
layerId = "0E5388DE-A0E6-4EB4-BC9B-CE5870C9023F";
paths = (
{
closed = 1;
nodes = (
"229 665 OFFCURVE",
"216 657 OFFCURVE",
"204 645 CURVE",
"207 633 OFFCURVE",
"215 620 OFFCURVE",
"226 607 CURVE",
"240 609 OFFCURVE",
"255 617 OFFCURVE",
"265 628 CURVE",
"263 642 OFFCURVE",
"256 656 OFFCURVE",
"244 668 CURVE"
);
},
{
closed = 1;
nodes = (
"358 665 OFFCURVE",
"344 657 OFFCURVE",
"333 645 CURVE",
"337 630 OFFCURVE",
"345 617 OFFCURVE",
"356 607 CURVE",
"369 609 OFFCURVE",
"382 616 OFFCURVE",
"394 628 CURVE",
"392 642 OFFCURVE",
"385 655 OFFCURVE",
"374 668 CURVE"
);
}
);
width = 458;
},
{
anchors = (
{
name = top;
position = "{340, 775}";
}
);
components = (
{
name = o;
}
);
layerId = "FCE02CC8-2979-430D-9DE0-31930C0E296D";
paths = (
{
closed = 1;
nodes = (
"182 766 OFFCURVE",
"132 736 OFFCURVE",
"97 699 CURVE",
"106 644 OFFCURVE",
"137 592 OFFCURVE",
"176 560 CURVE",
"227 567 OFFCURVE",
"280 599 OFFCURVE",
"313 639 CURVE",
"305 690 OFFCURVE",
"275 739 OFFCURVE",
"235 775 CURVE"
);
},
{
closed = 1;
nodes = (
"409 766 OFFCURVE",
"359 736 OFFCURVE",
"323 699 CURVE",
"332 644 OFFCURVE",
"363 592 OFFCURVE",
"402 560 CURVE",
"454 567 OFFCURVE",
"506 599 OFFCURVE",
"539 639 CURVE",
"531 690 OFFCURVE",
"500 739 OFFCURVE",
"460 775 CURVE"
);
}
);
width = 487;
}
);
leftKerningGroup = o;
rightKerningGroup = o;
unicode = 00F6;
},
{
color = 4;
glyphname = ograve;
layers = (
{
anchors = (
{
name = top;
position = "{312, 703}";
}
);
components = (
{
name = o;
}
);
layerId = "0E5388DE-A0E6-4EB4-BC9B-CE5870C9023F";
paths = (
{
closed = 1;
nodes = (
"369 574 LINE",
"213 703 LINE",
"207 703 LINE",
"191 681 LINE",
"246 640 OFFCURVE",
"301 602 OFFCURVE",
"363 565 CURVE"
);
}
);
width = 458;
},
{
anchors = (
{
name = top;
position = "{342, 789}";
}
);
components = (
{
name = o;
}
);
layerId = "FCE02CC8-2979-430D-9DE0-31930C0E296D";
paths = (
{
closed = 1;
nodes = (
"458 610 LINE",
"248 781 LINE",
"222 781 LINE",
"151 640 LINE",
"238 599 OFFCURVE",
"327 567 OFFCURVE",
"418 540 CURVE"
);
}
);
width = 487;
}
);
leftKerningGroup = o;
rightKerningGroup = o;
unicode = 00F2;
},
{
color = 4;
glyphname = oslash;
layers = (
{
anchors = (
{
name = bottom;
position = "{188, 0}";
},
{
name = center;
position = "{238, 239}";
},
{
name = ogonek;
position = "{370, 10}";
},
{
name = top;
position = "{258, 478}";
},
{
name = topright;
position = "{497, 478}";
}
);
layerId = "0E5388DE-A0E6-4EB4-BC9B-CE5870C9023F";
paths = (
{
closed = 1;
nodes = (
"112 42 LINE",
"36 -100 LINE",
"59 -111 LINE",
"135 30 LINE"
);
},
{
closed = 1;
nodes = (
"321 -7 OFFCURVE",
"421 127 OFFCURVE",
"421 290 CURVE SMOOTH",
"421 410 OFFCURVE",
"365 485 OFFCURVE",
"276 485 CURVE SMOOTH",
"154 485 OFFCURVE",
"53 350 OFFCURVE",
"53 187 CURVE SMOOTH",
"53 68 OFFCURVE",
"109 -7 OFFCURVE",
"199 -7 CURVE SMOOTH"
);
},
{
closed = 1;
nodes = (
"174 22 OFFCURVE",
"147 39 OFFCURVE",
"104 61 CURVE",
"89 96 OFFCURVE",
"81 137 OFFCURVE",
"81 180 CURVE SMOOTH",
"81 309 OFFCURVE",
"152 429 OFFCURVE",
"248 463 CURVE",
"293 458 OFFCURVE",
"322 441 OFFCURVE",
"369 417 CURVE",
"384 379 OFFCURVE",
"392 338 OFFCURVE",
"392 295 CURVE SMOOTH",
"392 165 OFFCURVE",
"321 46 OFFCURVE",
"225 15 CURVE"
);
},
{
closed = 1;
nodes = (
"356 439 LINE",
"432 580 LINE",
"408 593 LINE",
"332 452 LINE"
);
},
{
closed = 1;
nodes = (
"135 30 LINE",
"356 439 LINE",
"332 452 LINE",
"112 42 LINE"
);
}
);
width = 473;
},
{
anchors = (
{
name = bottom;
position = "{199, 0}";
},
{
name = center;
position = "{249, 248}";
},
{
name = ogonek;
position = "{414, 10}";
},
{
name = top;
position = "{281, 515}";
},
{
name = topright;
position = "{547, 495}";
}
);
layerId = "FCE02CC8-2979-430D-9DE0-31930C0E296D";
paths = (
{
closed = 1;
nodes = (
"119 91 LINE",
"40 -69 LINE",
"131 -110 LINE",
"209 49 LINE"
);
},
{
closed = 1;
nodes = (
"379 -14 OFFCURVE",
"500 112 OFFCURVE",
"500 288 CURVE SMOOTH",
"500 428 OFFCURVE",
"422 507 OFFCURVE",
"287 507 CURVE SMOOTH",
"121 507 OFFCURVE",
"1 384 OFFCURVE",
"1 208 CURVE SMOOTH",
"1 66 OFFCURVE",
"82 -14 OFFCURVE",
"212 -14 CURVE SMOOTH"
);
},
{
closed = 1;
nodes = (
"234 105 OFFCURVE",
"217 109 OFFCURVE",
"188 118 CURVE",
"187 127 OFFCURVE",
"187 135 OFFCURVE",
"187 145 CURVE SMOOTH",
"187 223 OFFCURVE",
"213 331 OFFCURVE",
"248 382 CURVE",
"267 382 OFFCURVE",
"286 378 OFFCURVE",
"314 369 CURVE",
"315 361 OFFCURVE",
"315 352 OFFCURVE",
"315 342 CURVE SMOOTH",
"315 262 OFFCURVE",
"283 152 OFFCURVE",
"251 106 CURVE"
);
},
{
closed = 1;
nodes = (
"386 410 LINE",
"466 572 LINE",
"375 612 LINE",
"299 458 LINE"
);
},
{
closed = 1;
nodes = (
"209 49 LINE",
"386 410 LINE",
"299 458 LINE",
"119 91 LINE"
);
}
);
width = 502;
}
);
leftKerningGroup = o;
rightKerningGroup = o;
unicode = 00F8;
},
{
color = 4;
glyphname = otilde;
layers = (
{
anchors = (
{
name = top;
position = "{308, 687}";
}
);
components = (
{
name = o;
}
);
layerId = "0E5388DE-A0E6-4EB4-BC9B-CE5870C9023F";
paths = (
{
closed = 1;
nodes = (
"233 641 LINE",
"339 612 LINE SMOOTH",
"365 605 OFFCURVE",
"375 612 OFFCURVE",
"433 680 CURVE",
"426 687 LINE",
"365 635 LINE",
"258 664 LINE SMOOTH",
"235 670 OFFCURVE",
"228 672 OFFCURVE",
"164 597 CURVE",
"171 589 LINE"
);
}
);
width = 458;
},
{
anchors = (
{
name = top;
position = "{340, 775}";
}
);
components = (
{
name = o;
}
);
layerId = "FCE02CC8-2979-430D-9DE0-31930C0E296D";
paths = (
{
closed = 1;
nodes = (
"229 618 LINE",
"350 585 LINE SMOOTH",
"395 573 OFFCURVE",
"424 570 OFFCURVE",
"518 737 CURVE",
"477 775 LINE",
"408 723 LINE",
"288 756 LINE SMOOTH",
"237 769 OFFCURVE",
"212 763 OFFCURVE",
"121 604 CURVE",
"160 566 LINE"
);
}
);
width = 487;
}
);
leftKerningGroup = o;
rightKerningGroup = o;
unicode = 00F5;
},
{
color = 4;
glyphname = oe;
layers = (
{
anchors = (
{
name = bottom;
position = "{324, 0}";
},
{
name = top;
position = "{420, 478}";
}
);
layerId = "0E5388DE-A0E6-4EB4-BC9B-CE5870C9023F";
paths = (
{
closed = 1;
nodes = (
"306 -7 OFFCURVE",
"405 131 OFFCURVE",
"405 296 CURVE SMOOTH",
"405 414 OFFCURVE",
"353 485 OFFCURVE",
"268 485 CURVE SMOOTH",
"148 485 OFFCURVE",
"49 349 OFFCURVE",
"49 186 CURVE SMOOTH",
"49 67 OFFCURVE",
"103 -7 OFFCURVE",
"189 -7 CURVE SMOOTH"
);
},
{
closed = 1;
nodes = (
"169 22 OFFCURVE",
"137 42 OFFCURVE",
"101 62 CURVE",
"41 212 OFFCURVE",
"112 416 OFFCURVE",
"241 462 CURVE",
"276 458 OFFCURVE",
"284 455 OFFCURVE",
"357 417 CURVE",
"416 263 OFFCURVE",
"345 60 OFFCURVE",
"216 16 CURVE"
);
},
{
closed = 1;
nodes = (
"586 -7 OFFCURVE",
"647 37 OFFCURVE",
"682 112 CURVE",
"672 118 LINE",
"608 26 OFFCURVE",
"526 1 OFFCURVE",
"436 48 CURVE",
"359 198 OFFCURVE",
"426 407 OFFCURVE",
"567 460 CURVE",
"600 458 OFFCURVE",
"624 448 OFFCURVE",
"663 432 CURVE",
"669 416 OFFCURVE",
"672 400 OFFCURVE",
"672 386 CURVE SMOOTH",
"672 304 OFFCURVE",
"584 253 OFFCURVE",
"391 224 CURVE",
"391 197 LINE",
"597 226 OFFCURVE",
"705 290 OFFCURVE",
"705 383 CURVE SMOOTH",
"705 440 OFFCURVE",
"656 485 OFFCURVE",
"594 485 CURVE SMOOTH",
"477 485 OFFCURVE",
"373 343 OFFCURVE",
"373 183 CURVE SMOOTH",
"373 68 OFFCURVE",
"430 -7 OFFCURVE",
"517 -7 CURVE SMOOTH"
);
}
);
width = 747;
},
{
anchors = (
{
name = bottom;
position = "{320, 0}";
},
{
name = top;
position = "{420, 495}";
}
);
layerId = "FCE02CC8-2979-430D-9DE0-31930C0E296D";
paths = (
{
closed = 1;
nodes = (
"341 -14 OFFCURVE",
"449 113 OFFCURVE",
"449 291 CURVE SMOOTH",
"449 430 OFFCURVE",
"383 507 OFFCURVE",
"265 507 CURVE SMOOTH",
"114 507 OFFCURVE",
"5 381 OFFCURVE",
"5 206 CURVE SMOOTH",
"5 67 OFFCURVE",
"75 -14 OFFCURVE",
"194 -14 CURVE SMOOTH"
);
},
{
closed = 1;
nodes = (
"232 105 OFFCURVE",
"217 108 OFFCURVE",
"189 118 CURVE",
"186 195 OFFCURVE",
"214 324 OFFCURVE",
"245 382 CURVE",
"260 382 OFFCURVE",
"278 378 OFFCURVE",
"302 369 CURVE",
"306 296 OFFCURVE",
"277 165 OFFCURVE",
"246 106 CURVE"
);
},
{
closed = 1;
nodes = (
"598 -14 OFFCURVE",
"687 51 OFFCURVE",
"717 151 CURVE",
"699 176 LINE",
"608 137 OFFCURVE",
"508 129 OFFCURVE",
"471 158 CURVE",
"471 266 OFFCURVE",
"484 329 OFFCURVE",
"519 383 CURVE",
"531 383 OFFCURVE",
"546 381 OFFCURVE",
"562 377 CURVE",
"563 369 OFFCURVE",
"563 363 OFFCURVE",
"563 356 CURVE SMOOTH",
"563 290 OFFCURVE",
"530 272 OFFCURVE",
"426 269 CURVE",
"426 203 LINE",
"596 180 OFFCURVE",
"739 253 OFFCURVE",
"739 364 CURVE SMOOTH",
"739 454 OFFCURVE",
"673 507 OFFCURVE",
"562 507 CURVE SMOOTH",
"424 507 OFFCURVE",
"325 384 OFFCURVE",
"325 214 CURVE SMOOTH",
"325 74 OFFCURVE",
"390 -14 OFFCURVE",
"493 -14 CURVE SMOOTH"
);
}
);
width = 739;
}
);
leftKerningGroup = o;
rightKerningGroup = e;
unicode = 0153;
},
{
color = 4;
glyphname = p;
layers = (
{
anchors = (
{
name = bottom;
position = "{203, 0}";
},
{
name = top;
position = "{299, 478}";
}
);
layerId = "0E5388DE-A0E6-4EB4-BC9B-CE5870C9023F";
paths = (
{
closed = 1;
nodes = (
"351 -7 OFFCURVE",
"450 134 OFFCURVE",
"450 309 CURVE SMOOTH",
"450 434 OFFCURVE",
"399 498 OFFCURVE",
"315 481 CURVE",
"236 424 OFFCURVE",
"170 315 OFFCURVE",
"101 129 CURVE",
"115 120 LINE",
"188 311 OFFCURVE",
"261 424 OFFCURVE",
"340 468 CURVE",
"316 463 LINE",
"356 456 OFFCURVE",
"387 437 OFFCURVE",
"423 416 CURVE",
"397 439 LINE",
"464 264 OFFCURVE",
"383 38 OFFCURVE",
"242 9 CURVE",
"268 7 LINE",
"198 17 OFFCURVE",
"142 41 OFFCURVE",
"102 79 CURVE",
"101 69 LINE",
"127 21 OFFCURVE",
"174 -7 OFFCURVE",
"229 -7 CURVE SMOOTH"
);
},
{
closed = 1;
nodes = (
"163 -195 LINE",
"164 -186 LINE",
"47 -166 LINE",
"13 -169 OFFCURVE",
"-5 -173 OFFCURVE",
"-35 -185 CURVE",
"-36 -195 LINE"
);
},
{
closed = 1;
nodes = (
"56 -195 LINE",
"142 226 LINE",
"139 228 LINE",
"186 437 LINE",
"177 466 OFFCURVE",
"158 483 OFFCURVE",
"134 483 CURVE SMOOTH",
"107 483 OFFCURVE",
"80 459 OFFCURVE",
"68 424 CURVE",
"97 435 OFFCURVE",
"127 439 OFFCURVE",
"168 437 CURVE",
"161 456 LINE",
"23 -195 LINE"
);
}
);
width = 500;
},
{
anchors = (
{
name = bottom;
position = "{229, 0}";
},
{
name = top;
position = "{329, 495}";
}
);
layerId = "FCE02CC8-2979-430D-9DE0-31930C0E296D";
paths = (
{
closed = 1;
nodes = (
"427 -12 OFFCURVE",
"553 164 OFFCURVE",
"553 334 CURVE SMOOTH",
"553 450 OFFCURVE",
"497 500 OFFCURVE",
"386 500 CURVE",
"295 395 OFFCURVE",
"239 282 OFFCURVE",
"192 166 CURVE",
"220 137 LINE",
"256 222 OFFCURVE",
"301 299 OFFCURVE",
"357 368 CURVE",
"336 366 LINE",
"354 363 OFFCURVE",
"370 357 OFFCURVE",
"385 346 CURVE",
"378 362 LINE",
"365 264 OFFCURVE",
"340 171 OFFCURVE",
"302 81 CURVE",
"357 105 LINE",
"298 103 OFFCURVE",
"247 108 OFFCURVE",
"199 120 CURVE",
"199 67 LINE",
"210 17 OFFCURVE",
"246 -12 OFFCURVE",
"298 -12 CURVE SMOOTH"
);
},
{
closed = 1;
nodes = (
"231 -188 LINE",
"246 -121 LINE",
"64 -65 LINE",
"27 -75 OFFCURVE",
"-14 -92 OFFCURVE",
"-79 -125 CURVE",
"-91 -188 LINE"
);
},
{
closed = 1;
nodes = (
"161 -188 LINE",
"263 299 LINE",
"246 307 LINE",
"291 434 LINE",
"265 480 OFFCURVE",
"221 501 OFFCURVE",
"175 501 CURVE SMOOTH",
"103 501 OFFCURVE",
"27 449 OFFCURVE",
"13 363 CURVE",
"64 362 OFFCURVE",
"106 358 OFFCURVE",
"139 368 CURVE",
"114 456 LINE",
"-35 -188 LINE"
);
}
);
width = 550;
}
);
leftKerningGroup = p;
rightKerningGroup = o;
unicode = 0070;
},
{
color = 4;
glyphname = thorn;
layers = (
{
anchors = (
{
name = bottom;
position = "{199, 0}";
},
{
name = top;
position = "{295, 478}";
}
);
layerId = "0E5388DE-A0E6-4EB4-BC9B-CE5870C9023F";
paths = (
{
closed = 1;
nodes = (
"47 -195 LINE",
"133 226 LINE",
"130 228 LINE",
"173 416 LINE",
"235 725 LINE",
"206 718 LINE",
"14 -195 LINE"
);
},
{
closed = 1;
nodes = (
"154 -195 LINE",
"155 -186 LINE",
"38 -166 LINE",
"6 -169 OFFCURVE",
"-12 -173 OFFCURVE",
"-44 -185 CURVE",
"-45 -195 LINE"
);
},
{
closed = 1;
nodes = (
"235 725 LINE",
"196 725 OFFCURVE",
"160 720 OFFCURVE",
"112 708 CURVE",
"207 685 LINE"
);
},
{
closed = 1;
nodes = (
"342 -7 OFFCURVE",
"441 134 OFFCURVE",
"441 309 CURVE SMOOTH",
"441 434 OFFCURVE",
"390 498 OFFCURVE",
"306 481 CURVE",
"227 424 OFFCURVE",
"161 315 OFFCURVE",
"92 129 CURVE",
"106 120 LINE",
"179 311 OFFCURVE",
"252 424 OFFCURVE",
"331 468 CURVE",
"307 463 LINE",
"347 456 OFFCURVE",
"378 437 OFFCURVE",
"414 416 CURVE",
"388 439 LINE",
"455 264 OFFCURVE",
"374 38 OFFCURVE",
"233 9 CURVE",
"259 7 LINE",
"189 17 OFFCURVE",
"133 41 OFFCURVE",
"93 79 CURVE",
"92 69 LINE",
"118 21 OFFCURVE",
"165 -7 OFFCURVE",
"220 -7 CURVE SMOOTH"
);
}
);
width = 491;
},
{
anchors = (
{
name = bottom;
position = "{217, 0}";
},
{
name = top;
position = "{316, 495}";
}
);
layerId = "FCE02CC8-2979-430D-9DE0-31930C0E296D";
paths = (
{
closed = 1;
nodes = (
"137 -188 LINE",
"239 299 LINE",
"222 307 LINE",
"277 485 LINE",
"328 737 LINE",
"142 680 LINE",
"-58 -188 LINE"
);
},
{
closed = 1;
nodes = (
"207 -188 LINE",
"222 -121 LINE",
"40 -65 LINE",
"3 -75 OFFCURVE",
"-38 -92 OFFCURVE",
"-103 -125 CURVE",
"-115 -188 LINE"
);
},
{
closed = 1;
nodes = (
"328 737 LINE",
"232 741 OFFCURVE",
"144 724 OFFCURVE",
"64 687 CURVE",
"129 560 LINE"
);
},
{
closed = 1;
nodes = (
"403 -12 OFFCURVE",
"529 164 OFFCURVE",
"529 334 CURVE SMOOTH",
"529 450 OFFCURVE",
"473 500 OFFCURVE",
"363 500 CURVE",
"271 395 OFFCURVE",
"215 282 OFFCURVE",
"168 166 CURVE",
"196 137 LINE",
"232 222 OFFCURVE",
"277 299 OFFCURVE",
"333 368 CURVE",
"312 366 LINE",
"330 363 OFFCURVE",
"346 357 OFFCURVE",
"361 346 CURVE",
"354 362 LINE",
"341 264 OFFCURVE",
"316 171 OFFCURVE",
"278 81 CURVE",
"333 105 LINE",
"274 103 OFFCURVE",
"223 108 OFFCURVE",
"175 120 CURVE",
"175 67 LINE",
"186 17 OFFCURVE",
"222 -12 OFFCURVE",
"274 -12 CURVE SMOOTH"
);
}
);
width = 526;
}
);
leftKerningGroup = h;
rightKerningGroup = o;
unicode = 00FE;
},
{
color = 4;
glyphname = q;
layers = (
{
anchors = (
{
name = bottom;
position = "{192, 0}";
},
{
name = top;
position = "{288, 478}";
}
);
layerId = "0E5388DE-A0E6-4EB4-BC9B-CE5870C9023F";
paths = (
{
closed = 1;
nodes = (
"264 55 OFFCURVE",
"330 164 OFFCURVE",
"399 350 CURVE",
"385 359 LINE",
"312 168 OFFCURVE",
"239 55 OFFCURVE",
"160 11 CURVE",
"184 16 LINE",
"144 23 OFFCURVE",
"113 42 OFFCURVE",
"77 63 CURVE",
"103 40 LINE",
"36 215 OFFCURVE",
"117 441 OFFCURVE",
"258 470 CURVE",
"232 472 LINE",
"302 462 OFFCURVE",
"358 438 OFFCURVE",
"398 400 CURVE",
"399 410 LINE",
"373 458 OFFCURVE",
"326 486 OFFCURVE",
"271 486 CURVE SMOOTH",
"149 486 OFFCURVE",
"50 345 OFFCURVE",
"50 170 CURVE SMOOTH",
"50 45 OFFCURVE",
"101 -19 OFFCURVE",
"185 -2 CURVE"
);
},
{
closed = 1;
nodes = (
"372 -195 LINE",
"373 -186 LINE",
"292 -166 LINE",
"250 -169 OFFCURVE",
"223 -174 OFFCURVE",
"174 -185 CURVE",
"172 -195 LINE"
);
},
{
closed = 1;
nodes = (
"297 -195 LINE",
"434 478 LINE",
"405 478 LINE",
"358 251 LINE",
"361 250 LINE",
"321 77 LINE",
"265 -195 LINE"
);
}
);
width = 481;
},
{
anchors = (
{
name = bottom;
position = "{212, 0}";
},
{
name = top;
position = "{312, 495}";
}
);
layerId = "FCE02CC8-2979-430D-9DE0-31930C0E296D";
paths = (
{
closed = 1;
nodes = (
"255 98 OFFCURVE",
"312 211 OFFCURVE",
"359 327 CURVE",
"331 356 LINE",
"294 271 OFFCURVE",
"249 194 OFFCURVE",
"194 125 CURVE",
"215 127 LINE",
"197 129 OFFCURVE",
"180 136 OFFCURVE",
"166 147 CURVE",
"173 131 LINE",
"185 229 OFFCURVE",
"210 322 OFFCURVE",
"248 412 CURVE",
"194 388 LINE",
"252 390 OFFCURVE",
"303 385 OFFCURVE",
"351 373 CURVE",
"352 426 LINE",
"340 476 OFFCURVE",
"304 504 OFFCURVE",
"252 504 CURVE SMOOTH",
"124 504 OFFCURVE",
"-3 329 OFFCURVE",
"-3 159 CURVE SMOOTH",
"-3 43 OFFCURVE",
"54 -7 OFFCURVE",
"164 -7 CURVE"
);
},
{
closed = 1;
nodes = (
"462 -188 LINE",
"477 -121 LINE",
"295 -65 LINE",
"260 -74 OFFCURVE",
"214 -93 OFFCURVE",
"152 -125 CURVE",
"140 -188 LINE"
);
},
{
closed = 1;
nodes = (
"392 -188 LINE",
"538 495 LINE",
"359 495 LINE",
"284 194 LINE",
"305 186 LINE",
"247 25 LINE",
"197 -188 LINE"
);
}
);
width = 528;
}
);
leftKerningGroup = o;
rightKerningGroup = q;
unicode = 0071;
},
{
color = 4;
glyphname = r;
layers = (
{
anchors = (
{
name = bottom;
position = "{78, 0}";
},
{
name = top;
position = "{233, 478}";
}
);
layerId = "0E5388DE-A0E6-4EB4-BC9B-CE5870C9023F";
rightMetricsKey = "=12";
paths = (
{
closed = 1;
nodes = (
"95 0 LINE",
"140 226 LINE",
"137 227 LINE",
"184 437 LINE",
"175 466 OFFCURVE",
"156 483 OFFCURVE",
"132 483 CURVE SMOOTH",
"104 483 OFFCURVE",
"78 460 OFFCURVE",
"66 424 CURVE",
"95 435 OFFCURVE",
"126 439 OFFCURVE",
"166 437 CURVE",
"159 456 LINE",
"62 0 LINE"
);
},
{
closed = 1;
nodes = (
"184 293 OFFCURVE",
"245 387 OFFCURVE",
"306 436 CURVE",
"347 424 LINE",
"363 484 LINE",
"293 491 OFFCURVE",
"203 377 OFFCURVE",
"107 159 CURVE",
"118 141 LINE"
);
}
);
width = 326;
},
{
anchors = (
{
name = bottom;
position = "{105, 0}";
},
{
name = top;
position = "{296, 495}";
}
);
layerId = "FCE02CC8-2979-430D-9DE0-31930C0E296D";
rightMetricsKey = "=25";
paths = (
{
closed = 1;
nodes = (
"203 0 LINE",
"256 270 LINE",
"237 277 LINE",
"290 434 LINE",
"264 480 OFFCURVE",
"220 501 OFFCURVE",
"174 501 CURVE SMOOTH",
"102 501 OFFCURVE",
"26 450 OFFCURVE",
"12 363 CURVE",
"86 361 OFFCURVE",
"111 362 OFFCURVE",
"138 368 CURVE",
"113 456 LINE",
"8 0 LINE"
);
},
{
closed = 1;
nodes = (
"226 146 OFFCURVE",
"261 219 OFFCURVE",
"303 281 CURVE",
"411 248 LINE",
"467 500 LINE",
"376 513 OFFCURVE",
"298 413 OFFCURVE",
"180 121 CURVE",
"194 50 LINE"
);
}
);
width = 442;
}
);
leftKerningGroup = n;
rightKerningGroup = r;
unicode = 0072;
},
{
color = 4;
glyphname = s;
layers = (
{
anchors = (
{
name = bottom;
position = "{147, 0}";
},
{
name = top;
position = "{243, 478}";
}
);
background = {
paths = (
{
closed = 1;
nodes = (
"52 11 OFFCURVE",
"119 -7 OFFCURVE",
"163 -7 CURVE SMOOTH",
"245 -7 OFFCURVE",
"315 47 OFFCURVE",
"315 110 CURVE SMOOTH",
"315 224 OFFCURVE",
"99 282 OFFCURVE",
"99 375 CURVE SMOOTH",
"99 404 OFFCURVE",
"120 434 OFFCURVE",
"150 449 CURVE",
"203 456 OFFCURVE",
"243 453 OFFCURVE",
"340 436 CURVE",
"347 464 LINE",
"312 478 OFFCURVE",
"273 485 OFFCURVE",
"236 485 CURVE SMOOTH",
"139 485 OFFCURVE",
"69 437 OFFCURVE",
"69 371 CURVE SMOOTH",
"69 257 OFFCURVE",
"285 199 OFFCURVE",
"285 105 CURVE SMOOTH",
"285 65 OFFCURVE",
"238 22 OFFCURVE",
"183 12 CURVE",
"18 59 LINE",
"12 34 LINE"
);
},
{
closed = 1;
nodes = (
"322 342 LINE",
"347 464 LINE",
"304 465 LINE",
"312 342 LINE"
);
}
);
};
layerId = "0E5388DE-A0E6-4EB4-BC9B-CE5870C9023F";
paths = (
{
closed = 1;
nodes = (
"52 11 OFFCURVE",
"119 -7 OFFCURVE",
"163 -7 CURVE SMOOTH",
"245 -7 OFFCURVE",
"315 47 OFFCURVE",
"315 110 CURVE SMOOTH",
"315 224 OFFCURVE",
"99 282 OFFCURVE",
"99 375 CURVE SMOOTH",
"99 407 OFFCURVE",
"124 440 OFFCURVE",
"159 453 CURVE",
"142 448 LINE",
"199 456 OFFCURVE",
"238 454 OFFCURVE",
"340 436 CURVE",
"347 464 LINE",
"312 478 OFFCURVE",
"273 485 OFFCURVE",
"236 485 CURVE SMOOTH",
"139 485 OFFCURVE",
"69 437 OFFCURVE",
"69 371 CURVE SMOOTH",
"69 257 OFFCURVE",
"285 199 OFFCURVE",
"285 105 CURVE SMOOTH",
"285 63 OFFCURVE",
"232 17 OFFCURVE",
"173 11 CURVE",
"196 8 LINE",
"18 59 LINE",
"12 34 LINE"
);
},
{
closed = 1;
nodes = (
"322 342 LINE",
"347 464 LINE",
"306 465 LINE",
"314 342 LINE"
);
}
);
width = 390;
},
{
anchors = (
{
name = bottom;
position = "{166, 0}";
},
{
name = top;
position = "{275, 495}";
}
);
background = {
paths = (
{
closed = 1;
nodes = (
"36 16 OFFCURVE",
"107 -10 OFFCURVE",
"182 -10 CURVE SMOOTH",
"311 -10 OFFCURVE",
"413 65 OFFCURVE",
"413 159 CURVE SMOOTH",
"413 294 OFFCURVE",
"207 321 OFFCURVE",
"207 365 CURVE SMOOTH",
"207 371 OFFCURVE",
"208 378 OFFCURVE",
"212 386 CURVE",
"114 372 LINE",
"243 380 OFFCURVE",
"338 372 OFFCURVE",
"380 355 CURVE",
"445 471 LINE",
"386 494 OFFCURVE",
"327 504 OFFCURVE",
"272 504 CURVE SMOOTH",
"139 504 OFFCURVE",
"33 442 OFFCURVE",
"33 341 CURVE SMOOTH",
"33 204 OFFCURVE",
"238 175 OFFCURVE",
"238 130 CURVE SMOOTH",
"238 119 OFFCURVE",
"231 111 OFFCURVE",
"222 105 CURVE",
"266 105 LINE",
"20 184 LINE",
"-9 61 LINE"
);
},
{
closed = 1;
nodes = (
"410 314 LINE",
"445 471 LINE",
"275 470 LINE",
"327 314 LINE"
);
}
);
};
layerId = "FCE02CC8-2979-430D-9DE0-31930C0E296D";
paths = (
{
closed = 1;
nodes = (
"36 16 OFFCURVE",
"107 -10 OFFCURVE",
"182 -10 CURVE SMOOTH",
"311 -10 OFFCURVE",
"413 65 OFFCURVE",
"413 159 CURVE SMOOTH",
"413 294 OFFCURVE",
"207 321 OFFCURVE",
"207 365 CURVE SMOOTH",
"207 371 OFFCURVE",
"208 378 OFFCURVE",
"212 386 CURVE",
"143 378 LINE",
"226 378 OFFCURVE",
"306 371 OFFCURVE",
"380 355 CURVE",
"445 471 LINE",
"386 494 OFFCURVE",
"327 504 OFFCURVE",
"272 504 CURVE SMOOTH",
"139 504 OFFCURVE",
"33 442 OFFCURVE",
"33 341 CURVE SMOOTH",
"33 204 OFFCURVE",
"238 175 OFFCURVE",
"238 130 CURVE SMOOTH",
"238 119 OFFCURVE",
"231 111 OFFCURVE",
"222 105 CURVE",
"266 105 LINE",
"20 184 LINE",
"-9 61 LINE"
);
},
{
closed = 1;
nodes = (
"410 314 LINE",
"445 471 LINE",
"275 470 LINE",
"327 314 LINE"
);
}
);
width = 442;
}
);
leftKerningGroup = s;
rightKerningGroup = s;
unicode = 0073;
},
{
color = 4;
glyphname = scaron;
layers = (
{
anchors = (
{
name = top;
position = "{284, 684}";
}
);
components = (
{
name = s;
}
);
layerId = "0E5388DE-A0E6-4EB4-BC9B-CE5870C9023F";
paths = (
{
closed = 1;
nodes = (
"266 581 LINE",
"383 672 LINE",
"373 684 LINE",
"264 612 LINE",
"177 684 LINE",
"165 672 LINE",
"254 581 LINE"
);
}
);
width = 390;
},
{
anchors = (
{
name = top;
position = "{334, 793}";
}
);
components = (
{
name = s;
}
);
layerId = "FCE02CC8-2979-430D-9DE0-31930C0E296D";
paths = (
{
closed = 1;
nodes = (
"358 557 LINE",
"511 722 LINE",
"447 793 LINE",
"305 695 LINE",
"197 793 LINE",
"111 722 LINE",
"222 557 LINE"
);
}
);
width = 442;
}
);
leftKerningGroup = s;
rightKerningGroup = s;
unicode = 0161;
},
{
color = 4;
glyphname = germandbls;
layers = (
{
anchors = (
{
name = bottom;
position = "{221, 0}";
},
{
name = top;
position = "{374, 727}";
}
);
layerId = "0E5388DE-A0E6-4EB4-BC9B-CE5870C9023F";
paths = (
{
closed = 1;
nodes = (
"24 -208 OFFCURVE",
"80 -152 OFFCURVE",
"93 -72 CURVE SMOOTH",
"182 474 LINE",
"201 624 OFFCURVE",
"205 641 OFFCURVE",
"235 699 CURVE",
"224 686 LINE",
"264 698 OFFCURVE",
"303 705 OFFCURVE",
"337 705 CURVE SMOOTH",
"406 705 OFFCURVE",
"441 675 OFFCURVE",
"441 617 CURVE SMOOTH",
"441 515 OFFCURVE",
"277 480 OFFCURVE",
"277 382 CURVE SMOOTH",
"277 266 OFFCURVE",
"458 200 OFFCURVE",
"458 104 CURVE SMOOTH",
"458 60 OFFCURVE",
"421 21 OFFCURVE",
"370 10 CURVE",
"209 57 LINE",
"203 34 LINE",
"253 10 OFFCURVE",
"315 -7 OFFCURVE",
"352 -7 CURVE SMOOTH",
"428 -7 OFFCURVE",
"487 43 OFFCURVE",
"487 109 CURVE SMOOTH",
"487 221 OFFCURVE",
"306 291 OFFCURVE",
"306 384 CURVE SMOOTH",
"306 469 OFFCURVE",
"470 503 OFFCURVE",
"470 619 CURVE SMOOTH",
"470 698 OFFCURVE",
"429 733 OFFCURVE",
"338 733 CURVE SMOOTH",
"240 733 OFFCURVE",
"187 692 OFFCURVE",
"173 606 CURVE SMOOTH",
"63 -70 LINE SMOOTH",
"57 -109 OFFCURVE",
"52 -123 OFFCURVE",
"29 -164 CURVE",
"-26 -169 OFFCURVE",
"-95 -167 OFFCURVE",
"-135 -167 CURVE",
"-124 -190 OFFCURVE",
"-84 -208 OFFCURVE",
"-44 -208 CURVE SMOOTH"
);
},
{
closed = 1;
nodes = (
"160 452 LINE",
"166 478 LINE",
"154 478 LINE SMOOTH",
"120 478 OFFCURVE",
"90 472 OFFCURVE",
"58 459 CURVE",
"57 452 LINE"
);
}
);
width = 531;
},
{
anchors = (
{
name = bottom;
position = "{278, 0}";
},
{
name = top;
position = "{482, 737}";
}
);
layerId = "FCE02CC8-2979-430D-9DE0-31930C0E296D";
paths = (
{
closed = 1;
nodes = (
"92 -197 OFFCURVE",
"189 -74 OFFCURVE",
"213 83 CURVE SMOOTH",
"272 479 LINE",
"268 559 OFFCURVE",
"269 600 OFFCURVE",
"277 643 CURVE",
"129 594 LINE",
"211 599 OFFCURVE",
"271 603 OFFCURVE",
"315 603 CURVE SMOOTH",
"392 603 OFFCURVE",
"414 591 OFFCURVE",
"414 558 CURVE SMOOTH",
"414 491 OFFCURVE",
"298 455 OFFCURVE",
"298 337 CURVE SMOOTH",
"298 210 OFFCURVE",
"459 175 OFFCURVE",
"459 130 CURVE SMOOTH",
"459 124 OFFCURVE",
"458 121 OFFCURVE",
"456 116 CURVE",
"269 184 LINE",
"245 61 LINE",
"285 16 OFFCURVE",
"348 -10 OFFCURVE",
"419 -10 CURVE SMOOTH",
"540 -10 OFFCURVE",
"635 63 OFFCURVE",
"635 158 CURVE SMOOTH",
"635 295 OFFCURVE",
"473 317 OFFCURVE",
"473 368 CURVE SMOOTH",
"473 435 OFFCURVE",
"596 472 OFFCURVE",
"596 590 CURVE SMOOTH",
"596 689 OFFCURVE",
"526 747 OFFCURVE",
"386 747 CURVE SMOOTH",
"220 747 OFFCURVE",
"119 679 OFFCURVE",
"104 557 CURVE SMOOTH",
"58 197 LINE SMOOTH",
"44 80 OFFCURVE",
"42 40 OFFCURVE",
"39 -30 CURVE",
"-12 -34 OFFCURVE",
"-65 -34 OFFCURVE",
"-124 -30 CURVE",
"-152 -116 OFFCURVE",
"-96 -197 OFFCURVE",
"-9 -197 CURVE SMOOTH"
);
},
{
closed = 1;
nodes = (
"169 384 LINE",
"190 488 LINE",
"101 488 LINE",
"68 478 OFFCURVE",
"39 463 OFFCURVE",
"10 443 CURVE",
"-3 384 LINE"
);
}
);
width = 641;
}
);
leftKerningGroup = f;
unicode = 00DF;
},
{
color = 4;
glyphname = t;
layers = (
{
anchors = (
{
name = bottom;
position = "{142, 0}";
},
{
name = center;
position = "{182, 281}";
},
{
name = top;
position = "{188, 592}";
},
{
name = topright;
position = "{320, 689}";
}
);
layerId = "0E5388DE-A0E6-4EB4-BC9B-CE5870C9023F";
paths = (
{
closed = 1;
nodes = (
"218 -7 OFFCURVE",
"280 53 OFFCURVE",
"303 136 CURVE",
"290 141 LINE",
"263 71 OFFCURVE",
"212 26 OFFCURVE",
"160 26 CURVE SMOOTH",
"132 26 OFFCURVE",
"107 40 OFFCURVE",
"86 68 CURVE",
"93 48 LINE",
"207 618 LINE",
"181 618 LINE",
"67 81 LINE",
"67 34 OFFCURVE",
"108 -7 OFFCURVE",
"155 -7 CURVE SMOOTH"
);
},
{
closed = 1;
nodes = (
"354 452 LINE",
"359 478 LINE",
"154 478 LINE SMOOTH",
"125 478 OFFCURVE",
"99 472 OFFCURVE",
"72 459 CURVE",
"71 452 LINE"
);
}
);
width = 360;
},
{
anchors = (
{
name = bottom;
position = "{178, 0}";
},
{
name = center;
position = "{195, 288}";
},
{
name = top;
position = "{222, 610}";
},
{
name = topright;
position = "{440, 737}";
}
);
layerId = "FCE02CC8-2979-430D-9DE0-31930C0E296D";
paths = (
{
closed = 1;
nodes = (
"288 -14 OFFCURVE",
"361 60 OFFCURVE",
"378 191 CURVE",
"349 202 LINE",
"314 164 OFFCURVE",
"282 145 OFFCURVE",
"251 145 CURVE SMOOTH",
"236 145 OFFCURVE",
"222 150 OFFCURVE",
"206 159 CURVE",
"205 71 LINE",
"317 626 LINE",
"142 626 LINE",
"22 111 LINE",
"37 32 OFFCURVE",
"95 -14 OFFCURVE",
"179 -14 CURVE SMOOTH"
);
},
{
closed = 1;
nodes = (
"406 384 LINE",
"426 488 LINE",
"117 488 LINE",
"84 478 OFFCURVE",
"56 463 OFFCURVE",
"26 443 CURVE",
"13 384 LINE"
);
}
);
width = 402;
}
);
leftKerningGroup = t;
rightKerningGroup = t;
unicode = 0074;
},
{
color = 4;
glyphname = u;
layers = (
{
anchors = (
{
name = bottom;
position = "{232, 0}";
},
{
name = ogonek;
position = "{446, 10}";
},
{
name = top;
position = "{308, 478}";
},
{
name = topright;
position = "{548, 478}";
}
);
layerId = "0E5388DE-A0E6-4EB4-BC9B-CE5870C9023F";
paths = (
{
closed = 1;
nodes = (
"176 462 OFFCURVE",
"159 483 OFFCURVE",
"135 483 CURVE SMOOTH",
"108 483 OFFCURVE",
"81 457 OFFCURVE",
"66 418 CURVE",
"95 433 OFFCURVE",
"132 441 OFFCURVE",
"168 441 CURVE",
"160 456 LINE",
"72 105 LINE SMOOTH",
"55 37 OFFCURVE",
"122 -19 OFFCURVE",
"194 3 CURVE",
"268 54 OFFCURVE",
"337 154 OFFCURVE",
"412 319 CURVE",
"400 336 LINE",
"324 165 OFFCURVE",
"235 45 OFFCURVE",
"161 13 CURVE",
"177 12 LINE",
"152 23 OFFCURVE",
"118 48 OFFCURVE",
"90 77 CURVE",
"92 55 LINE",
"181 426 LINE"
);
},
{
closed = 1;
nodes = (
"340 16 OFFCURVE",
"358 -5 OFFCURVE",
"384 -5 CURVE SMOOTH",
"412 -5 OFFCURVE",
"441 21 OFFCURVE",
"455 60 CURVE",
"422 44 OFFCURVE",
"388 36 OFFCURVE",
"353 36 CURVE",
"361 21 LINE",
"455 478 LINE",
"426 478 LINE",
"379 253 LINE",
"382 252 LINE",
"335 51 LINE"
);
}
);
width = 519;
},
{
anchors = (
{
name = bottom;
position = "{235, 0}";
},
{
name = ogonek;
position = "{531, 10}";
},
{
name = top;
position = "{335, 495}";
},
{
name = topright;
position = "{600, 495}";
}
);
layerId = "FCE02CC8-2979-430D-9DE0-31930C0E296D";
paths = (
{
closed = 1;
nodes = (
"262 481 OFFCURVE",
"219 502 OFFCURVE",
"175 502 CURVE SMOOTH",
"107 502 OFFCURVE",
"36 451 OFFCURVE",
"22 364 CURVE",
"82 362 OFFCURVE",
"140 365 OFFCURVE",
"213 375 CURVE",
"112 456 LINE",
"21 143 LINE SMOOTH",
"-9 39 OFFCURVE",
"55 -20 OFFCURVE",
"175 -4 CURVE",
"239 45 OFFCURVE",
"333 210 OFFCURVE",
"392 372 CURVE",
"379 444 LINE",
"336 315 OFFCURVE",
"288 222 OFFCURVE",
"215 130 CURVE",
"246 141 LINE",
"224 145 OFFCURVE",
"208 154 OFFCURVE",
"195 169 CURVE",
"211 146 LINE",
"288 435 LINE"
);
},
{
closed = 1;
nodes = (
"307 12 OFFCURVE",
"351 -9 OFFCURVE",
"396 -9 CURVE SMOOTH",
"468 -9 OFFCURVE",
"543 42 OFFCURVE",
"556 129 CURVE",
"513 132 OFFCURVE",
"476 131 OFFCURVE",
"431 125 CURVE",
"465 36 LINE",
"565 495 LINE",
"386 495 LINE",
"316 222 LINE",
"336 215 LINE",
"281 58 LINE"
);
}
);
width = 573;
}
);
leftKerningGroup = u;
rightKerningGroup = u;
unicode = 0075;
},
{
color = 4;
glyphname = uacute;
layers = (
{
anchors = (
{
name = top;
position = "{353, 703}";
}
);
components = (
{
name = u;
}
);
layerId = "0E5388DE-A0E6-4EB4-BC9B-CE5870C9023F";
paths = (
{
closed = 1;
nodes = (
"334 602 OFFCURVE",
"389 640 OFFCURVE",
"444 681 CURVE",
"428 703 LINE",
"422 703 LINE",
"266 574 LINE",
"272 565 LINE"
);
}
);
width = 519;
},
{
anchors = (
{
name = top;
position = "{393, 789}";
}
);
components = (
{
name = u;
}
);
layerId = "FCE02CC8-2979-430D-9DE0-31930C0E296D";
paths = (
{
closed = 1;
nodes = (
"355 567 OFFCURVE",
"443 599 OFFCURVE",
"531 640 CURVE",
"460 781 LINE",
"434 781 LINE",
"224 610 LINE",
"264 540 LINE"
);
}
);
width = 573;
}
);
leftKerningGroup = u;
rightKerningGroup = u;
unicode = 00FA;
},
{
color = 4;
glyphname = udieresis;
layers = (
{
anchors = (
{
name = top;
position = "{346, 668}";
}
);
components = (
{
name = u;
}
);
layerId = "0E5388DE-A0E6-4EB4-BC9B-CE5870C9023F";
paths = (
{
closed = 1;
nodes = (
"270 665 OFFCURVE",
"257 657 OFFCURVE",
"245 645 CURVE",
"248 633 OFFCURVE",
"256 620 OFFCURVE",
"267 607 CURVE",
"281 609 OFFCURVE",
"296 617 OFFCURVE",
"306 628 CURVE",
"304 642 OFFCURVE",
"297 656 OFFCURVE",
"285 668 CURVE"
);
},
{
closed = 1;
nodes = (
"399 665 OFFCURVE",
"385 657 OFFCURVE",
"374 645 CURVE",
"378 630 OFFCURVE",
"386 617 OFFCURVE",
"397 607 CURVE",
"410 609 OFFCURVE",
"423 616 OFFCURVE",
"435 628 CURVE",
"433 642 OFFCURVE",
"426 655 OFFCURVE",
"415 668 CURVE"
);
}
);
width = 519;
},
{
anchors = (
{
name = top;
position = "{391, 775}";
}
);
components = (
{
name = u;
}
);
layerId = "FCE02CC8-2979-430D-9DE0-31930C0E296D";
paths = (
{
closed = 1;
nodes = (
"233 766 OFFCURVE",
"183 736 OFFCURVE",
"148 699 CURVE",
"157 644 OFFCURVE",
"188 592 OFFCURVE",
"227 560 CURVE",
"278 567 OFFCURVE",
"331 599 OFFCURVE",
"364 639 CURVE",
"356 690 OFFCURVE",
"326 739 OFFCURVE",
"286 775 CURVE"
);
},
{
closed = 1;
nodes = (
"460 766 OFFCURVE",
"410 736 OFFCURVE",
"374 699 CURVE",
"383 644 OFFCURVE",
"414 592 OFFCURVE",
"453 560 CURVE",
"505 567 OFFCURVE",
"557 599 OFFCURVE",
"590 639 CURVE",
"582 690 OFFCURVE",
"551 739 OFFCURVE",
"511 775 CURVE"
);
}
);
width = 573;
}
);
leftKerningGroup = u;
rightKerningGroup = u;
unicode = 00FC;
},
{
color = 4;
glyphname = ugrave;
layers = (
{
anchors = (
{
name = top;
position = "{353, 703}";
}
);
components = (
{
name = u;
}
);
layerId = "0E5388DE-A0E6-4EB4-BC9B-CE5870C9023F";
paths = (
{
closed = 1;
nodes = (
"410 574 LINE",
"254 703 LINE",
"248 703 LINE",
"232 681 LINE",
"287 640 OFFCURVE",
"342 602 OFFCURVE",
"404 565 CURVE"
);
}
);
width = 519;
},
{
anchors = (
{
name = top;
position = "{393, 789}";
}
);
components = (
{
name = u;
}
);
layerId = "FCE02CC8-2979-430D-9DE0-31930C0E296D";
paths = (
{
closed = 1;
nodes = (
"509 610 LINE",
"299 781 LINE",
"273 781 LINE",
"202 640 LINE",
"289 599 OFFCURVE",
"378 567 OFFCURVE",
"469 540 CURVE"
);
}
);
width = 573;
}
);
leftKerningGroup = u;
rightKerningGroup = u;
unicode = 00F9;
},
{
color = 4;
glyphname = v;
layers = (
{
anchors = (
{
name = bottom;
position = "{163, 0}";
},
{
name = top;
position = "{259, 478}";
}
);
layerId = "0E5388DE-A0E6-4EB4-BC9B-CE5870C9023F";
paths = (
{
closed = 1;
nodes = (
"182 28 LINE",
"133 448 LINE",
"125 469 OFFCURVE",
"110 482 OFFCURVE",
"91 482 CURVE SMOOTH",
"66 482 OFFCURVE",
"45 458 OFFCURVE",
"40 425 CURVE",
"58 433 OFFCURVE",
"88 437 OFFCURVE",
"121 436 CURVE",
"99 460 LINE",
"161 -6 LINE",
"185 -6 OFFCURVE",
"189 -3 OFFCURVE",
"205 21 CURVE SMOOTH",
"275 125 OFFCURVE",
"367 292 OFFCURVE",
"408 391 CURVE SMOOTH",
"432 451 OFFCURVE",
"423 478 OFFCURVE",
"377 478 CURVE SMOOTH",
"368 478 OFFCURVE",
"364 478 OFFCURVE",
"359 477 CURVE",
"394 395 LINE",
"396 426 LINE",
"353 318 OFFCURVE",
"282 185 OFFCURVE",
"184 28 CURVE"
);
}
);
width = 421;
},
{
anchors = (
{
name = bottom;
position = "{179, 0}";
},
{
name = top;
position = "{279, 495}";
}
);
layerId = "FCE02CC8-2979-430D-9DE0-31930C0E296D";
paths = (
{
closed = 1;
nodes = (
"239 148 LINE",
"242 439 LINE",
"215 480 OFFCURVE",
"175 499 OFFCURVE",
"134 499 CURVE SMOOTH",
"63 499 OFFCURVE",
"-8 444 OFFCURVE",
"-11 357 CURVE",
"27 354 OFFCURVE",
"58 355 OFFCURVE",
"97 362 CURVE",
"55 452 LINE",
"84 -3 LINE",
"244 -2 OFFCURVE",
"263 2 OFFCURVE",
"306 56 CURVE SMOOTH",
"373 138 OFFCURVE",
"451 264 OFFCURVE",
"477 333 CURVE SMOOTH",
"513 431 OFFCURVE",
"477 496 OFFCURVE",
"393 496 CURVE SMOOTH",
"366 496 OFFCURVE",
"336 490 OFFCURVE",
"300 476 CURVE",
"361 264 LINE",
"361 403 LINE",
"335 316 OFFCURVE",
"299 234 OFFCURVE",
"250 148 CURVE"
);
}
);
width = 457;
}
);
leftKerningGroup = v;
rightKerningGroup = v;
unicode = 0076;
},
{
color = 4;
glyphname = w;
layers = (
{
anchors = (
{
name = bottom;
position = "{294, 0}";
},
{
name = top;
position = "{390, 478}";
}
);
layerId = "0E5388DE-A0E6-4EB4-BC9B-CE5870C9023F";
paths = (
{
closed = 1;
nodes = (
"420 -6 OFFCURVE",
"421 -4 OFFCURVE",
"438 21 CURVE SMOOTH",
"503 117 OFFCURVE",
"596 289 OFFCURVE",
"637 388 CURVE SMOOTH",
"646 409 OFFCURVE",
"651 428 OFFCURVE",
"651 443 CURVE SMOOTH",
"651 467 OFFCURVE",
"637 478 OFFCURVE",
"607 478 CURVE SMOOTH",
"597 478 OFFCURVE",
"593 478 OFFCURVE",
"590 477 CURVE",
"624 395 LINE",
"626 426 LINE",
"580 312 OFFCURVE",
"509 176 OFFCURVE",
"416 28 CURVE",
"415 28 LINE",
"369 459 LINE",
"360 472 OFFCURVE",
"348 477 OFFCURVE",
"331 477 CURVE SMOOTH",
"323 477 OFFCURVE",
"314 476 OFFCURVE",
"303 474 CURVE",
"353 389 LINE",
"343 421 LINE",
"394 -6 LINE"
);
},
{
closed = 1;
nodes = (
"187 -6 OFFCURVE",
"188 1 OFFCURVE",
"201 21 CURVE SMOOTH",
"264 124 OFFCURVE",
"332 256 OFFCURVE",
"370 348 CURVE",
"362 387 LINE",
"316 275 OFFCURVE",
"255 154 OFFCURVE",
"180 28 CURVE",
"178 28 LINE",
"132 448 LINE",
"124 469 OFFCURVE",
"108 482 OFFCURVE",
"91 482 CURVE SMOOTH",
"66 482 OFFCURVE",
"46 459 OFFCURVE",
"41 425 CURVE",
"65 434 OFFCURVE",
"90 438 OFFCURVE",
"120 436 CURVE",
"99 460 LINE",
"157 -6 LINE"
);
}
);
width = 651;
},
{
anchors = (
{
name = bottom;
position = "{306, 0}";
},
{
name = top;
position = "{406, 495}";
}
);
layerId = "FCE02CC8-2979-430D-9DE0-31930C0E296D";
paths = (
{
closed = 1;
nodes = (
"494 -2 OFFCURVE",
"509 2 OFFCURVE",
"555 58 CURVE SMOOTH",
"610 126 OFFCURVE",
"691 254 OFFCURVE",
"719 333 CURVE SMOOTH",
"729 360 OFFCURVE",
"734 384 OFFCURVE",
"734 405 CURVE SMOOTH",
"734 463 OFFCURVE",
"698 497 OFFCURVE",
"639 497 CURVE SMOOTH",
"612 497 OFFCURVE",
"579 490 OFFCURVE",
"544 476 CURVE",
"602 264 LINE",
"603 403 LINE",
"578 314 OFFCURVE",
"546 235 OFFCURVE",
"499 148 CURVE",
"487 148 LINE",
"495 439 LINE",
"471 479 OFFCURVE",
"432 499 OFFCURVE",
"384 499 CURVE SMOOTH",
"355 499 OFFCURVE",
"322 491 OFFCURVE",
"288 476 CURVE",
"361 210 LINE",
"333 395 LINE",
"341 -3 LINE"
);
},
{
closed = 1;
nodes = (
"254 -2 OFFCURVE",
"271 5 OFFCURVE",
"302 64 CURVE SMOOTH",
"334 125 OFFCURVE",
"393 269 OFFCURVE",
"426 360 CURVE",
"353 411 LINE",
"321 316 OFFCURVE",
"288 234 OFFCURVE",
"246 148 CURVE",
"235 148 LINE",
"242 439 LINE",
"216 480 OFFCURVE",
"175 499 OFFCURVE",
"135 499 CURVE SMOOTH",
"64 499 OFFCURVE",
"-7 444 OFFCURVE",
"-10 357 CURVE",
"17 354 OFFCURVE",
"41 355 OFFCURVE",
"96 362 CURVE",
"55 452 LINE",
"79 -3 LINE"
);
}
);
width = 702;
}
);
leftKerningGroup = v;
rightKerningGroup = v;
unicode = 0077;
},
{
color = 4;
glyphname = x;
layers = (
{
anchors = (
{
name = bottom;
position = "{180, 0}";
},
{
name = center;
position = "{226, 254}";
},
{
name = top;
position = "{276, 478}";
}
);
layerId = "0E5388DE-A0E6-4EB4-BC9B-CE5870C9023F";
paths = (
{
closed = 1;
nodes = (
"225 238 LINE",
"245 272 LINE",
"232 272 LINE",
"160 468 LINE",
"151 477 OFFCURVE",
"140 482 OFFCURVE",
"128 482 CURVE SMOOTH",
"101 482 OFFCURVE",
"80 460 OFFCURVE",
"74 425 CURVE",
"93 431 OFFCURVE",
"127 436 OFFCURVE",
"154 436 CURVE",
"130 461 LINE",
"214 238 LINE"
);
},
{
closed = 1;
nodes = (
"237 236 LINE",
"322 369 OFFCURVE",
"341 394 OFFCURVE",
"388 436 CURVE",
"434 424 LINE",
"448 484 LINE",
"444 484 OFFCURVE",
"440 485 OFFCURVE",
"436 485 CURVE SMOOTH",
"382 485 OFFCURVE",
"342 440 OFFCURVE",
"211 236 CURVE"
);
},
{
closed = 1;
nodes = (
"230 261 LINE",
"210 230 LINE",
"223 230 LINE",
"306 9 LINE",
"316 0 OFFCURVE",
"327 -5 OFFCURVE",
"339 -5 CURVE SMOOTH",
"365 -5 OFFCURVE",
"386 18 OFFCURVE",
"391 51 CURVE",
"368 44 OFFCURVE",
"338 41 OFFCURVE",
"311 42 CURVE",
"335 17 LINE",
"242 261 LINE"
);
},
{
closed = 1;
nodes = (
"214 263 LINE",
"115 108 OFFCURVE",
"99 87 OFFCURVE",
"50 44 CURVE",
"2 56 LINE",
"-9 -4 LINE",
"55 -12 OFFCURVE",
"94 31 OFFCURVE",
"239 263 CURVE"
);
}
);
width = 454;
},
{
anchors = (
{
name = bottom;
position = "{222, 0}";
},
{
name = center;
position = "{271, 256}";
},
{
name = top;
position = "{321, 495}";
}
);
layerId = "FCE02CC8-2979-430D-9DE0-31930C0E296D";
paths = (
{
closed = 1;
nodes = (
"319 208 LINE",
"366 326 LINE",
"345 326 LINE",
"323 439 LINE",
"296 481 OFFCURVE",
"252 501 OFFCURVE",
"207 501 CURVE SMOOTH",
"129 501 OFFCURVE",
"44 443 OFFCURVE",
"40 354 CURVE",
"91 352 OFFCURVE",
"117 353 OFFCURVE",
"147 359 CURVE",
"105 424 LINE",
"175 208 LINE"
);
},
{
closed = 1;
nodes = (
"338 190 LINE",
"351 221 OFFCURVE",
"367 247 OFFCURVE",
"386 280 CURVE",
"499 247 LINE",
"554 498 LINE",
"541 500 OFFCURVE",
"529 501 OFFCURVE",
"519 501 CURVE SMOOTH",
"434 501 OFFCURVE",
"399 446 OFFCURVE",
"280 190 CURVE"
);
},
{
closed = 1;
nodes = (
"221 280 LINE",
"175 162 LINE",
"195 162 LINE",
"220 51 LINE",
"246 9 OFFCURVE",
"291 -11 OFFCURVE",
"336 -11 CURVE SMOOTH",
"415 -11 OFFCURVE",
"499 46 OFFCURVE",
"503 135 CURVE",
"455 138 OFFCURVE",
"424 137 OFFCURVE",
"395 132 CURVE",
"437 65 LINE",
"365 280 LINE"
);
},
{
closed = 1;
nodes = (
"203 298 LINE",
"183 256 OFFCURVE",
"171 237 OFFCURVE",
"156 209 CURVE",
"41 242 LINE",
"-13 -8 LINE",
"98 -21 OFFCURVE",
"125 10 OFFCURVE",
"260 298 CURVE"
);
}
);
width = 542;
}
);
leftKerningGroup = x;
rightKerningGroup = x;
unicode = 0078;
},
{
color = 4;
glyphname = y;
layers = (
{
anchors = (
{
name = bottom;
position = "{273, 0}";
},
{
name = top;
position = "{256, 478}";
}
);
layerId = "0E5388DE-A0E6-4EB4-BC9B-CE5870C9023F";
paths = (
{
closed = 1;
nodes = (
"-74 -195 OFFCURVE",
"-55 -198 OFFCURVE",
"-38 -198 CURVE SMOOTH",
"-11 -198 OFFCURVE",
"12 -191 OFFCURVE",
"38 -175 CURVE SMOOTH",
"141 -112 OFFCURVE",
"323 174 OFFCURVE",
"395 385 CURVE SMOOTH",
"420 458 OFFCURVE",
"415 478 OFFCURVE",
"370 478 CURVE SMOOTH",
"358 478 OFFCURVE",
"354 478 OFFCURVE",
"350 477 CURVE",
"382 392 LINE",
"381 420 LINE",
"289 166 OFFCURVE",
"138 -77 OFFCURVE",
"15 -168 CURVE",
"-91 -162 LINE",
"-95 -189 LINE"
);
},
{
closed = 1;
nodes = (
"182 3 LINE",
"198 28 LINE",
"184 28 LINE",
"132 449 LINE",
"125 470 OFFCURVE",
"110 483 OFFCURVE",
"92 483 CURVE SMOOTH",
"67 483 OFFCURVE",
"46 460 OFFCURVE",
"40 426 CURVE",
"57 434 OFFCURVE",
"71 436 OFFCURVE",
"120 436 CURVE",
"99 460 LINE",
"160 0 LINE"
);
}
);
width = 417;
},
{
anchors = (
{
name = bottom;
position = "{349, 0}";
},
{
name = top;
position = "{282, 495}";
}
);
layerId = "FCE02CC8-2979-430D-9DE0-31930C0E296D";
paths = (
{
closed = 1;
nodes = (
"-84 -192 OFFCURVE",
"-55 -197 OFFCURVE",
"-23 -197 CURVE SMOOTH",
"31 -197 OFFCURVE",
"87 -181 OFFCURVE",
"135 -151 CURVE SMOOTH",
"250 -77 OFFCURVE",
"427 175 OFFCURVE",
"478 334 CURVE SMOOTH",
"511 438 OFFCURVE",
"484 497 OFFCURVE",
"406 497 CURVE SMOOTH",
"378 497 OFFCURVE",
"344 490 OFFCURVE",
"304 476 CURVE",
"366 245 LINE",
"362 399 LINE",
"321 255 OFFCURVE",
"239 103 OFFCURVE",
"111 -54 CURVE",
"-82 -40 LINE",
"-110 -181 LINE"
);
},
{
closed = 1;
nodes = (
"227 0 LINE",
"332 153 LINE",
"245 153 LINE",
"241 439 LINE",
"215 480 OFFCURVE",
"175 499 OFFCURVE",
"133 499 CURVE SMOOTH",
"63 499 OFFCURVE",
"-9 444 OFFCURVE",
"-12 357 CURVE",
"12 354 OFFCURVE",
"36 355 OFFCURVE",
"95 362 CURVE",
"64 452 LINE",
"101 0 LINE"
);
}
);
width = 464;
}
);
leftKerningGroup = v;
rightKerningGroup = v;
unicode = 0079;
},
{
color = 4;
glyphname = yacute;
layers = (
{
anchors = (
{
name = top;
position = "{301, 703}";
}
);
components = (
{
name = y;
}
);
layerId = "0E5388DE-A0E6-4EB4-BC9B-CE5870C9023F";
paths = (
{
closed = 1;
nodes = (
"282 602 OFFCURVE",
"337 640 OFFCURVE",
"392 681 CURVE",
"376 703 LINE",
"370 703 LINE",
"214 574 LINE",
"220 565 LINE"
);
}
);
width = 417;
},
{
anchors = (
{
name = top;
position = "{340, 789}";
}
);
components = (
{
name = y;
}
);
layerId = "FCE02CC8-2979-430D-9DE0-31930C0E296D";
paths = (
{
closed = 1;
nodes = (
"302 567 OFFCURVE",
"390 599 OFFCURVE",
"478 640 CURVE",
"407 781 LINE",
"381 781 LINE",
"171 610 LINE",
"211 540 LINE"
);
}
);
width = 464;
}
);
leftKerningGroup = v;
rightKerningGroup = v;
unicode = 00FD;
},
{
color = 4;
glyphname = ydieresis;
layers = (
{
anchors = (
{
name = top;
position = "{294, 668}";
}
);
components = (
{
name = y;
}
);
layerId = "0E5388DE-A0E6-4EB4-BC9B-CE5870C9023F";
paths = (
{
closed = 1;
nodes = (
"218 665 OFFCURVE",
"205 657 OFFCURVE",
"193 645 CURVE",
"196 633 OFFCURVE",
"204 620 OFFCURVE",
"215 607 CURVE",
"229 609 OFFCURVE",
"244 617 OFFCURVE",
"254 628 CURVE",
"252 642 OFFCURVE",
"245 656 OFFCURVE",
"233 668 CURVE"
);
},
{
closed = 1;
nodes = (
"347 665 OFFCURVE",
"333 657 OFFCURVE",
"322 645 CURVE",
"326 630 OFFCURVE",
"334 617 OFFCURVE",
"345 607 CURVE",
"358 609 OFFCURVE",
"371 616 OFFCURVE",
"383 628 CURVE",
"381 642 OFFCURVE",
"374 655 OFFCURVE",
"363 668 CURVE"
);
}
);
width = 417;
},
{
anchors = (
{
name = top;
position = "{338, 775}";
}
);
components = (
{
name = y;
}
);
layerId = "FCE02CC8-2979-430D-9DE0-31930C0E296D";
paths = (
{
closed = 1;
nodes = (
"180 766 OFFCURVE",
"130 736 OFFCURVE",
"95 699 CURVE",
"104 644 OFFCURVE",
"135 592 OFFCURVE",
"174 560 CURVE",
"225 567 OFFCURVE",
"278 599 OFFCURVE",
"311 639 CURVE",
"303 690 OFFCURVE",
"273 739 OFFCURVE",
"233 775 CURVE"
);
},
{
closed = 1;
nodes = (
"407 766 OFFCURVE",
"357 736 OFFCURVE",
"321 699 CURVE",
"330 644 OFFCURVE",
"361 592 OFFCURVE",
"400 560 CURVE",
"452 567 OFFCURVE",
"504 599 OFFCURVE",
"537 639 CURVE",
"529 690 OFFCURVE",
"498 739 OFFCURVE",
"458 775 CURVE"
);
}
);
width = 464;
}
);
leftKerningGroup = v;
rightKerningGroup = v;
unicode = 00FF;
},
